SILCHRmaster.ufo
<glyph name="ExclamationMrk" format="1">
  <advance width="692"/>
  <unicode hex="0021"/>
  <outline>
    <contour>
      <point x="471" y="1274" type="curve" smooth="yes" name="hr00"/>
      <point x="471" y="1356"/>
      <point x="432" y="1407"/>
      <point x="346" y="1407" type="curve" smooth="yes"/>
      <point x="260" y="1407"/>
      <point x="221" y="1356"/>
      <point x="221" y="1274" type="curve" smooth="yes"/>
      <point x="221" y="1241"/>
      <point x="297" y="371"/>
      <point x="297" y="371" type="curve"/>
      <point x="397" y="371" type="line"/>
      <point x="397" y="371"/>
      <point x="471" y="1241"/>
    </contour>
    <contour>
      <point x="473" y="102" type="curve" smooth="yes"/>
      <point x="473" y="172"/>
      <point x="416" y="227"/>
      <point x="346" y="227" type="curve" smooth="yes"/>
      <point x="276" y="227"/>
      <point x="221" y="172"/>
      <point x="221" y="102" type="curve" smooth="yes"/>
      <point x="221" y="35"/>
      <point x="276" y="-25"/>
      <point x="346" y="-25" type="curve" smooth="yes"/>
      <point x="416" y="-25"/>
      <point x="473" y="35"/>
    </contour>
  </outline>
</glyph>
<glyph name="NumSgn" format="1">
  <advance width="1522"/>
  <unicode hex="0023"/>
  <outline>
    <contour>
      <point x="1397" y="862" type="line" name="hr01"/>
      <point x="1397" y="967" type="line"/>
      <point x="1110" y="967" type="line"/>
      <point x="1266" y="1417" type="line"/>
      <point x="1157" y="1450" type="line"/>
      <point x="995" y="967" type="line"/>
      <point x="696" y="967" type="line"/>
      <point x="854" y="1417" type="line"/>
      <point x="750" y="1450" type="line"/>
      <point x="586" y="967" type="line"/>
      <point x="219" y="967" type="line"/>
      <point x="219" y="862" type="line"/>
      <point x="551" y="862" type="line"/>
      <point x="451" y="569" type="line"/>
      <point x="127" y="569" type="line"/>
      <point x="127" y="467" type="line"/>
      <point x="418" y="467" type="line"/>
      <point x="254" y="-12" type="line"/>
      <point x="354" y="-47" type="line"/>
      <point x="528" y="467" type="line"/>
      <point x="825" y="467" type="line"/>
      <point x="666" y="-14" type="line" name="hr02"/>
      <point x="768" y="-47" type="line"/>
      <point x="940" y="467" type="line"/>
      <point x="1307" y="467" type="line"/>
      <point x="1307" y="569" type="line"/>
      <point x="977" y="569" type="line"/>
      <point x="1073" y="862" type="line"/>
    </contour>
    <contour>
      <point x="961" y="862" type="line"/>
      <point x="860" y="569" type="line"/>
      <point x="563" y="569" type="line"/>
      <point x="664" y="862" type="line"/>
    </contour>
  </outline>
</glyph>
<glyph name="HyphenMinus" format="1">
  <advance width="655"/>
  <unicode hex="002D"/>
  <outline>
    <contour>
      <point x="565" y="416" type="line" name="hr00"/>
      <point x="565" y="569" type="line"/>
      <point x="90" y="569" type="line"/>
      <point x="90" y="416" type="line"/>
    </contour>
    <contour>
      <point x="327" y="1100" type="move" name="U"/>
    </contour>
  </outline>
</glyph>
<glyph name="FullStop" format="1">
  <advance width="573"/>
  <unicode hex="002E"/>
  <outline>
    <contour>
      <point x="401" y="113" type="curve" smooth="yes" name="hr00"/>
      <point x="401" y="188"/>
      <point x="338" y="250"/>
      <point x="262" y="250" type="curve" smooth="yes"/>
      <point x="186" y="250"/>
      <point x="125" y="188"/>
      <point x="125" y="113" type="curve" smooth="yes"/>
      <point x="125" y="37"/>
      <point x="186" y="-25"/>
      <point x="262" y="-25" type="curve" smooth="yes"/>
      <point x="338" y="-25"/>
      <point x="401" y="37"/>
    </contour>
  </outline>
</glyph>
<glyph name="Solidus" format="1">
  <advance width="1004"/>
  <unicode hex="002F"/>
  <outline>
    <contour>
      <point x="1004" y="1374" type="line" name="hr00"/>
      <point x="872" y="1374" type="line"/>
      <point x="0" y="-190" type="line"/>
      <point x="131" y="-190" type="line"/>
    </contour>
  </outline>
</glyph>
<glyph name="DigitOne" format="1">
  <advance width="1153"/>
  <unicode hex="0031"/>
  <outline>
    <contour>
      <point x="913" y="0" type="line" name="hr00"/>
      <point x="913" y="92" type="line"/>
      <point x="721" y="100" type="line" smooth="yes"/>
      <point x="696" y="100"/>
      <point x="676" y="121"/>
      <point x="676" y="145" type="curve" smooth="yes"/>
      <point x="676" y="1407" type="line"/>
      <point x="598" y="1407" type="line"/>
      <point x="156" y="1270" type="line"/>
      <point x="156" y="1178" type="line"/>
      <point x="473" y="1233" type="line"/>
      <point x="473" y="145" type="line" smooth="yes"/>
      <point x="473" y="121"/>
      <point x="453" y="100"/>
      <point x="428" y="100" type="curve" smooth="yes"/>
      <point x="221" y="92" type="line"/>
      <point x="221" y="0" type="line"/>
    </contour>
    <contour>
      <point x="576" y="1500" type="move" name="U"/>
    </contour>
    <contour>
      <point x="576" y="-100" type="move" name="L"/>
    </contour>
  </outline>
</glyph>
<glyph name="DigitTwo" format="1">
  <advance width="1153"/>
  <unicode hex="0032"/>
  <outline>
    <contour>
      <point x="1057" y="0" type="line" name="hr01"/>
      <point x="1057" y="348" type="line"/>
      <point x="956" y="348" type="line"/>
      <point x="920" y="172" type="line"/>
      <point x="313" y="172" type="line"/>
      <point x="682" y="463"/>
      <point x="1032" y="719"/>
      <point x="1032" y="1008" type="curve" smooth="yes" name="hr02"/>
      <point x="1032" y="1245"/>
      <point x="842" y="1407"/>
      <point x="575" y="1407" type="curve" smooth="yes"/>
      <point x="336" y="1407"/>
      <point x="125" y="1274"/>
      <point x="125" y="1102" type="curve" smooth="yes"/>
      <point x="125" y="1020"/>
      <point x="184" y="981"/>
      <point x="248" y="981" type="curve" smooth="yes"/>
      <point x="311" y="981"/>
      <point x="348" y="1016"/>
      <point x="348" y="1016" type="curve"/>
      <point x="348" y="1243" type="line"/>
      <point x="358" y="1245"/>
      <point x="422" y="1296"/>
      <point x="518" y="1296" type="curve" smooth="yes"/>
      <point x="678" y="1296"/>
      <point x="811" y="1184"/>
      <point x="811" y="987" type="curve" smooth="yes"/>
      <point x="811" y="700"/>
      <point x="512" y="481"/>
      <point x="96" y="137" type="curve"/>
      <point x="96" y="0" type="line"/>
    </contour>
    <contour>
      <point x="576" y="1500" type="move" name="U"/>
    </contour>
    <contour>
      <point x="576" y="-100" type="move" name="L"/>
    </contour>
  </outline>
</glyph>
<glyph name="DigitSix" format="1">
  <advance width="1153"/>
  <unicode hex="0036"/>
  <outline>
    <contour>
      <point x="1071" y="469" type="curve" smooth="yes" name="hr00"/>
      <point x="1071" y="713"/>
      <point x="903" y="895"/>
      <point x="645" y="895" type="curve" smooth="yes"/>
      <point x="530" y="895"/>
      <point x="416" y="864"/>
      <point x="303" y="766" type="curve"/>
      <point x="346" y="1092"/>
      <point x="571" y="1290"/>
      <point x="831" y="1282" type="curve" smooth="yes"/>
      <point x="901" y="1280" type="line"/>
      <point x="901" y="1407" type="line"/>
      <point x="381" y="1407"/>
      <point x="82" y="1077"/>
      <point x="82" y="588" type="curve" smooth="yes"/>
      <point x="82" y="139"/>
      <point x="297" y="-33"/>
      <point x="573" y="-33" type="curve" smooth="yes"/>
      <point x="850" y="-33"/>
      <point x="1071" y="170"/>
    </contour>
    <contour>
      <point x="862" y="442" type="curve" smooth="yes"/>
      <point x="862" y="238"/>
      <point x="770" y="74"/>
      <point x="573" y="74" type="curve" smooth="yes"/>
      <point x="377" y="74"/>
      <point x="293" y="268"/>
      <point x="293" y="547" type="curve" smooth="yes"/>
      <point x="293" y="578"/>
      <point x="293" y="616"/>
      <point x="297" y="659" type="curve"/>
      <point x="377" y="721"/>
      <point x="485" y="762"/>
      <point x="573" y="762" type="curve" smooth="yes"/>
      <point x="754" y="762"/>
      <point x="862" y="643"/>
    </contour>
    <contour>
      <point x="576" y="1500" type="move" name="U"/>
    </contour>
    <contour>
      <point x="576" y="-100" type="move" name="L"/>
    </contour>
  </outline>
</glyph>
<glyph name="DigitSeven" format="1">
  <advance width="1153"/>
  <unicode hex="0037"/>
  <outline>
    <contour>
      <point x="1067" y="1260" type="line" name="hr00"/>
      <point x="1067" y="1374" type="line"/>
      <point x="86" y="1374" type="line"/>
      <point x="86" y="1014" type="line"/>
      <point x="190" y="1014" type="line"/>
      <point x="223" y="1200" type="line"/>
      <point x="854" y="1200" type="line"/>
      <point x="178" y="-33" type="line"/>
      <point x="395" y="-33" type="line"/>
      <point x="395" y="35" type="line"/>
    </contour>
    <contour>
      <point x="576" y="1500" type="move" name="U"/>
    </contour>
    <contour>
      <point x="576" y="-100" type="move" name="L"/>
    </contour>
  </outline>
</glyph>
<glyph name="Colon" format="1">
  <advance width="573"/>
  <unicode hex="003A"/>
  <outline>
    <contour>
      <point x="401" y="874" type="curve" smooth="yes" name="hr00"/>
      <point x="401" y="950"/>
      <point x="338" y="1012"/>
      <point x="262" y="1012" type="curve" smooth="yes"/>
      <point x="186" y="1012"/>
      <point x="125" y="950"/>
      <point x="125" y="874" type="curve" smooth="yes"/>
      <point x="125" y="799"/>
      <point x="186" y="737"/>
      <point x="262" y="737" type="curve" smooth="yes"/>
      <point x="338" y="737"/>
      <point x="401" y="799"/>
    </contour>
    <contour>
      <point x="401" y="113" type="curve" smooth="yes"/>
      <point x="401" y="188"/>
      <point x="338" y="250"/>
      <point x="262" y="250" type="curve" smooth="yes"/>
      <point x="186" y="250"/>
      <point x="125" y="188"/>
      <point x="125" y="113" type="curve" smooth="yes"/>
      <point x="125" y="37"/>
      <point x="186" y="-25"/>
      <point x="262" y="-25" type="curve" smooth="yes"/>
      <point x="338" y="-25"/>
      <point x="401" y="37"/>
    </contour>
  </outline>
</glyph>
<glyph name="EqSgn" format="1">
  <advance width="2048"/>
  <unicode hex="003D"/>
  <outline>
    <contour>
      <point x="1638" y="737" type="line" name="hr00"/>
      <point x="1638" y="864" type="line"/>
      <point x="410" y="864" type="line"/>
      <point x="410" y="737" type="line"/>
    </contour>
    <contour>
      <point x="1638" y="365" type="line"/>
      <point x="1638" y="492" type="line"/>
      <point x="410" y="492" type="line"/>
      <point x="410" y="365" type="line"/>
    </contour>
  </outline>
</glyph>
<glyph name="LftSqrBrac" format="1">
  <advance width="866"/>
  <unicode hex="005B"/>
  <outline>
    <contour>
      <point x="776" y="-270" type="line" name="hr00"/>
      <point x="776" y="-176" type="line"/>
      <point x="457" y="-176" type="line"/>
      <point x="457" y="1358" type="line"/>
      <point x="776" y="1358" type="line"/>
      <point x="776" y="1450" type="line"/>
      <point x="279" y="1450" type="line"/>
      <point x="279" y="-270" type="line"/>
    </contour>
  </outline>
</glyph>
<glyph name="ReverseSolidus" format="1">
  <advance width="1001"/>
  <unicode hex="005C"/>
  <outline>
    <contour>
      <point x="1001" y="-190" type="line" name="hr00"/>
      <point x="131" y="1374" type="line"/>
      <point x="0" y="1374" type="line"/>
      <point x="870" y="-190" type="line"/>
    </contour>
  </outline>
</glyph>
<glyph name="RtSqrBrac" format="1">
  <advance width="866"/>
  <unicode hex="005D"/>
  <outline>
    <contour>
      <point x="590" y="-270" type="line" name="hr00"/>
      <point x="590" y="1450" type="line"/>
      <point x="90" y="1450" type="line"/>
      <point x="90" y="1358" type="line"/>
      <point x="412" y="1358" type="line"/>
      <point x="412" y="-176" type="line"/>
      <point x="90" y="-176" type="line"/>
      <point x="90" y="-270" type="line"/>
    </contour>
  </outline>
</glyph>
<glyph name="LtnSmD" format="1">
  <advance width="1155"/>
  <unicode hex="0064"/>
  <outline>
    <contour>
      <point x="1102" y="0" type="line" name="hr01"/>
      <point x="1102" y="80" type="line"/>
      <point x="1014" y="86" type="line" smooth="yes"/>
      <point x="989" y="88"/>
      <point x="971" y="106"/>
      <point x="971" y="131" type="curve" smooth="yes"/>
      <point x="971" y="1509" type="line"/>
      <point x="889" y="1509" type="line"/>
      <point x="625" y="1430" type="line" name="hr02"/>
      <point x="625" y="1362" type="line" name="hr03"/>
      <point x="780" y="1362" type="line"/>
      <point x="780" y="987" type="line"/>
      <point x="748" y="995"/>
      <point x="657" y="1012"/>
      <point x="592" y="1012" type="curve" smooth="yes" name="hr04"/>
      <point x="240" y="1012"/>
      <point x="70" y="745"/>
      <point x="70" y="467" type="curve" smooth="yes"/>
      <point x="70" y="236"/>
      <point x="188" y="-25"/>
      <point x="463" y="-25" type="curve" smooth="yes"/>
      <point x="582" y="-25"/>
      <point x="686" y="37"/>
      <point x="780" y="109" type="curve"/>
      <point x="780" y="0" type="line" name="hr05"/>
    </contour>
    <contour>
      <point x="780" y="186" type="line" name="hr06"/>
      <point x="727" y="154"/>
      <point x="651" y="115"/>
      <point x="569" y="115" type="curve" smooth="yes"/>
      <point x="381" y="115"/>
      <point x="272" y="279"/>
      <point x="272" y="502" type="curve" smooth="yes"/>
      <point x="272" y="750"/>
      <point x="403" y="913"/>
      <point x="606" y="913" type="curve" smooth="yes"/>
      <point x="666" y="913"/>
      <point x="745" y="895"/>
      <point x="780" y="883" type="curve"/>
    </contour>
    <contour>
      <point x="586" y="1540" type="move" name="U"/>
    </contour>
    <contour>
      <point x="586" y="-100" type="move" name="L"/>
    </contour>
    <contour>
      <point x="1101" y="1000" type="move" name="R"/>
    </contour>
    <contour>
      <point x="586" y="0" type="move" name="H"/>
    </contour>
  </outline>
</glyph>
<glyph name="LtnSmJ" format="1">
  <advance width="598"/>
  <unicode hex="006A"/>
  <outline>
    <contour>
      <point x="436" y="1325" type="curve" smooth="yes" name="hr01"/>
      <point x="436" y="1395"/>
      <point x="381" y="1450"/>
      <point x="311" y="1450" type="curve" smooth="yes"/>
      <point x="242" y="1450"/>
      <point x="184" y="1395"/>
      <point x="184" y="1325" type="curve" smooth="yes"/>
      <point x="184" y="1255"/>
      <point x="242" y="1198"/>
      <point x="311" y="1198" type="curve" smooth="yes"/>
      <point x="381" y="1198"/>
      <point x="436" y="1255"/>
    </contour>
    <contour>
      <point x="414" y="131" type="curve" name="hr02"/>
      <point x="414" y="1012" type="line"/>
      <point x="330" y="1012" type="line"/>
      <point x="78" y="934" type="line" name="hr03"/>
      <point x="78" y="866" type="line" name="hr04"/>
      <point x="223" y="866" type="line"/>
      <point x="223" y="-43" type="line" smooth="yes"/>
      <point x="223" y="-201"/>
      <point x="201" y="-332"/>
      <point x="125" y="-375" type="curve"/>
      <point x="-74" y="-238" type="line"/>
      <point x="-115" y="-252"/>
      <point x="-162" y="-287"/>
      <point x="-162" y="-356" type="curve" smooth="yes"/>
      <point x="-162" y="-434"/>
      <point x="-90" y="-469"/>
      <point x="-6" y="-469" type="curve" smooth="yes"/>
      <point x="123" y="-469"/>
      <point x="250" y="-408"/>
      <point x="334" y="-279" type="curve" smooth="yes"/>
      <point x="403" y="-170"/>
      <point x="414" y="8"/>
    </contour>
    <contour>
      <point x="328" y="1100" type="move" name="U"/>
    </contour>
    <contour>
      <point x="137" y="-500" type="move" name="L"/>
    </contour>
  </outline>
</glyph>
<glyph name="LtnSmQ" format="1">
  <advance width="1124"/>
  <unicode hex="0071"/>
  <outline>
    <contour>
      <point x="1094" y="-446" type="line" name="hr00"/>
      <point x="1094" y="-369" type="line"/>
      <point x="995" y="-358" type="line"/>
      <point x="971" y="-354"/>
      <point x="952" y="-340"/>
      <point x="952" y="-315" type="curve" smooth="yes"/>
      <point x="952" y="979" type="line"/>
      <point x="866" y="999"/>
      <point x="737" y="1012"/>
      <point x="662" y="1012" type="curve" smooth="yes"/>
      <point x="289" y="1012"/>
      <point x="70" y="803"/>
      <point x="70" y="469" type="curve" smooth="yes"/>
      <point x="70" y="197"/>
      <point x="223" y="-25"/>
      <point x="475" y="-25" type="curve" smooth="yes"/>
      <point x="567" y="-25"/>
      <point x="686" y="18"/>
      <point x="762" y="55" type="curve"/>
      <point x="762" y="-315" type="line" smooth="yes"/>
      <point x="762" y="-340"/>
      <point x="743" y="-356"/>
      <point x="719" y="-358" type="curve" smooth="yes"/>
      <point x="598" y="-369" type="line"/>
      <point x="598" y="-446" type="line"/>
    </contour>
    <contour>
      <point x="762" y="125" type="line"/>
      <point x="717" y="111"/>
      <point x="637" y="96"/>
      <point x="586" y="96" type="curve" smooth="yes"/>
      <point x="365" y="96"/>
      <point x="276" y="291"/>
      <point x="276" y="502" type="curve" smooth="yes"/>
      <point x="276" y="752"/>
      <point x="397" y="918"/>
      <point x="621" y="918" type="curve" smooth="yes"/>
      <point x="676" y="918"/>
      <point x="725" y="903"/>
      <point x="762" y="895" type="curve"/>
    </contour>
    <contour>
      <point x="582" y="1100" type="move" name="U"/>
    </contour>
    <contour>
      <point x="582" y="-500" type="move" name="L"/>
    </contour>
    <contour>
      <point x="1124" y="1000" type="move" name="R"/>
    </contour>
  </outline>
</glyph>
<glyph name="LtnSmV" format="1">
  <advance width="1083"/>
  <unicode hex="0076"/>
  <outline>
    <contour>
      <point x="1063" y="907" type="line" name="hr01"/>
      <point x="1063" y="987" type="line" name="hr02"/>
      <point x="705" y="987" type="line"/>
      <point x="705" y="907" type="line"/>
      <point x="797" y="901" type="line" smooth="yes" name="hr03"/>
      <point x="819" y="899"/>
      <point x="834" y="877"/>
      <point x="825" y="856" type="curve" smooth="yes"/>
      <point x="573" y="215" type="line"/>
      <point x="344" y="856" type="line" smooth="yes"/>
      <point x="336" y="879"/>
      <point x="352" y="899"/>
      <point x="375" y="901" type="curve" smooth="yes"/>
      <point x="473" y="907" type="line" name="hr04"/>
      <point x="473" y="987" type="line"/>
      <point x="20" y="987" type="line"/>
      <point x="20" y="907" type="line" name="hr05"/>
      <point x="133" y="895" type="line"/>
      <point x="463" y="0" type="line"/>
      <point x="596" y="0" type="line"/>
      <point x="954" y="895" type="line"/>
    </contour>
    <contour>
      <point x="541" y="1100" type="move" name="U"/>
    </contour>
    <contour>
      <point x="541" y="-100" type="move" name="L"/>
    </contour>
    <contour>
      <point x="665" y="0" type="move" name="O"/>
    </contour>
    <contour>
      <point x="530" y="0" type="move" name="H"/>
    </contour>
  </outline>
</glyph>
<glyph name="LtnSmW" format="1">
  <advance width="1604"/>
  <unicode hex="0077"/>
  <outline>
    <contour>
      <point x="1583" y="907" type="line" name="hr01"/>
      <point x="1583" y="987" type="line" name="hr02"/>
      <point x="1225" y="987" type="line"/>
      <point x="1225" y="907" type="line"/>
      <point x="1319" y="901" type="line" smooth="yes" name="hr03"/>
      <point x="1341" y="899"/>
      <point x="1354" y="877"/>
      <point x="1348" y="856" type="curve" smooth="yes"/>
      <point x="1159" y="219" type="line"/>
      <point x="922" y="987" type="line" name="hr04"/>
      <point x="776" y="987" type="line"/>
      <point x="512" y="219" type="line"/>
      <point x="342" y="856" type="line" smooth="yes" name="hr05"/>
      <point x="336" y="879"/>
      <point x="350" y="899"/>
      <point x="373" y="901" type="curve" smooth="yes"/>
      <point x="469" y="907" type="line" name="hr06"/>
      <point x="469" y="987" type="line"/>
      <point x="20" y="987" type="line"/>
      <point x="20" y="907" type="line" name="hr07"/>
      <point x="133" y="895" type="line"/>
      <point x="395" y="0" type="line"/>
      <point x="541" y="0" type="line"/>
      <point x="811" y="766" type="line"/>
      <point x="1053" y="0" type="line"/>
      <point x="1198" y="0" type="line"/>
      <point x="1479" y="895" type="line"/>
    </contour>
    <contour>
      <point x="830" y="1100" type="move" name="U"/>
    </contour>
    <contour>
      <point x="801" y="-100" type="move" name="L"/>
    </contour>
  </outline>
</glyph>
<glyph name="VertLine" format="1">
  <advance width="724"/>
  <unicode hex="007C"/>
  <outline>
    <contour>
      <point x="424" y="-528" type="line" name="hr00"/>
      <point x="424" y="1630" type="line"/>
      <point x="300" y="1630" type="line"/>
      <point x="300" y="-528" type="line"/>
    </contour>
  </outline>
</glyph>
<glyph name="CentSgn" format="1">
  <advance width="1153"/>
  <unicode hex="00A2"/>
  <outline>
    <contour>
      <point x="997" y="47" type="curve" name="hr01"/>
      <point x="997" y="356" type="line"/>
      <point x="897" y="356" type="line"/>
      <point x="870" y="160" type="line" name="hr02"/>
      <point x="866" y="150"/>
      <point x="858" y="133"/>
      <point x="846" y="127" type="curve"/>
      <point x="846" y="127"/>
      <point x="788" y="100"/>
      <point x="702" y="98" type="curve"/>
      <point x="702" y="936" type="line"/>
      <point x="786" y="934"/>
      <point x="817" y="922"/>
      <point x="846" y="905" type="curve"/>
      <point x="862" y="899"/>
      <point x="866" y="879"/>
      <point x="870" y="862" type="curve"/>
      <point x="899" y="684" type="line"/>
      <point x="997" y="684" type="line"/>
      <point x="997" y="985" type="line" name="hr03"/>
      <point x="891" y="1020"/>
      <point x="805" y="1036"/>
      <point x="702" y="1036" type="curve" name="hr04"/>
      <point x="702" y="1237" type="line"/>
      <point x="604" y="1237" type="line"/>
      <point x="604" y="1028" type="line"/>
      <point x="336" y="991"/>
      <point x="156" y="788"/>
      <point x="156" y="516" type="curve" smooth="yes"/>
      <point x="156" y="238"/>
      <point x="326" y="35"/>
      <point x="604" y="4" type="curve"/>
      <point x="604" y="-203" type="line"/>
      <point x="702" y="-203" type="line"/>
      <point x="702" y="0" type="line"/>
      <point x="895" y="0"/>
      <point x="991" y="41"/>
    </contour>
    <contour>
      <point x="604" y="104" type="line"/>
      <point x="467" y="137"/>
      <point x="352" y="279"/>
      <point x="352" y="522" type="curve" smooth="yes"/>
      <point x="352" y="780"/>
      <point x="498" y="905"/>
      <point x="604" y="930" type="curve"/>
    </contour>
  </outline>
</glyph>
<glyph name="SupTwo" format="1">
  <advance width="750"/>
  <unicode hex="00B2"/>
  <outline>
    <contour>
      <point x="686" y="784" type="line" name="hr01"/>
      <point x="686" y="993" type="line" name="hr02"/>
      <point x="621" y="993" type="line"/>
      <point x="598" y="889" type="line" name="hr03"/>
      <point x="203" y="889" type="line"/>
      <point x="442" y="1063"/>
      <point x="670" y="1214"/>
      <point x="670" y="1389" type="curve" smooth="yes"/>
      <point x="670" y="1532"/>
      <point x="545" y="1622"/>
      <point x="373" y="1622" type="curve" smooth="yes"/>
      <point x="217" y="1622"/>
      <point x="80" y="1550"/>
      <point x="80" y="1446" type="curve" smooth="yes"/>
      <point x="80" y="1397"/>
      <point x="119" y="1372"/>
      <point x="160" y="1372" type="curve" smooth="yes"/>
      <point x="201" y="1372"/>
      <point x="225" y="1395"/>
      <point x="225" y="1395" type="curve"/>
      <point x="225" y="1530" type="line"/>
      <point x="231" y="1532"/>
      <point x="274" y="1556"/>
      <point x="336" y="1556" type="curve" smooth="yes"/>
      <point x="438" y="1556"/>
      <point x="526" y="1495"/>
      <point x="526" y="1376" type="curve" smooth="yes"/>
      <point x="526" y="1204"/>
      <point x="334" y="1073"/>
      <point x="63" y="866" type="curve"/>
      <point x="63" y="784" type="line"/>
    </contour>
    <contour>
      <point x="374" y="1650" type="move" name="U"/>
    </contour>
    <contour>
      <point x="374" y="725" type="move" name="L"/>
    </contour>
  </outline>
</glyph>
<glyph name="RtPtngDblAngQuotMrk" format="1">
  <advance width="905"/>
  <unicode hex="00BB"/>
  <outline>
    <contour>
      <point x="520" y="987" type="line" name="hr00"/>
      <point x="420" y="987" type="line"/>
      <point x="675" y="494" type="line"/>
      <point x="420" y="0" type="line"/>
      <point x="520" y="0" type="line"/>
      <point x="850" y="443" type="line"/>
      <point x="850" y="546" type="line"/>
    </contour>
    <contour>
      <point x="140" y="987" type="line"/>
      <point x="40" y="987" type="line"/>
      <point x="295" y="494" type="line"/>
      <point x="40" y="0" type="line"/>
      <point x="140" y="0" type="line"/>
      <point x="470" y="443" type="line"/>
      <point x="470" y="546" type="line"/>
    </contour>
  </outline>
</glyph>
<glyph name="LtnCapAe" format="1">
  <advance width="1911"/>
  <unicode hex="00C6"/>
  <outline>
    <contour>
      <point x="1845" y="0" type="line" name="hr01"/>
      <point x="1845" y="342" type="line"/>
      <point x="1729" y="342" type="line"/>
      <point x="1698" y="139" type="line" smooth="yes"/>
      <point x="1696" y="125"/>
      <point x="1677" y="100"/>
      <point x="1661" y="100" type="curve" smooth="yes"/>
      <point x="1192" y="100" type="line"/>
      <point x="1192" y="664" type="line"/>
      <point x="1450" y="664" type="line" smooth="yes"/>
      <point x="1466" y="664"/>
      <point x="1485" y="643"/>
      <point x="1487" y="629" type="curve" smooth="yes"/>
      <point x="1505" y="485" type="line"/>
      <point x="1606" y="485" type="line"/>
      <point x="1606" y="942" type="line"/>
      <point x="1505" y="942" type="line"/>
      <point x="1487" y="801" type="line" smooth="yes"/>
      <point x="1485" y="786"/>
      <point x="1468" y="764"/>
      <point x="1450" y="764" type="curve" smooth="yes"/>
      <point x="1192" y="766" type="line"/>
      <point x="1192" y="1276" type="line"/>
      <point x="1589" y="1276" type="line" smooth="yes" name="hr02"/>
      <point x="1608" y="1276"/>
      <point x="1620" y="1257"/>
      <point x="1624" y="1237" type="curve" smooth="yes"/>
      <point x="1653" y="1069" type="line"/>
      <point x="1772" y="1069" type="line"/>
      <point x="1772" y="1374" type="line"/>
      <point x="686" y="1374" type="line"/>
      <point x="686" y="1288" type="line" name="hr03"/>
      <point x="786" y="1278" type="line" smooth="yes"/>
      <point x="805" y="1276"/>
      <point x="827" y="1255"/>
      <point x="815" y="1235" type="curve" smooth="yes"/>
      <point x="119" y="104" type="line"/>
      <point x="10" y="88" type="line"/>
      <point x="10" y="0" type="line"/>
      <point x="414" y="0" type="line"/>
      <point x="414" y="88" type="line" name="hr04"/>
      <point x="297" y="98" type="line" smooth="yes"/>
      <point x="279" y="100"/>
      <point x="268" y="119"/>
      <point x="283" y="141" type="curve" smooth="yes"/>
      <point x="512" y="512" type="line"/>
      <point x="985" y="512" type="line"/>
      <point x="985" y="141" type="line" smooth="yes"/>
      <point x="985" y="123"/>
      <point x="961" y="98"/>
      <point x="932" y="96" type="curve" smooth="yes"/>
      <point x="831" y="88" type="line"/>
      <point x="831" y="0" type="line" name="hr05"/>
    </contour>
    <contour>
      <point x="985" y="612" type="line"/>
      <point x="569" y="612" type="line"/>
      <point x="985" y="1280" type="line"/>
    </contour>
    <contour>
      <point x="1100" y="1500" type="move" name="U"/>
    </contour>
    <contour>
      <point x="1100" y="-100" type="move" name="L"/>
    </contour>
  </outline>
</glyph>
<glyph name="LtnSmEth" format="1">
  <advance width="1104"/>
  <unicode hex="00F0"/>
  <outline>
    <contour>
      <point x="1034" y="555" type="curve" smooth="yes" name="hr00"/>
      <point x="1034" y="895"/>
      <point x="764" y="1200"/>
      <point x="692" y="1282" type="curve"/>
      <point x="901" y="1409" type="line"/>
      <point x="854" y="1491" type="line"/>
      <point x="631" y="1358" type="line"/>
      <point x="483" y="1509" type="line"/>
      <point x="231" y="1434" type="line"/>
      <point x="231" y="1376" type="line"/>
      <point x="403" y="1354" type="line"/>
      <point x="475" y="1272" type="line"/>
      <point x="240" y="1130" type="line"/>
      <point x="285" y="1049" type="line"/>
      <point x="545" y="1204" type="line"/>
      <point x="551" y="1198"/>
      <point x="662" y="1055"/>
      <point x="702" y="983" type="curve"/>
      <point x="700" y="983"/>
      <point x="623" y="1012"/>
      <point x="565" y="1012" type="curve" smooth="yes"/>
      <point x="283" y="1012"/>
      <point x="70" y="803"/>
      <point x="70" y="500" type="curve" smooth="yes"/>
      <point x="70" y="195"/>
      <point x="262" y="-25"/>
      <point x="553" y="-25" type="curve" smooth="yes"/>
      <point x="834" y="-25"/>
      <point x="1034" y="203"/>
    </contour>
    <contour>
      <point x="836" y="514" type="curve" smooth="yes"/>
      <point x="836" y="297"/>
      <point x="760" y="68"/>
      <point x="559" y="68" type="curve" smooth="yes"/>
      <point x="360" y="68"/>
      <point x="283" y="281"/>
      <point x="283" y="498" type="curve" smooth="yes"/>
      <point x="283" y="735"/>
      <point x="383" y="922"/>
      <point x="600" y="922" type="curve" smooth="yes"/>
      <point x="664" y="922"/>
      <point x="756" y="881"/>
      <point x="756" y="881" type="curve"/>
      <point x="807" y="797"/>
      <point x="836" y="678"/>
    </contour>
    <contour>
      <point x="552" y="1540" type="move" name="U"/>
    </contour>
    <contour>
      <point x="552" y="-100" type="move" name="L"/>
    </contour>
  </outline>
</glyph>
<glyph name="LtnSmThorn" format="1">
  <advance width="1145"/>
  <unicode hex="00FE"/>
  <outline>
    <contour>
      <point x="1075" y="508" type="curve" smooth="yes" name="hr01"/>
      <point x="1075" y="813"/>
      <point x="895" y="1012"/>
      <point x="684" y="1012" type="curve" smooth="yes"/>
      <point x="524" y="1012"/>
      <point x="375" y="885"/>
      <point x="375" y="885" type="curve"/>
      <point x="375" y="1509" type="line"/>
      <point x="295" y="1509" type="line"/>
      <point x="43" y="1432" type="line" name="hr02"/>
      <point x="43" y="1364" type="line" name="hr03"/>
      <point x="184" y="1364" type="line"/>
      <point x="184" y="-311" type="line" smooth="yes"/>
      <point x="184" y="-336"/>
      <point x="166" y="-352"/>
      <point x="141" y="-354" type="curve" smooth="yes"/>
      <point x="43" y="-367" type="line"/>
      <point x="43" y="-446" type="line"/>
      <point x="541" y="-446" type="line"/>
      <point x="541" y="-367" type="line"/>
      <point x="420" y="-354" type="line" smooth="yes"/>
      <point x="395" y="-352"/>
      <point x="375" y="-336"/>
      <point x="375" y="-311" type="curve" smooth="yes"/>
      <point x="375" y="-6" type="line"/>
      <point x="375" y="-6"/>
      <point x="483" y="-25"/>
      <point x="557" y="-25" type="curve" smooth="yes"/>
      <point x="881" y="-25"/>
      <point x="1075" y="186"/>
    </contour>
    <contour>
      <point x="870" y="479" type="curve" smooth="yes"/>
      <point x="870" y="266"/>
      <point x="766" y="70"/>
      <point x="541" y="70" type="curve" smooth="yes"/>
      <point x="457" y="70"/>
      <point x="375" y="102"/>
      <point x="375" y="102" type="curve"/>
      <point x="375" y="807" type="line"/>
      <point x="375" y="807"/>
      <point x="481" y="868"/>
      <point x="584" y="868" type="curve" smooth="yes"/>
      <point x="772" y="868"/>
      <point x="870" y="690"/>
    </contour>
    <contour>
      <point x="559" y="1540" type="move" name="U"/>
    </contour>
    <contour>
      <point x="559" y="-500" type="move" name="L"/>
    </contour>
  </outline>
</glyph>
<glyph name="LtnSmDotlessI" format="1">
  <advance width="621"/>
  <unicode hex="0131"/>
  <outline>
    <contour>
      <point x="551" y="0" type="line" name="hr01"/>
      <point x="551" y="80" type="line"/>
      <point x="446" y="86" type="line" smooth="yes"/>
      <point x="422" y="88"/>
      <point x="403" y="106"/>
      <point x="403" y="131" type="curve" smooth="yes"/>
      <point x="403" y="1012" type="line"/>
      <point x="322" y="1012" type="line"/>
      <point x="72" y="934" type="line" name="hr02"/>
      <point x="72" y="862" type="line" name="hr03"/>
      <point x="213" y="862" type="line"/>
      <point x="213" y="131" type="line" smooth="yes"/>
      <point x="213" y="106"/>
      <point x="195" y="88"/>
      <point x="170" y="86" type="curve" smooth="yes"/>
      <point x="70" y="80" type="line"/>
      <point x="70" y="0" type="line"/>
    </contour>
    <contour>
      <point x="310" y="1100" type="move" name="U"/>
    </contour>
    <contour>
      <point x="310" y="-100" type="move" name="L"/>
    </contour>
    <contour>
      <point x="621" y="1000" type="move" name="R"/>
    </contour>
    <contour>
      <point x="467" y="0" type="move" name="O"/>
    </contour>
    <contour>
      <point x="310" y="0" type="move" name="H"/>
    </contour>
  </outline>
</glyph>
<glyph name="LtnSmLCaron" format="1">
  <advance width="835"/>
  <unicode hex="013E"/>
  <outline>
    <contour>
      <point x="553" y="0" type="line" name="hr01"/>
      <point x="553" y="80" type="line"/>
      <point x="442" y="86" type="line" smooth="yes"/>
      <point x="424" y="86"/>
      <point x="399" y="111"/>
      <point x="399" y="129" type="curve" smooth="yes"/>
      <point x="399" y="1509" type="line"/>
      <point x="315" y="1509" type="line"/>
      <point x="53" y="1430" type="line" name="hr02"/>
      <point x="53" y="1362" type="line" name="hr03"/>
      <point x="209" y="1362" type="line"/>
      <point x="209" y="129" type="line" smooth="yes"/>
      <point x="209" y="111"/>
      <point x="182" y="86"/>
      <point x="164" y="86" type="curve" smooth="yes"/>
      <point x="55" y="80" type="line"/>
      <point x="55" y="0" type="line"/>
    </contour>
    <contour>
      <point x="765" y="1374" type="curve" smooth="yes"/>
      <point x="765" y="1481"/>
      <point x="706" y="1540"/>
      <point x="620" y="1540" type="curve" smooth="yes" name="hr04"/>
      <point x="560" y="1540"/>
      <point x="507" y="1503"/>
      <point x="507" y="1444" type="curve" smooth="yes"/>
      <point x="507" y="1401"/>
      <point x="532" y="1374"/>
      <point x="538" y="1370" type="curve" name="hr05"/>
      <point x="659" y="1370" type="line"/>
      <point x="659" y="1252"/>
      <point x="620" y="1213"/>
      <point x="511" y="1178" type="curve"/>
      <point x="511" y="1118" type="line"/>
      <point x="657" y="1145"/>
      <point x="765" y="1233"/>
    </contour>
    <contour>
      <point x="319" y="0" type="move" name="H"/>
    </contour>
    <contour>
      <point x="318" y="1580" type="move" name="U"/>
    </contour>
    <contour>
      <point x="318" y="-100" type="move" name="L"/>
    </contour>
  </outline>
</glyph>
<glyph name="LtnCapLStrk" format="1">
  <advance width="1087"/>
  <unicode hex="0141"/>
  <outline>
    <contour>
      <point x="1051" y="0" type="line" name="hr01"/>
      <point x="1051" y="381" type="line"/>
      <point x="934" y="381" type="line"/>
      <point x="899" y="143" type="line" smooth="yes"/>
      <point x="895" y="123"/>
      <point x="877" y="100"/>
      <point x="846" y="100" type="curve" smooth="yes"/>
      <point x="424" y="100" type="line"/>
      <point x="424" y="725" type="line"/>
      <point x="674" y="893" type="line"/>
      <point x="618" y="973" type="line"/>
      <point x="424" y="844" type="line"/>
      <point x="424" y="1233" type="line" smooth="yes"/>
      <point x="424" y="1253"/>
      <point x="440" y="1274"/>
      <point x="469" y="1276" type="curve" smooth="yes"/>
      <point x="590" y="1286" type="line"/>
      <point x="590" y="1374" type="line"/>
      <point x="53" y="1374" type="line"/>
      <point x="53" y="1286" type="line"/>
      <point x="174" y="1276" type="line" smooth="yes"/>
      <point x="205" y="1274"/>
      <point x="217" y="1253"/>
      <point x="217" y="1233" type="curve" smooth="yes"/>
      <point x="217" y="707" type="line"/>
      <point x="20" y="571" type="line"/>
      <point x="72" y="487" type="line"/>
      <point x="217" y="586" type="line"/>
      <point x="217" y="141" type="line" smooth="yes" name="hr02"/>
      <point x="217" y="119"/>
      <point x="203" y="98"/>
      <point x="174" y="96" type="curve" smooth="yes"/>
      <point x="53" y="88" type="line"/>
      <point x="53" y="0" type="line" name="hr03"/>
    </contour>
    <contour>
      <point x="535" y="1500" type="move" name="U"/>
    </contour>
    <contour>
      <point x="535" y="-100" type="move" name="L"/>
    </contour>
  </outline>
</glyph>
<glyph name="LtnSmLStrk" format="1">
  <advance width="608"/>
  <unicode hex="0142"/>
  <outline>
    <contour>
      <point x="629" y="903" type="line" name="hr01"/>
      <point x="573" y="987" type="line"/>
      <point x="397" y="868" type="line"/>
      <point x="397" y="1509" type="line"/>
      <point x="319" y="1509" type="line"/>
      <point x="51" y="1430" type="line" name="hr02"/>
      <point x="51" y="1362" type="line" name="hr03"/>
      <point x="209" y="1362" type="line"/>
      <point x="209" y="739" type="line"/>
      <point x="-18" y="582" type="line"/>
      <point x="33" y="498" type="line"/>
      <point x="209" y="621" type="line"/>
      <point x="209" y="131" type="line" smooth="yes"/>
      <point x="209" y="106"/>
      <point x="190" y="88"/>
      <point x="166" y="86" type="curve" smooth="yes"/>
      <point x="53" y="80" type="line"/>
      <point x="53" y="0" type="line"/>
      <point x="551" y="0" type="line"/>
      <point x="551" y="80" type="line"/>
      <point x="444" y="86" type="line" smooth="yes"/>
      <point x="420" y="88"/>
      <point x="397" y="106"/>
      <point x="397" y="131" type="curve" smooth="yes"/>
      <point x="397" y="750" type="line"/>
    </contour>
    <contour>
      <point x="305" y="1540" type="move" name="U"/>
    </contour>
    <contour>
      <point x="305" y="-100" type="move" name="L"/>
    </contour>
  </outline>
</glyph>
<glyph name="LtnSmLigOe" format="1">
  <advance width="1679"/>
  <unicode hex="0153"/>
  <outline>
    <contour>
      <point x="1610" y="592" type="curve" smooth="yes" name="hr01"/>
      <point x="1610" y="838"/>
      <point x="1487" y="1012"/>
      <point x="1249" y="1012" type="curve" smooth="yes"/>
      <point x="1110" y="1012"/>
      <point x="979" y="936"/>
      <point x="907" y="817" type="curve"/>
      <point x="856" y="911"/>
      <point x="729" y="1012"/>
      <point x="539" y="1012" type="curve" smooth="yes"/>
      <point x="242" y="1012"/>
      <point x="70" y="778"/>
      <point x="70" y="494" type="curve" smooth="yes"/>
      <point x="70" y="213"/>
      <point x="240" y="-25"/>
      <point x="535" y="-25" type="curve" smooth="yes"/>
      <point x="713" y="-25"/>
      <point x="819" y="78"/>
      <point x="895" y="178" type="curve"/>
      <point x="963" y="80"/>
      <point x="1073" y="-25"/>
      <point x="1257" y="-25" type="curve" smooth="yes"/>
      <point x="1405" y="-25"/>
      <point x="1522" y="41"/>
      <point x="1608" y="102" type="curve"/>
      <point x="1608" y="227" type="line"/>
      <point x="1536" y="174"/>
      <point x="1438" y="113"/>
      <point x="1325" y="113" type="curve" smooth="yes" name="hr02"/>
      <point x="1075" y="113"/>
      <point x="991" y="330"/>
      <point x="991" y="535" type="curve"/>
      <point x="1608" y="535" type="line"/>
      <point x="1610" y="553"/>
      <point x="1610" y="578"/>
    </contour>
    <contour>
      <point x="1403" y="627" type="line"/>
      <point x="1001" y="627" type="line"/>
      <point x="1016" y="786"/>
      <point x="1098" y="913"/>
      <point x="1229" y="913" type="curve" smooth="yes"/>
      <point x="1343" y="913"/>
      <point x="1403" y="805"/>
      <point x="1403" y="672" type="curve" smooth="yes"/>
    </contour>
    <contour>
      <point x="797" y="489" type="curve" smooth="yes"/>
      <point x="797" y="270"/>
      <point x="715" y="70"/>
      <point x="541" y="70" type="curve" smooth="yes"/>
      <point x="369" y="70"/>
      <point x="283" y="272"/>
      <point x="283" y="500" type="curve" smooth="yes"/>
      <point x="283" y="717"/>
      <point x="362" y="913"/>
      <point x="541" y="913" type="curve" smooth="yes"/>
      <point x="717" y="913"/>
      <point x="797" y="723"/>
    </contour>
    <contour>
      <point x="840" y="1100" type="move" name="U"/>
    </contour>
    <contour>
      <point x="840" y="-100" type="move" name="L"/>
    </contour>
    <contour>
      <point x="1679" y="1000" type="move" name="R"/>
    </contour>
    <contour>
      <point x="1498" y="0" type="move" name="O"/>
    </contour>
    <contour>
      <point x="881" y="0" type="move" name="H"/>
    </contour>
  </outline>
</glyph>
<glyph name="LtnSmBBarredStem" format="1">
  <advance width="1137"/>
  <unicode hex="0180"/>
  <outline>
    <contour>
      <point x="1067" y="539" type="curve" smooth="yes" name="hr01"/>
      <point x="1067" y="791"/>
      <point x="928" y="1010"/>
      <point x="659" y="1010" type="curve" smooth="yes"/>
      <point x="539" y="1010"/>
      <point x="422" y="956"/>
      <point x="375" y="934" type="curve"/>
      <point x="375" y="1104" type="line"/>
      <point x="623" y="1104" type="line"/>
      <point x="623" y="1208" type="line"/>
      <point x="375" y="1208" type="line"/>
      <point x="375" y="1509" type="line"/>
      <point x="295" y="1509" type="line"/>
      <point x="29" y="1430" type="line" name="hr02"/>
      <point x="29" y="1362" type="line" name="hr03"/>
      <point x="184" y="1362" type="line"/>
      <point x="184" y="1208" type="line"/>
      <point x="14" y="1208" type="line"/>
      <point x="14" y="1104" type="line"/>
      <point x="184" y="1104" type="line"/>
      <point x="184" y="0" type="line"/>
      <point x="479" y="0" type="line" smooth="yes"/>
      <point x="891" y="0"/>
      <point x="1067" y="231"/>
    </contour>
    <contour>
      <point x="858" y="498" type="curve" smooth="yes"/>
      <point x="858" y="199"/>
      <point x="717" y="96"/>
      <point x="475" y="96" type="curve" smooth="yes"/>
      <point x="436" y="96"/>
      <point x="375" y="98"/>
      <point x="375" y="98" type="curve"/>
      <point x="375" y="858" type="line"/>
      <point x="416" y="872"/>
      <point x="498" y="889"/>
      <point x="543" y="889" type="curve" smooth="yes"/>
      <point x="741" y="889"/>
      <point x="858" y="756"/>
    </contour>
    <contour>
      <point x="600" y="1540" type="move" name="U"/>
    </contour>
    <contour>
      <point x="600" y="-100" type="move" name="L"/>
    </contour>
  </outline>
</glyph>
<glyph name="LtnSmBTopbar" format="1">
  <advance width="1137"/>
  <unicode hex="0183"/>
  <outline>
    <contour>
      <point x="184" y="1509" type="line" name="hr01"/>
      <point x="184" y="0" type="line"/>
      <point x="479" y="0" type="line" smooth="yes"/>
      <point x="891" y="0"/>
      <point x="1067" y="233"/>
      <point x="1067" y="541" type="curve" smooth="yes"/>
      <point x="1067" y="793"/>
      <point x="926" y="1012"/>
      <point x="657" y="1012" type="curve" smooth="yes"/>
      <point x="537" y="1012"/>
      <point x="422" y="958"/>
      <point x="375" y="936" type="curve"/>
      <point x="375" y="1370" type="line"/>
      <point x="375" y="1386"/>
      <point x="389" y="1413"/>
      <point x="418" y="1413" type="curve" smooth="yes"/>
      <point x="781" y="1413" type="line" smooth="yes" name="hr02"/>
      <point x="799" y="1413"/>
      <point x="814" y="1395"/>
      <point x="816" y="1374" type="curve"/>
      <point x="842" y="1190" type="line"/>
      <point x="955" y="1190" type="line"/>
      <point x="955" y="1509" type="line"/>
    </contour>
    <contour>
      <point x="858" y="500" type="curve" smooth="yes" name="hr03"/>
      <point x="858" y="201"/>
      <point x="717" y="96"/>
      <point x="475" y="96" type="curve" smooth="yes"/>
      <point x="436" y="96"/>
      <point x="375" y="98"/>
      <point x="375" y="98" type="curve"/>
      <point x="375" y="858" type="line"/>
      <point x="416" y="872"/>
      <point x="500" y="891"/>
      <point x="545" y="891" type="curve" smooth="yes"/>
      <point x="743" y="891"/>
      <point x="858" y="758"/>
    </contour>
    <contour>
      <point x="625" y="1540" type="move" name="U"/>
    </contour>
    <contour>
      <point x="625" y="-100" type="move" name="L"/>
    </contour>
  </outline>
</glyph>
<glyph name="LtnCapAfricanD" format="1">
  <advance width="1425"/>
  <unicode hex="0189"/>
  <outline>
    <contour>
      <point x="29" y="668" type="line" name="hr00"/>
      <point x="750" y="668" type="line"/>
      <point x="750" y="772" type="line"/>
      <point x="29" y="772" type="line"/>
    </contour>
    <contour>
      <point x="690" y="1500" type="move" name="U"/>
    </contour>
    <contour>
      <point x="690" y="-100" type="move" name="L"/>
    </contour>
    <component base="LtnCapD"/>
  </outline>
</glyph>
<glyph name="LtnCapDTopbar" format="1">
  <advance width="1255"/>
  <unicode hex="018B"/>
  <outline>
    <contour>
      <point x="1189" y="88" type="line" name="hr01"/>
      <point x="1064" y="96" type="line" smooth="yes"/>
      <point x="1035" y="98"/>
      <point x="1021" y="123"/>
      <point x="1021" y="139" type="curve" smooth="yes"/>
      <point x="1021" y="1235" type="line" smooth="yes" name="hr02"/>
      <point x="1021" y="1251"/>
      <point x="1035" y="1274"/>
      <point x="1064" y="1278" type="curve"/>
      <point x="1172" y="1286" type="line"/>
      <point x="1172" y="1374" type="line" name="hr03"/>
      <point x="253" y="1374" type="line"/>
      <point x="253" y="1055" type="line"/>
      <point x="366" y="1055" type="line"/>
      <point x="392" y="1239" type="line" smooth="yes"/>
      <point x="395" y="1260"/>
      <point x="409" y="1278"/>
      <point x="427" y="1278" type="curve" smooth="yes"/>
      <point x="771" y="1278" type="line" smooth="yes"/>
      <point x="800" y="1278"/>
      <point x="814" y="1251"/>
      <point x="814" y="1235" type="curve" smooth="yes"/>
      <point x="814" y="748" type="line"/>
      <point x="814" y="748"/>
      <point x="715" y="758"/>
      <point x="665" y="758" type="curve" smooth="yes"/>
      <point x="354" y="758"/>
      <point x="80" y="639"/>
      <point x="80" y="378" type="curve" smooth="yes" name="hr04"/>
      <point x="80" y="78"/>
      <point x="302" y="0"/>
      <point x="699" y="0" type="curve" smooth="yes"/>
      <point x="1189" y="0" type="line"/>
    </contour>
    <contour>
      <point x="814" y="98" type="line"/>
      <point x="814" y="98"/>
      <point x="761" y="94"/>
      <point x="710" y="94" type="curve" smooth="yes"/>
      <point x="428" y="94"/>
      <point x="301" y="160"/>
      <point x="301" y="369" type="curve" smooth="yes"/>
      <point x="301" y="576"/>
      <point x="421" y="660"/>
      <point x="683" y="660" type="curve" smooth="yes"/>
      <point x="730" y="660"/>
      <point x="814" y="650"/>
      <point x="814" y="650" type="curve"/>
    </contour>
    <contour>
      <point x="634" y="1500" type="move" name="U"/>
    </contour>
    <contour>
      <point x="634" y="-100" type="move" name="L"/>
    </contour>
  </outline>
</glyph>
<glyph name="LtnSmDTopbar" format="1">
  <advance width="1155"/>
  <unicode hex="018C"/>
  <outline>
    <contour>
      <point x="971" y="1509" type="line" name="hr01"/>
      <point x="200" y="1509" type="line" name="hr02"/>
      <point x="200" y="1190" type="line"/>
      <point x="313" y="1190" type="line"/>
      <point x="341" y="1383" type="line" smooth="yes"/>
      <point x="343" y="1397"/>
      <point x="359" y="1413"/>
      <point x="373" y="1413" type="curve" smooth="yes"/>
      <point x="737" y="1413" type="line"/>
      <point x="765" y="1413"/>
      <point x="780" y="1386"/>
      <point x="780" y="1370" type="curve"/>
      <point x="780" y="987" type="line"/>
      <point x="748" y="995"/>
      <point x="657" y="1012"/>
      <point x="592" y="1012" type="curve" smooth="yes" name="hr03"/>
      <point x="240" y="1012"/>
      <point x="70" y="745"/>
      <point x="70" y="467" type="curve" smooth="yes"/>
      <point x="70" y="236"/>
      <point x="188" y="-25"/>
      <point x="463" y="-25" type="curve" smooth="yes"/>
      <point x="582" y="-25"/>
      <point x="686" y="37"/>
      <point x="780" y="109" type="curve"/>
      <point x="780" y="0" type="line" name="hr04"/>
      <point x="1102" y="0" type="line"/>
      <point x="1102" y="80" type="line"/>
      <point x="1014" y="86" type="line" smooth="yes"/>
      <point x="989" y="88"/>
      <point x="971" y="106"/>
      <point x="971" y="131" type="curve" smooth="yes"/>
    </contour>
    <contour>
      <point x="780" y="186" type="line" name="hr05"/>
      <point x="727" y="154"/>
      <point x="651" y="115"/>
      <point x="569" y="115" type="curve" smooth="yes"/>
      <point x="381" y="115"/>
      <point x="272" y="279"/>
      <point x="272" y="502" type="curve" smooth="yes"/>
      <point x="272" y="750"/>
      <point x="403" y="913"/>
      <point x="606" y="913" type="curve" smooth="yes"/>
      <point x="666" y="913"/>
      <point x="745" y="895"/>
      <point x="780" y="883" type="curve"/>
    </contour>
    <contour>
      <point x="586" y="1540" type="move" name="U"/>
    </contour>
    <contour>
      <point x="586" y="-100" type="move" name="L"/>
    </contour>
  </outline>
</glyph>
<glyph name="LtnSmHv" format="1">
  <advance width="1780"/>
  <unicode hex="0195"/>
  <outline>
    <contour>
      <point x="1602" y="1012" type="line" name="hr01"/>
      <point x="1518" y="1012" type="line"/>
      <point x="1268" y="932" type="line"/>
      <point x="1268" y="862" type="line"/>
      <point x="1412" y="862" type="line"/>
      <point x="1412" y="336" type="line"/>
      <point x="1412" y="167"/>
      <point x="1335" y="105"/>
      <point x="1211" y="105" type="curve" smooth="yes" name="hr02"/>
      <point x="1066" y="105"/>
      <point x="991" y="174"/>
      <point x="991" y="346" type="curve" smooth="yes"/>
      <point x="991" y="702" type="line"/>
      <point x="990" y="913"/>
      <point x="870" y="1012"/>
      <point x="713" y="1012" type="curve" smooth="yes"/>
      <point x="606" y="1012"/>
      <point x="449" y="930"/>
      <point x="375" y="885" type="curve"/>
      <point x="375" y="1509" type="line"/>
      <point x="293" y="1509" type="line"/>
      <point x="31" y="1430" type="line" name="hr03"/>
      <point x="31" y="1362" type="line" name="hr04"/>
      <point x="184" y="1362" type="line"/>
      <point x="184" y="131" type="line" smooth="yes"/>
      <point x="184" y="106"/>
      <point x="166" y="88"/>
      <point x="141" y="86" type="curve" smooth="yes"/>
      <point x="43" y="80" type="line"/>
      <point x="43" y="0" type="line"/>
      <point x="504" y="0" type="line"/>
      <point x="504" y="80" type="line"/>
      <point x="416" y="86" type="line" smooth="yes"/>
      <point x="391" y="88"/>
      <point x="375" y="106"/>
      <point x="375" y="131" type="curve" smooth="yes"/>
      <point x="375" y="803" type="line"/>
      <point x="434" y="836"/>
      <point x="526" y="862"/>
      <point x="598" y="862" type="curve" smooth="yes"/>
      <point x="756" y="862"/>
      <point x="801" y="776"/>
      <point x="801" y="659" type="curve" smooth="yes"/>
      <point x="801" y="337" type="line" smooth="yes"/>
      <point x="801" y="148"/>
      <point x="905" y="-25"/>
      <point x="1191" y="-25" type="curve" smooth="yes" name="hr05"/>
      <point x="1467" y="-25"/>
      <point x="1602" y="148"/>
      <point x="1602" y="351" type="curve"/>
    </contour>
    <contour>
      <point x="900" y="1100" type="move" name="U"/>
    </contour>
    <contour>
      <point x="900" y="-100" type="move" name="L"/>
    </contour>
  </outline>
</glyph>
<glyph name="LtnSmLBar" format="1">
  <advance width="608"/>
  <unicode hex="019A"/>
  <outline>
    <contour>
      <point x="608" y="668" type="line" name="hr01"/>
      <point x="608" y="770" type="line"/>
      <point x="399" y="770" type="line"/>
      <point x="399" y="1509" type="line"/>
      <point x="315" y="1509" type="line"/>
      <point x="53" y="1430" type="line" name="hr02"/>
      <point x="53" y="1362" type="line" name="hr03"/>
      <point x="211" y="1362" type="line"/>
      <point x="211" y="770" type="line"/>
      <point x="0" y="770" type="line"/>
      <point x="0" y="668" type="line"/>
      <point x="211" y="668" type="line"/>
      <point x="211" y="131" type="line" smooth="yes"/>
      <point x="211" y="113"/>
      <point x="186" y="90"/>
      <point x="168" y="88" type="curve" smooth="yes"/>
      <point x="55" y="80" type="line"/>
      <point x="55" y="0" type="line"/>
      <point x="553" y="0" type="line"/>
      <point x="553" y="80" type="line"/>
      <point x="442" y="88" type="line" smooth="yes"/>
      <point x="424" y="90"/>
      <point x="399" y="113"/>
      <point x="399" y="131" type="curve" smooth="yes"/>
      <point x="399" y="668" type="line"/>
    </contour>
    <contour>
      <point x="304" y="1540" type="move" name="U"/>
    </contour>
    <contour>
      <point x="304" y="-100" type="move" name="L"/>
    </contour>
  </outline>
</glyph>
<glyph name="LtnSmLambdaStrk" format="1">
  <advance width="1323"/>
  <unicode hex="019B"/>
  <outline>
    <contour>
      <point x="1303" y="184" type="curve" smooth="yes" name="hr01"/>
      <point x="1303" y="240"/>
      <point x="1235" y="305"/>
      <point x="1184" y="305" type="curve"/>
      <point x="1096" y="131" type="line"/>
      <point x="1075" y="119"/>
      <point x="1057" y="113"/>
      <point x="1038" y="113" type="curve" smooth="yes"/>
      <point x="993" y="113"/>
      <point x="952" y="158"/>
      <point x="897" y="293" type="curve" smooth="yes"/>
      <point x="543" y="1171" type="line"/>
      <point x="479" y="1325"/>
      <point x="410" y="1407"/>
      <point x="270" y="1407" type="curve" smooth="yes"/>
      <point x="96" y="1407"/>
      <point x="29" y="1354"/>
      <point x="29" y="1198" type="curve" smooth="yes"/>
      <point x="29" y="1143"/>
      <point x="96" y="1077"/>
      <point x="147" y="1077" type="curve"/>
      <point x="238" y="1251" type="line"/>
      <point x="258" y="1264"/>
      <point x="276" y="1272"/>
      <point x="295" y="1272" type="curve" smooth="yes"/>
      <point x="340" y="1272"/>
      <point x="381" y="1239"/>
      <point x="434" y="1104" type="curve"/>
      <point x="434" y="1104"/>
      <point x="465" y="1026"/>
      <point x="502" y="934" type="curve"/>
      <point x="20" y="0" type="line" name="hr02"/>
      <point x="217" y="0" type="line"/>
      <point x="590" y="723" type="line"/>
      <point x="791" y="225" type="line"/>
      <point x="852" y="70"/>
      <point x="922" y="-25"/>
      <point x="1061" y="-25" type="curve" smooth="yes" name="hr03"/>
      <point x="1235" y="-25"/>
      <point x="1303" y="29"/>
    </contour>
    <contour>
      <point x="702" y="1260" type="line"/>
      <point x="702" y="1407" type="line"/>
      <point x="196" y="967" type="line"/>
      <point x="196" y="820" type="line"/>
    </contour>
    <contour>
      <point x="661" y="1540" type="move" name="U"/>
    </contour>
    <contour>
      <point x="661" y="-100" type="move" name="L"/>
    </contour>
  </outline>
</glyph>
<glyph name="LtnSmNLngRtLeg" format="1">
  <advance width="1161"/>
  <unicode hex="019E"/>
  <outline>
    <contour>
      <point x="1120" y="-446" type="line" name="hr01"/>
      <point x="1120" y="-367" type="line"/>
      <point x="1030" y="-360" type="line" smooth="yes"/>
      <point x="1006" y="-358"/>
      <point x="987" y="-340"/>
      <point x="987" y="-315" type="curve" smooth="yes"/>
      <point x="987" y="696" type="line" smooth="yes"/>
      <point x="987" y="895"/>
      <point x="891" y="1012"/>
      <point x="713" y="1012" type="curve" smooth="yes"/>
      <point x="618" y="1012"/>
      <point x="489" y="950"/>
      <point x="375" y="885" type="curve"/>
      <point x="375" y="987" type="line" name="hr02"/>
      <point x="291" y="987" type="line"/>
      <point x="41" y="909" type="line" name="hr03"/>
      <point x="41" y="842" type="line" name="hr04"/>
      <point x="184" y="842" type="line"/>
      <point x="184" y="131" type="line" smooth="yes"/>
      <point x="184" y="106"/>
      <point x="166" y="88"/>
      <point x="141" y="86" type="curve" smooth="yes"/>
      <point x="41" y="80" type="line"/>
      <point x="41" y="0" type="line"/>
      <point x="504" y="0" type="line"/>
      <point x="504" y="80" type="line"/>
      <point x="418" y="86" type="line" smooth="yes"/>
      <point x="393" y="88"/>
      <point x="375" y="106"/>
      <point x="375" y="131" type="curve" smooth="yes"/>
      <point x="375" y="803" type="line" name="hr05"/>
      <point x="444" y="838"/>
      <point x="522" y="862"/>
      <point x="600" y="862" type="curve" smooth="yes"/>
      <point x="743" y="862"/>
      <point x="797" y="793"/>
      <point x="797" y="664" type="curve" smooth="yes"/>
      <point x="797" y="-315" type="line" smooth="yes"/>
      <point x="797" y="-340"/>
      <point x="778" y="-358"/>
      <point x="754" y="-360" type="curve" smooth="yes"/>
      <point x="668" y="-367" type="line"/>
      <point x="668" y="-446" type="line"/>
    </contour>
    <contour>
      <point x="580" y="1100" type="move" name="U"/>
    </contour>
    <contour>
      <point x="580" y="-500" type="move" name="L"/>
    </contour>
  </outline>
</glyph>
<glyph name="LtnCapOi" format="1">
  <advance width="1838"/>
  <unicode hex="01A2"/>
  <outline>
    <contour>
      <point x="1814" y="-358" type="line" name="hr01"/>
      <point x="1689" y="-350" type="line" smooth="yes"/>
      <point x="1661" y="-348"/>
      <point x="1646" y="-325"/>
      <point x="1646" y="-305" type="curve" smooth="yes"/>
      <point x="1646" y="1407" type="line"/>
      <point x="1553" y="1407" type="line"/>
      <point x="1487" y="1347"/>
      <point x="1433" y="1322"/>
      <point x="1331" y="1322" type="curve" smooth="yes" name="hr02"/>
      <point x="1136" y="1322"/>
      <point x="1105" y="1407"/>
      <point x="748" y="1407" type="curve" smooth="yes"/>
      <point x="340" y="1407"/>
      <point x="80" y="1087"/>
      <point x="80" y="688" type="curve" smooth="yes" name="hr03"/>
      <point x="80" y="309"/>
      <point x="338" y="-33"/>
      <point x="775" y="-33" type="curve" smooth="yes"/>
      <point x="1060" y="-33"/>
      <point x="1225" y="133"/>
      <point x="1225" y="329" type="curve" smooth="yes"/>
      <point x="1225" y="1160" type="line" name="hr04"/>
      <point x="1280" y="1151"/>
      <point x="1386" y="1155"/>
      <point x="1439" y="1167" type="curve"/>
      <point x="1439" y="-305" type="line" smooth="yes"/>
      <point x="1439" y="-325"/>
      <point x="1425" y="-348"/>
      <point x="1396" y="-350" type="curve" smooth="yes"/>
      <point x="1274" y="-358" type="line"/>
      <point x="1274" y="-446" type="line"/>
      <point x="1814" y="-446" type="line"/>
    </contour>
    <contour>
      <point x="1018" y="364" type="line"/>
      <point x="1018" y="143"/>
      <point x="928" y="82"/>
      <point x="779" y="82" type="curve" smooth="yes"/>
      <point x="518" y="82"/>
      <point x="315" y="295"/>
      <point x="315" y="688" type="curve" smooth="yes"/>
      <point x="315" y="1014"/>
      <point x="453" y="1290"/>
      <point x="750" y="1290" type="curve" smooth="yes" name="hr05"/>
      <point x="863" y="1290"/>
      <point x="908" y="1279"/>
      <point x="1018" y="1219" type="curve"/>
    </contour>
    <contour>
      <point x="947" y="1500" type="move" name="U"/>
    </contour>
    <contour>
      <point x="947" y="-100" type="move" name="L"/>
    </contour>
  </outline>
</glyph>
<glyph name="LtnSmPHook" format="1">
  <advance width="1145"/>
  <unicode hex="01A5"/>
  <outline>
    <contour>
      <point x="1073" y="508" type="curve" smooth="yes" name="hr01"/>
      <point x="1073" y="813"/>
      <point x="893" y="1012"/>
      <point x="682" y="1012" type="curve" smooth="yes"/>
      <point x="522" y="1012"/>
      <point x="375" y="885"/>
      <point x="375" y="885" type="curve"/>
      <point x="375" y="1067" type="line" smooth="yes"/>
      <point x="375" y="1292"/>
      <point x="496" y="1405"/>
      <point x="625" y="1405" type="curve" smooth="yes"/>
      <point x="670" y="1405"/>
      <point x="717" y="1397"/>
      <point x="741" y="1376" type="curve"/>
      <point x="811" y="1204" type="line"/>
      <point x="811" y="1204"/>
      <point x="829" y="1194"/>
      <point x="858" y="1194" type="curve" smooth="yes"/>
      <point x="920" y="1194"/>
      <point x="973" y="1249"/>
      <point x="973" y="1311" type="curve" smooth="yes"/>
      <point x="973" y="1462"/>
      <point x="834" y="1509"/>
      <point x="614" y="1509" type="curve" smooth="yes"/>
      <point x="262" y="1509"/>
      <point x="184" y="1171"/>
      <point x="184" y="1067" type="curve" smooth="yes"/>
      <point x="184" y="-311" type="line" smooth="yes"/>
      <point x="184" y="-336"/>
      <point x="166" y="-350"/>
      <point x="141" y="-354" type="curve" smooth="yes"/>
      <point x="43" y="-367" type="line"/>
      <point x="43" y="-446" type="line"/>
      <point x="541" y="-446" type="line"/>
      <point x="541" y="-367" type="line"/>
      <point x="420" y="-354" type="line" smooth="yes"/>
      <point x="395" y="-352"/>
      <point x="375" y="-336"/>
      <point x="375" y="-311" type="curve" smooth="yes"/>
      <point x="375" y="-6" type="line" name="hr02"/>
      <point x="375" y="-6"/>
      <point x="481" y="-25"/>
      <point x="555" y="-25" type="curve" smooth="yes"/>
      <point x="879" y="-25"/>
      <point x="1073" y="186"/>
    </contour>
    <contour>
      <point x="868" y="479" type="curve" smooth="yes"/>
      <point x="868" y="266"/>
      <point x="766" y="70"/>
      <point x="541" y="70" type="curve" smooth="yes"/>
      <point x="457" y="70"/>
      <point x="375" y="102"/>
      <point x="375" y="102" type="curve"/>
      <point x="375" y="807" type="line"/>
      <point x="375" y="807"/>
      <point x="481" y="868"/>
      <point x="584" y="868" type="curve" smooth="yes"/>
      <point x="772" y="868"/>
      <point x="868" y="690"/>
    </contour>
    <contour>
      <point x="558" y="1540" type="move" name="U"/>
    </contour>
    <contour>
      <point x="558" y="-500" type="move" name="L"/>
    </contour>
  </outline>
</glyph>
<glyph name="LtnYr" format="1">
  <advance width="1264"/>
  <unicode hex="01A6"/>
  <outline>
    <contour>
      <point x="830" y="908" type="curve" smooth="yes" name="hr01"/>
      <point x="830" y="787"/>
      <point x="753" y="691"/>
      <point x="544" y="691" type="curve" smooth="yes"/>
      <point x="493" y="691"/>
      <point x="460" y="693"/>
      <point x="437" y="695" type="curve"/>
      <point x="437" y="1090" type="line"/>
      <point x="535" y="1090" type="line"/>
      <point x="737" y="1090"/>
      <point x="830" y="1023"/>
    </contour>
    <contour>
      <point x="606" y="0" type="line"/>
      <point x="606" y="88" type="line"/>
      <point x="481" y="96" type="line"/>
      <point x="453" y="98"/>
      <point x="438" y="121"/>
      <point x="438" y="141" type="curve" smooth="yes"/>
      <point x="438" y="588" type="line"/>
      <point x="472" y="588" type="line"/>
      <point x="590" y="588"/>
      <point x="711" y="459"/>
      <point x="790" y="273" type="curve" smooth="yes"/>
      <point x="895" y="27"/>
      <point x="969" y="-143"/>
      <point x="1161" y="-143" type="curve" smooth="yes" name="hr02"/>
      <point x="1223" y="-143"/>
      <point x="1271" y="-125"/>
      <point x="1305" y="-112" type="curve"/>
      <point x="1305" y="-22" type="line"/>
      <point x="1286" y="-27"/>
      <point x="1254" y="-27"/>
      <point x="1239" y="-27" type="curve" smooth="yes"/>
      <point x="1122" y="-27"/>
      <point x="1065" y="166"/>
      <point x="991" y="339" type="curve" smooth="yes"/>
      <point x="938" y="462"/>
      <point x="861" y="575"/>
      <point x="738" y="601" type="curve"/>
      <point x="889" y="601"/>
      <point x="1059" y="701"/>
      <point x="1059" y="908" type="curve" smooth="yes"/>
      <point x="1059" y="1129"/>
      <point x="889" y="1188"/>
      <point x="566" y="1188" type="curve"/>
      <point x="437" y="1188" type="line"/>
      <point x="437" y="1233" type="line"/>
      <point x="439" y="1261"/>
      <point x="457" y="1274"/>
      <point x="481" y="1276" type="curve" smooth="yes"/>
      <point x="606" y="1284" type="line"/>
      <point x="606" y="1374" type="line"/>
      <point x="66" y="1374" type="line"/>
      <point x="66" y="1284" type="line"/>
      <point x="188" y="1276" type="line" smooth="yes"/>
      <point x="217" y="1274"/>
      <point x="231" y="1253"/>
      <point x="231" y="1233" type="curve" smooth="yes"/>
      <point x="231" y="141" type="line" smooth="yes" name="hr03"/>
      <point x="231" y="121"/>
      <point x="217" y="98"/>
      <point x="188" y="96" type="curve" smooth="yes"/>
      <point x="66" y="88" type="line"/>
      <point x="66" y="0" type="line"/>
    </contour>
    <contour>
      <point x="685" y="1500" type="move" name="U"/>
    </contour>
    <contour>
      <point x="685" y="-100" type="move" name="L"/>
    </contour>
  </outline>
</glyph>
<glyph name="LtnRevEshLoop" format="1">
  <advance width="1047"/>
  <unicode hex="01AA"/>
  <outline>
    <contour>
      <point x="1223" y="-340" type="curve" smooth="yes" name="hr01"/>
      <point x="1223" y="-270"/>
      <point x="1178" y="-209"/>
      <point x="1110" y="-209" type="curve"/>
      <point x="944" y="-373" type="line" name="hr02"/>
      <point x="854" y="-342"/>
      <point x="844" y="-250"/>
      <point x="844" y="-43" type="curve" smooth="yes"/>
      <point x="844" y="1028" type="line" smooth="yes"/>
      <point x="844" y="1241"/>
      <point x="694" y="1409"/>
      <point x="457" y="1409" type="curve" smooth="yes"/>
      <point x="217" y="1409"/>
      <point x="70" y="1241"/>
      <point x="70" y="1028" type="curve" smooth="yes"/>
      <point x="70" y="813"/>
      <point x="219" y="649"/>
      <point x="455" y="649" type="curve" smooth="yes"/>
      <point x="530" y="649"/>
      <point x="598" y="668"/>
      <point x="653" y="698" type="curve"/>
      <point x="653" y="-43" type="line" smooth="yes"/>
      <point x="653" y="-287"/>
      <point x="791" y="-469"/>
      <point x="1042" y="-469" type="curve" smooth="yes"/>
      <point x="1161" y="-469"/>
      <point x="1223" y="-403"/>
    </contour>
    <contour>
      <point x="653" y="1028" type="curve" smooth="yes"/>
      <point x="653" y="868"/>
      <point x="594" y="733"/>
      <point x="455" y="733" type="curve" smooth="yes"/>
      <point x="322" y="733"/>
      <point x="260" y="868"/>
      <point x="260" y="1028" type="curve" smooth="yes"/>
      <point x="260" y="1188"/>
      <point x="317" y="1325"/>
      <point x="457" y="1325" type="curve" smooth="yes"/>
      <point x="592" y="1325"/>
      <point x="653" y="1188"/>
    </contour>
    <contour>
      <point x="646" y="1540" type="move" name="U"/>
    </contour>
    <contour>
      <point x="646" y="-500" type="move" name="L"/>
    </contour>
  </outline>
</glyph>
<glyph name="LtnCapTHook" format="1">
  <advance width="1227"/>
  <unicode hex="01AC"/>
  <outline>
    <contour>
      <point x="1194" y="1047" type="line" name="hr00"/>
      <point x="1194" y="1374" type="line"/>
      <point x="281" y="1374" type="line" smooth="yes"/>
      <point x="127" y="1374"/>
      <point x="16" y="1262"/>
      <point x="16" y="1094" type="curve" smooth="yes"/>
      <point x="16" y="973"/>
      <point x="92" y="924"/>
      <point x="152" y="924" type="curve" smooth="yes"/>
      <point x="201" y="924"/>
      <point x="252" y="969"/>
      <point x="291" y="1012" type="curve"/>
      <point x="152" y="1128" type="line"/>
      <point x="164" y="1223"/>
      <point x="205" y="1268"/>
      <point x="276" y="1274" type="curve"/>
      <point x="510" y="1274" type="line"/>
      <point x="510" y="141" type="line" smooth="yes"/>
      <point x="510" y="121"/>
      <point x="496" y="98"/>
      <point x="467" y="96" type="curve" smooth="yes"/>
      <point x="336" y="88" type="line"/>
      <point x="336" y="0" type="line"/>
      <point x="891" y="0" type="line"/>
      <point x="891" y="88" type="line"/>
      <point x="760" y="96" type="line" smooth="yes"/>
      <point x="731" y="98"/>
      <point x="717" y="121"/>
      <point x="717" y="141" type="curve" smooth="yes"/>
      <point x="717" y="1274" type="line"/>
      <point x="1010" y="1274" type="line" smooth="yes"/>
      <point x="1028" y="1274"/>
      <point x="1040" y="1260"/>
      <point x="1044" y="1239" type="curve" smooth="yes"/>
      <point x="1073" y="1047" type="line"/>
    </contour>
    <contour>
      <point x="605" y="1500" type="move" name="U"/>
    </contour>
    <contour>
      <point x="605" y="-100" type="move" name="L"/>
    </contour>
  </outline>
</glyph>
<glyph name="LtnSmUHorn" format="1">
  <advance width="1326"/>
  <unicode hex="01B0"/>
  <outline>
    <contour>
      <point x="1296" y="1090" type="curve" smooth="yes" name="hr01"/>
      <point x="1296" y="1223"/>
      <point x="1212" y="1311"/>
      <point x="1112" y="1311" type="curve" smooth="yes"/>
      <point x="1040" y="1311"/>
      <point x="977" y="1266"/>
      <point x="977" y="1194" type="curve" smooth="yes"/>
      <point x="977" y="1137"/>
      <point x="1020" y="1081"/>
      <point x="1020" y="1081" type="curve"/>
      <point x="1176" y="1081" type="line"/>
      <point x="1176" y="969"/>
      <point x="1081" y="887"/>
      <point x="987" y="836" type="curve"/>
      <point x="987" y="1012" type="line"/>
      <point x="903" y="1012" type="line"/>
      <point x="653" y="932" type="line" name="hr02"/>
      <point x="653" y="862" type="line" name="hr03"/>
      <point x="797" y="862" type="line"/>
      <point x="797" y="176" type="line"/>
      <point x="748" y="152"/>
      <point x="659" y="115"/>
      <point x="575" y="115" type="curve" smooth="yes"/>
      <point x="430" y="115"/>
      <point x="377" y="201"/>
      <point x="377" y="346" type="curve" smooth="yes"/>
      <point x="377" y="1012" type="line"/>
      <point x="295" y="1012" type="line"/>
      <point x="43" y="932" type="line" name="hr04"/>
      <point x="43" y="862" type="line" name="hr05"/>
      <point x="186" y="862" type="line"/>
      <point x="186" y="307" type="line" smooth="yes"/>
      <point x="186" y="76"/>
      <point x="293" y="-25"/>
      <point x="469" y="-25" type="curve" smooth="yes"/>
      <point x="590" y="-25"/>
      <point x="727" y="63"/>
      <point x="797" y="117" type="curve"/>
      <point x="797" y="0" type="line" name="hr06"/>
      <point x="1122" y="0" type="line"/>
      <point x="1122" y="80" type="line"/>
      <point x="1032" y="86" type="line" smooth="yes"/>
      <point x="1008" y="88"/>
      <point x="987" y="106"/>
      <point x="987" y="131" type="curve" smooth="yes"/>
      <point x="987" y="750" type="line"/>
      <point x="1139" y="807"/>
      <point x="1296" y="956"/>
    </contour>
    <contour>
      <point x="618" y="-100" type="move" name="L"/>
    </contour>
    <contour>
      <point x="618" y="1100" type="move" name="U"/>
    </contour>
  </outline>
</glyph>
<glyph name="LtnCapYHook.RtHook" format="1">
  <advance width="1282"/>
  <unicode hex="01B3"/>
  <outline>
    <contour>
      <point x="1540" y="1329" type="curve" smooth="yes" name="hr01"/>
      <point x="1540" y="1399"/>
      <point x="1473" y="1466"/>
      <point x="1346" y="1466" type="curve" smooth="yes" name="hr02"/>
      <point x="1143" y="1466"/>
      <point x="1079" y="1393"/>
      <point x="944" y="1163" type="curve" smooth="yes"/>
      <point x="668" y="700" type="line"/>
      <point x="379" y="1235" type="line" smooth="yes" name="hr03"/>
      <point x="371" y="1251"/>
      <point x="371" y="1272"/>
      <point x="403" y="1276" type="curve" smooth="yes"/>
      <point x="506" y="1286" type="line"/>
      <point x="506" y="1374" type="line"/>
      <point x="20" y="1374" type="line"/>
      <point x="20" y="1286" type="line"/>
      <point x="139" y="1262" type="line"/>
      <point x="532" y="553" type="line"/>
      <point x="532" y="141" type="line" smooth="yes"/>
      <point x="532" y="121"/>
      <point x="516" y="98"/>
      <point x="487" y="96" type="curve" smooth="yes"/>
      <point x="360" y="88" type="line"/>
      <point x="360" y="0" type="line"/>
      <point x="913" y="0" type="line"/>
      <point x="913" y="88" type="line"/>
      <point x="782" y="96" type="line" smooth="yes"/>
      <point x="754" y="98"/>
      <point x="739" y="121"/>
      <point x="739" y="141" type="curve" smooth="yes"/>
      <point x="739" y="584" type="line"/>
      <point x="1090" y="1169" type="line" smooth="yes"/>
      <point x="1159" y="1288"/>
      <point x="1200" y="1335"/>
      <point x="1266" y="1335" type="curve" name="hr04"/>
      <point x="1442" y="1186" type="line"/>
      <point x="1442" y="1186"/>
      <point x="1540" y="1239"/>
    </contour>
    <contour>
      <point x="641" y="1500" type="move" name="U"/>
    </contour>
    <contour>
      <point x="641" y="-100" type="move" name="L"/>
    </contour>
  </outline>
</glyph>
<glyph name="LtnSmZStrk" format="1">
  <advance width="946"/>
  <unicode hex="01B6"/>
  <outline>
    <contour>
      <point x="743" y="455" type="line" name="hr00"/>
      <point x="743" y="558" type="line"/>
      <point x="185" y="558" type="line"/>
      <point x="185" y="455" type="line"/>
    </contour>
    <contour>
      <point x="877" y="0" type="line"/>
      <point x="877" y="309" type="line"/>
      <point x="766" y="309" type="line"/>
      <point x="745" y="147" type="line" smooth="yes"/>
      <point x="743" y="127"/>
      <point x="719" y="98"/>
      <point x="700" y="98" type="curve" smooth="yes"/>
      <point x="287" y="98" type="line"/>
      <point x="848" y="903" type="line"/>
      <point x="848" y="987" type="line"/>
      <point x="90" y="987" type="line"/>
      <point x="90" y="696" type="line"/>
      <point x="195" y="696" type="line"/>
      <point x="215" y="848" type="line"/>
      <point x="219" y="866"/>
      <point x="236" y="891"/>
      <point x="256" y="891" type="curve" smooth="yes"/>
      <point x="612" y="891" type="line"/>
      <point x="70" y="109" type="line"/>
      <point x="70" y="0" type="line"/>
    </contour>
    <contour>
      <point x="483" y="1100" type="move" name="U"/>
    </contour>
    <contour>
      <point x="483" y="-100" type="move" name="L"/>
    </contour>
  </outline>
</glyph>
<glyph name="LtnCapTnFive" format="1">
  <advance width="1139"/>
  <unicode hex="01BC"/>
  <outline>
    <contour>
      <point x="381" y="1235" type="line" name="hr01"/>
      <point x="381" y="1251"/>
      <point x="395" y="1278"/>
      <point x="424" y="1278" type="curve" smooth="yes"/>
      <point x="818" y="1278" type="line" smooth="yes" name="hr02"/>
      <point x="836" y="1278"/>
      <point x="850" y="1260"/>
      <point x="853" y="1239" type="curve" smooth="yes"/>
      <point x="879" y="1055" type="line"/>
      <point x="992" y="1055" type="line"/>
      <point x="992" y="1374" type="line"/>
      <point x="43" y="1374" type="line"/>
      <point x="43" y="1286" type="line" name="hr03"/>
      <point x="151" y="1278" type="line"/>
      <point x="180" y="1274"/>
      <point x="194" y="1251"/>
      <point x="194" y="1235" type="curve"/>
      <point x="194" y="774" type="line"/>
      <point x="513" y="774"/>
      <point x="850" y="658"/>
      <point x="850" y="395" type="curve" smooth="yes"/>
      <point x="850" y="250"/>
      <point x="729" y="68"/>
      <point x="512" y="68" type="curve" smooth="yes"/>
      <point x="465" y="68"/>
      <point x="378" y="97"/>
      <point x="345" y="128" type="curve"/>
      <point x="276" y="315" type="line"/>
      <point x="268" y="317"/>
      <point x="234" y="325"/>
      <point x="211" y="325" type="curve" smooth="yes"/>
      <point x="137" y="325"/>
      <point x="92" y="275"/>
      <point x="92" y="209" type="curve" smooth="yes"/>
      <point x="92" y="78"/>
      <point x="268" y="-33"/>
      <point x="481" y="-33" type="curve" smooth="yes"/>
      <point x="858" y="-33"/>
      <point x="1059" y="166"/>
      <point x="1059" y="444" type="curve" smooth="yes"/>
      <point x="1059" y="817"/>
      <point x="616" y="941"/>
      <point x="381" y="941" type="curve"/>
    </contour>
    <contour>
      <point x="551" y="1500" type="move" name="U"/>
    </contour>
    <contour>
      <point x="551" y="-100" type="move" name="L"/>
    </contour>
  </outline>
</glyph>
<glyph name="LtnSmTnFive" format="1">
  <advance width="895"/>
  <unicode hex="01BD"/>
  <outline>
    <contour>
      <point x="365" y="858" type="line" name="hr01"/>
      <point x="365" y="870"/>
      <point x="376" y="889"/>
      <point x="396" y="889" type="curve" smooth="yes"/>
      <point x="624" y="889" type="line" smooth="yes" name="hr02"/>
      <point x="638" y="889"/>
      <point x="648" y="876"/>
      <point x="650" y="861" type="curve" smooth="yes"/>
      <point x="668" y="748" type="line" name="hr03"/>
      <point x="760" y="748" type="line"/>
      <point x="760" y="987" type="line" name="hr04"/>
      <point x="45" y="987" type="line"/>
      <point x="45" y="895" type="line" name="hr05"/>
      <point x="143" y="889" type="line"/>
      <point x="164" y="886"/>
      <point x="174" y="870"/>
      <point x="174" y="858" type="curve" smooth="yes"/>
      <point x="174" y="556" type="line"/>
      <point x="420" y="556"/>
      <point x="654" y="476"/>
      <point x="654" y="284" type="curve" smooth="yes"/>
      <point x="654" y="143"/>
      <point x="567" y="68"/>
      <point x="435" y="68" type="curve" smooth="yes"/>
      <point x="401" y="68"/>
      <point x="346" y="71"/>
      <point x="322" y="93" type="curve"/>
      <point x="250" y="279" type="line"/>
      <point x="244" y="281"/>
      <point x="206" y="288"/>
      <point x="190" y="288" type="curve" smooth="yes"/>
      <point x="136" y="288"/>
      <point x="88" y="231"/>
      <point x="88" y="165" type="curve" smooth="yes"/>
      <point x="88" y="49"/>
      <point x="250" y="-24"/>
      <point x="408" y="-24" type="curve" smooth="yes"/>
      <point x="653" y="-24"/>
      <point x="825" y="119"/>
      <point x="825" y="319" type="curve" smooth="yes"/>
      <point x="825" y="608"/>
      <point x="539" y="686"/>
      <point x="365" y="686" type="curve"/>
    </contour>
    <contour>
      <point x="435" y="1100" type="move" name="U"/>
    </contour>
    <contour>
      <point x="435" y="-100" type="move" name="L"/>
    </contour>
  </outline>
</glyph>
<glyph name="LtnWynn" format="1">
  <advance width="1085"/>
  <unicode hex="01BF"/>
  <outline>
    <contour>
      <point x="1015" y="652" type="curve" smooth="yes" name="hr01"/>
      <point x="1015" y="842"/>
      <point x="941" y="1012"/>
      <point x="704" y="1012" type="curve" smooth="yes"/>
      <point x="544" y="1012"/>
      <point x="375" y="835"/>
      <point x="375" y="835" type="curve"/>
      <point x="375" y="987" type="line" name="hr02"/>
      <point x="295" y="987" type="line"/>
      <point x="43" y="909" type="line" name="hr03"/>
      <point x="43" y="842" type="line" name="hr04"/>
      <point x="184" y="842" type="line"/>
      <point x="184" y="-311" type="line" smooth="yes"/>
      <point x="184" y="-336"/>
      <point x="166" y="-351"/>
      <point x="141" y="-354" type="curve" smooth="yes"/>
      <point x="43" y="-367" type="line"/>
      <point x="43" y="-446" type="line"/>
      <point x="541" y="-446" type="line"/>
      <point x="541" y="-367" type="line"/>
      <point x="420" y="-354" type="line" smooth="yes"/>
      <point x="395" y="-351"/>
      <point x="375" y="-336"/>
      <point x="375" y="-311" type="curve" smooth="yes"/>
      <point x="375" y="-176" type="line"/>
      <point x="682" y="12"/>
      <point x="1015" y="284"/>
    </contour>
    <contour>
      <point x="375" y="-68" type="curve"/>
      <point x="375" y="727" type="line"/>
      <point x="375" y="727"/>
      <point x="501" y="868"/>
      <point x="604" y="868" type="curve" smooth="yes"/>
      <point x="792" y="868"/>
      <point x="810" y="760"/>
      <point x="810" y="593" type="curve" smooth="yes"/>
      <point x="810" y="350"/>
      <point x="664" y="133"/>
    </contour>
    <contour>
      <point x="529" y="1100" type="move" name="U"/>
    </contour>
    <contour>
      <point x="529" y="-500" type="move" name="L"/>
    </contour>
  </outline>
</glyph>
<glyph name="LtnDentalClick" format="1">
  <advance width="453"/>
  <unicode hex="01C0"/>
  <outline>
    <contour>
      <point x="279" y="-440" type="line" name="hr00"/>
      <point x="279" y="1507" type="line"/>
      <point x="174" y="1507" type="line"/>
      <point x="174" y="-440" type="line"/>
    </contour>
    <contour>
      <point x="226" y="1540" type="move" name="U"/>
    </contour>
    <contour>
      <point x="226" y="-500" type="move" name="L"/>
    </contour>
  </outline>
</glyph>
<glyph name="LtnAlveolarClick" format="1">
  <advance width="853"/>
  <unicode hex="01C2"/>
  <outline>
    <contour>
      <point x="50" y="619" type="line" name="hr00"/>
      <point x="803" y="619" type="line"/>
      <point x="803" y="723" type="line"/>
      <point x="50" y="723" type="line"/>
    </contour>
    <contour>
      <point x="50" y="343" type="line"/>
      <point x="803" y="343" type="line"/>
      <point x="803" y="447" type="line"/>
      <point x="50" y="447" type="line"/>
    </contour>
    <contour>
      <point x="426" y="1540" type="move" name="U"/>
    </contour>
    <contour>
      <point x="426" y="-500" type="move" name="L"/>
    </contour>
    <component base="LtnDentalClick" xOffset="200"/>
  </outline>
</glyph>
<glyph name="LtnRetrClick" format="1">
  <advance width="472"/>
  <unicode hex="01C3"/>
  <outline>
    <contour>
      <point x="360" y="1274" type="curve" smooth="yes" name="hr00"/>
      <point x="360" y="1356"/>
      <point x="321" y="1407"/>
      <point x="235" y="1407" type="curve" smooth="yes"/>
      <point x="149" y="1407"/>
      <point x="110" y="1356"/>
      <point x="110" y="1274" type="curve" smooth="yes"/>
      <point x="110" y="1241"/>
      <point x="186" y="371"/>
      <point x="186" y="371" type="curve"/>
      <point x="286" y="371" type="line"/>
      <point x="286" y="371"/>
      <point x="360" y="1241"/>
    </contour>
    <contour>
      <point x="362" y="102" type="curve" smooth="yes"/>
      <point x="362" y="172"/>
      <point x="305" y="227"/>
      <point x="235" y="227" type="curve" smooth="yes"/>
      <point x="165" y="227"/>
      <point x="110" y="172"/>
      <point x="110" y="102" type="curve" smooth="yes"/>
      <point x="110" y="35"/>
      <point x="165" y="-25"/>
      <point x="235" y="-25" type="curve" smooth="yes"/>
      <point x="305" y="-25"/>
      <point x="362" y="35"/>
    </contour>
    <contour>
      <point x="236" y="1540" type="move" name="U"/>
    </contour>
    <contour>
      <point x="236" y="-100" type="move" name="L"/>
    </contour>
  </outline>
</glyph>
<glyph name="LtnSmGStrk" format="1">
  <advance width="1075"/>
  <unicode hex="01E5"/>
  <outline>
    <contour>
      <point x="1065" y="850" type="line" name="hr01"/>
      <point x="1065" y="950" type="line"/>
      <point x="789" y="950" type="line"/>
      <point x="736" y="975"/>
      <point x="648" y="1012"/>
      <point x="551" y="1012" type="curve" smooth="yes" name="hr02"/>
      <point x="306" y="1012"/>
      <point x="140" y="879"/>
      <point x="140" y="664" type="curve" smooth="yes"/>
      <point x="140" y="498"/>
      <point x="258" y="387"/>
      <point x="394" y="356" type="curve"/>
      <point x="322" y="283"/>
      <point x="291" y="217"/>
      <point x="291" y="164" type="curve" smooth="yes" name="hr03"/>
      <point x="291" y="119"/>
      <point x="297" y="113"/>
      <point x="312" y="70" type="curve"/>
      <point x="164" y="43"/>
      <point x="95" y="-59"/>
      <point x="95" y="-178" type="curve" smooth="yes" name="hr04"/>
      <point x="95" y="-344"/>
      <point x="236" y="-469"/>
      <point x="480" y="-469" type="curve" smooth="yes"/>
      <point x="777" y="-469"/>
      <point x="1012" y="-276"/>
      <point x="1012" y="-82" type="curve" smooth="yes"/>
      <point x="1012" y="162"/>
      <point x="641" y="186"/>
      <point x="457" y="205" type="curve"/>
      <point x="455" y="211"/>
      <point x="441" y="289"/>
      <point x="474" y="342" type="curve" name="hr05"/>
      <point x="703" y="326"/>
      <point x="916" y="449"/>
      <point x="916" y="666" type="curve" smooth="yes"/>
      <point x="916" y="745"/>
      <point x="891" y="801"/>
      <point x="861" y="850" type="curve"/>
    </contour>
    <contour>
      <point x="721" y="678" type="curve" smooth="yes" name="hr06"/>
      <point x="721" y="539"/>
      <point x="654" y="426"/>
      <point x="531" y="426" type="curve" smooth="yes"/>
      <point x="402" y="426"/>
      <point x="336" y="539"/>
      <point x="336" y="676" type="curve" smooth="yes"/>
      <point x="336" y="834"/>
      <point x="416" y="928"/>
      <point x="531" y="928" type="curve" smooth="yes"/>
      <point x="654" y="928"/>
      <point x="721" y="807"/>
    </contour>
    <contour>
      <point x="836" y="-137" type="curve" smooth="yes" name="hr07"/>
      <point x="836" y="-236"/>
      <point x="742" y="-375"/>
      <point x="547" y="-375" type="curve" smooth="yes"/>
      <point x="363" y="-375"/>
      <point x="279" y="-236"/>
      <point x="279" y="-137" type="curve" smooth="yes"/>
      <point x="279" y="-70"/>
      <point x="316" y="12"/>
      <point x="435" y="55" type="curve"/>
      <point x="557" y="31"/>
      <point x="836" y="33"/>
    </contour>
    <contour>
      <point x="1077" y="-213" type="line"/>
      <point x="1077" y="-110" type="line"/>
      <point x="15" y="-110" type="line"/>
      <point x="15" y="-213" type="line"/>
    </contour>
    <contour>
      <point x="546" y="1100" type="move" name="U"/>
    </contour>
    <contour>
      <point x="546" y="-500" type="move" name="L"/>
    </contour>
  </outline>
</glyph>
<glyph name="LtnCapHwair" format="1">
  <advance width="2072"/>
  <unicode hex="01F6"/>
  <outline>
    <contour>
      <point x="1914" y="1012" type="line" name="hr01"/>
      <point x="1830" y="1012" type="line"/>
      <point x="1580" y="932" type="line" name="hr02"/>
      <point x="1580" y="862" type="line" name="hr03"/>
      <point x="1724" y="862" type="line"/>
      <point x="1724" y="360" type="line"/>
      <point x="1724" y="156"/>
      <point x="1633" y="85"/>
      <point x="1523" y="85" type="curve" smooth="yes"/>
      <point x="1398" y="85"/>
      <point x="1305" y="156"/>
      <point x="1305" y="360" type="curve" smooth="yes"/>
      <point x="1305" y="1233" type="line" smooth="yes"/>
      <point x="1305" y="1253"/>
      <point x="1321" y="1274"/>
      <point x="1350" y="1276" type="curve" smooth="yes"/>
      <point x="1456" y="1284" type="line"/>
      <point x="1456" y="1374" type="line"/>
      <point x="938" y="1374" type="line"/>
      <point x="938" y="1284" type="line"/>
      <point x="1055" y="1276" type="line" smooth="yes"/>
      <point x="1083" y="1274"/>
      <point x="1098" y="1253"/>
      <point x="1098" y="1233" type="curve" smooth="yes"/>
      <point x="1098" y="772" type="line"/>
      <point x="424" y="772" type="line"/>
      <point x="424" y="1233" type="line" smooth="yes"/>
      <point x="424" y="1253"/>
      <point x="438" y="1274"/>
      <point x="467" y="1276" type="curve" smooth="yes"/>
      <point x="584" y="1284" type="line"/>
      <point x="584" y="1374" type="line"/>
      <point x="66" y="1374" type="line"/>
      <point x="66" y="1284" type="line"/>
      <point x="172" y="1276" type="line" smooth="yes"/>
      <point x="201" y="1274"/>
      <point x="217" y="1253"/>
      <point x="217" y="1233" type="curve" smooth="yes"/>
      <point x="217" y="141" type="line" smooth="yes" name="hr04"/>
      <point x="217" y="121"/>
      <point x="201" y="98"/>
      <point x="172" y="96" type="curve" smooth="yes"/>
      <point x="66" y="88" type="line"/>
      <point x="66" y="0" type="line"/>
      <point x="584" y="0" type="line"/>
      <point x="584" y="88" type="line"/>
      <point x="467" y="96" type="line" smooth="yes"/>
      <point x="438" y="98"/>
      <point x="424" y="121"/>
      <point x="424" y="141" type="curve" smooth="yes"/>
      <point x="424" y="670" type="line"/>
      <point x="1098" y="670" type="line"/>
      <point x="1098" y="350" type="line" smooth="yes"/>
      <point x="1098" y="84"/>
      <point x="1234" y="-33"/>
      <point x="1484" y="-33" type="curve" smooth="yes" name="hr05"/>
      <point x="1772" y="-33"/>
      <point x="1914" y="97"/>
      <point x="1914" y="351" type="curve" smooth="yes"/>
    </contour>
    <contour>
      <point x="990" y="1500" type="move" name="U"/>
    </contour>
    <contour>
      <point x="990" y="-100" type="move" name="L"/>
    </contour>
  </outline>
</glyph>
<glyph name="LtnCapWynn" format="1">
  <advance width="1194"/>
  <unicode hex="01F7"/>
  <outline>
    <contour>
      <point x="570" y="-446" type="line" name="hr01"/>
      <point x="570" y="-366" type="line"/>
      <point x="459" y="-360" type="line"/>
      <point x="441" y="-360"/>
      <point x="416" y="-335"/>
      <point x="416" y="-317" type="curve" smooth="yes"/>
      <point x="416" y="50" type="line"/>
      <point x="732" y="291"/>
      <point x="1130" y="614"/>
      <point x="1130" y="1039" type="curve" smooth="yes"/>
      <point x="1130" y="1220"/>
      <point x="1039" y="1407"/>
      <point x="810" y="1407" type="curve" smooth="yes"/>
      <point x="650" y="1407"/>
      <point x="510" y="1314"/>
      <point x="416" y="1209" type="curve"/>
      <point x="416" y="1374" type="line" name="hr02"/>
      <point x="315" y="1374" type="line"/>
      <point x="53" y="1295" type="line" name="hr03"/>
      <point x="53" y="1227" type="line" name="hr04"/>
      <point x="209" y="1227" type="line"/>
      <point x="209" y="-317" type="line" smooth="yes"/>
      <point x="209" y="-335"/>
      <point x="182" y="-360"/>
      <point x="164" y="-360" type="curve"/>
      <point x="55" y="-366" type="line"/>
      <point x="55" y="-446" type="line"/>
    </contour>
    <contour>
      <point x="898" y="1000" type="curve" smooth="yes" name="hr05"/>
      <point x="898" y="718"/>
      <point x="698" y="454"/>
      <point x="416" y="191" type="curve"/>
      <point x="416" y="1041" type="line"/>
      <point x="504" y="1162"/>
      <point x="630" y="1272"/>
      <point x="748" y="1272" type="curve" smooth="yes"/>
      <point x="878" y="1272"/>
      <point x="898" y="1112"/>
    </contour>
    <contour>
      <point x="591" y="1500" type="move" name="U"/>
    </contour>
    <contour>
      <point x="591" y="-100" type="move" name="L"/>
    </contour>
  </outline>
</glyph>
<glyph name="LtnSmOu" format="1">
  <advance width="1051"/>
  <unicode hex="0223"/>
  <outline>
    <contour>
      <point x="981" y="396" type="curve" smooth="yes" name="hr01"/>
      <point x="981" y="594"/>
      <point x="834" y="743"/>
      <point x="653" y="785" type="curve"/>
      <point x="788" y="812"/>
      <point x="930" y="921"/>
      <point x="930" y="1127" type="curve" smooth="yes" name="hr02"/>
      <point x="930" y="1370"/>
      <point x="757" y="1509"/>
      <point x="527" y="1509" type="curve" smooth="yes"/>
      <point x="303" y="1509"/>
      <point x="121" y="1370"/>
      <point x="121" y="1127" type="curve" smooth="yes"/>
      <point x="121" y="921"/>
      <point x="267" y="806"/>
      <point x="399" y="785" type="curve"/>
      <point x="219" y="749"/>
      <point x="70" y="595"/>
      <point x="70" y="396" type="curve" smooth="yes" name="hr03"/>
      <point x="70" y="164"/>
      <point x="250" y="-25"/>
      <point x="527" y="-25" type="curve" smooth="yes"/>
      <point x="787" y="-25"/>
      <point x="981" y="165"/>
    </contour>
    <contour>
      <point x="527" y="1407" type="curve" smooth="yes" name="hr05"/>
      <point x="652" y="1407"/>
      <point x="728" y="1301"/>
      <point x="728" y="1131" type="curve" smooth="yes"/>
      <point x="728" y="971"/>
      <point x="659" y="841"/>
      <point x="526" y="841" type="curve" smooth="yes"/>
      <point x="378" y="841"/>
      <point x="323" y="978"/>
      <point x="323" y="1131" type="curve" smooth="yes"/>
      <point x="323" y="1268"/>
      <point x="383" y="1407"/>
    </contour>
    <contour>
      <point x="527" y="84" type="curve" smooth="yes" name="hr06"/>
      <point x="356" y="84"/>
      <point x="280" y="224"/>
      <point x="280" y="413" type="curve" smooth="yes"/>
      <point x="280" y="590"/>
      <point x="371" y="729"/>
      <point x="526" y="729" type="curve" smooth="yes"/>
      <point x="673" y="729"/>
      <point x="771" y="614"/>
      <point x="771" y="413" type="curve" smooth="yes"/>
      <point x="771" y="232"/>
      <point x="690" y="84"/>
    </contour>
    <contour>
      <point x="525" y="1580" type="move" name="U"/>
    </contour>
    <contour>
      <point x="525" y="-100" type="move" name="L"/>
    </contour>
  </outline>
</glyph>
<glyph name="LtnSmDBDigraph" format="1">
  <advance width="1733"/>
  <unicode hex="0238"/>
  <outline>
    <contour>
      <point x="1663" y="541" type="curve" smooth="yes" name="hr01"/>
      <point x="1663" y="793"/>
      <point x="1522" y="1012"/>
      <point x="1253" y="1012" type="curve" smooth="yes"/>
      <point x="1133" y="1012"/>
      <point x="1018" y="958"/>
      <point x="971" y="936" type="curve"/>
      <point x="971" y="1509" type="line"/>
      <point x="889" y="1509" type="line"/>
      <point x="625" y="1430" type="line" name="hr02"/>
      <point x="625" y="1362" type="line" name="hr03"/>
      <point x="780" y="1362" type="line"/>
      <point x="780" y="987" type="line"/>
      <point x="748" y="995"/>
      <point x="657" y="1012"/>
      <point x="592" y="1012" type="curve" smooth="yes" name="hr04"/>
      <point x="240" y="1012"/>
      <point x="70" y="745"/>
      <point x="70" y="467" type="curve" smooth="yes"/>
      <point x="70" y="236"/>
      <point x="188" y="-25"/>
      <point x="463" y="-25" type="curve" smooth="yes"/>
      <point x="582" y="-25"/>
      <point x="686" y="37"/>
      <point x="780" y="109" type="curve"/>
      <point x="780" y="0" type="line" name="hr05"/>
      <point x="1075" y="0" type="line" smooth="yes"/>
      <point x="1487" y="0"/>
      <point x="1663" y="233"/>
    </contour>
    <contour>
      <point x="780" y="186" type="line" name="hr06"/>
      <point x="727" y="154"/>
      <point x="651" y="115"/>
      <point x="569" y="115" type="curve" smooth="yes"/>
      <point x="381" y="115"/>
      <point x="272" y="279"/>
      <point x="272" y="502" type="curve" smooth="yes"/>
      <point x="272" y="750"/>
      <point x="403" y="913"/>
      <point x="606" y="913" type="curve" smooth="yes"/>
      <point x="666" y="913"/>
      <point x="745" y="895"/>
      <point x="780" y="883" type="curve"/>
    </contour>
    <contour>
      <point x="1454" y="500" type="curve" smooth="yes" name="hr07"/>
      <point x="1454" y="201"/>
      <point x="1313" y="96"/>
      <point x="1071" y="96" type="curve" smooth="yes"/>
      <point x="1032" y="96"/>
      <point x="971" y="98"/>
      <point x="971" y="98" type="curve"/>
      <point x="971" y="858" type="line"/>
      <point x="1012" y="872"/>
      <point x="1096" y="891"/>
      <point x="1141" y="891" type="curve" smooth="yes"/>
      <point x="1339" y="891"/>
      <point x="1454" y="758"/>
    </contour>
    <contour>
      <point x="866" y="1540" type="move" name="U"/>
    </contour>
    <contour>
      <point x="866" y="-100" type="move" name="L"/>
    </contour>
  </outline>
</glyph>
<glyph name="LtnCapCStrk" format="1">
  <advance width="1284"/>
  <unicode hex="023B"/>
  <outline>
    <contour>
      <point x="142" y="-104" type="line" name="hr00"/>
      <point x="236" y="-162" type="line"/>
      <point x="1211" y="1475" type="line"/>
      <point x="1114" y="1532" type="line"/>
    </contour>
    <contour>
      <point x="693" y="1500" type="move" name="U"/>
    </contour>
    <contour>
      <point x="693" y="-100" type="move" name="L"/>
    </contour>
    <contour>
      <point x="645" y="0" type="move" name="H"/>
    </contour>
    <component base="LtnCapC"/>
  </outline>
</glyph>
<glyph name="LtnCapLBar" format="1">
  <advance width="1087"/>
  <unicode hex="023D"/>
  <outline>
    <contour>
      <point x="1051" y="0" type="line" name="hr01"/>
      <point x="1051" y="381" type="line"/>
      <point x="934" y="381" type="line"/>
      <point x="901" y="135" type="line" smooth="yes"/>
      <point x="899" y="117"/>
      <point x="874" y="100"/>
      <point x="856" y="100" type="curve" smooth="yes"/>
      <point x="424" y="100" type="line"/>
      <point x="424" y="668" type="line"/>
      <point x="711" y="668" type="line"/>
      <point x="711" y="772" type="line"/>
      <point x="424" y="772" type="line"/>
      <point x="424" y="1233" type="line" smooth="yes"/>
      <point x="424" y="1253"/>
      <point x="438" y="1274"/>
      <point x="467" y="1276" type="curve" smooth="yes"/>
      <point x="578" y="1286" type="line"/>
      <point x="578" y="1374" type="line"/>
      <point x="55" y="1374" type="line"/>
      <point x="55" y="1286" type="line"/>
      <point x="174" y="1276" type="line" smooth="yes"/>
      <point x="203" y="1274"/>
      <point x="217" y="1253"/>
      <point x="217" y="1233" type="curve" smooth="yes"/>
      <point x="217" y="772" type="line"/>
      <point x="0" y="772" type="line"/>
      <point x="0" y="668" type="line"/>
      <point x="217" y="668" type="line"/>
      <point x="217" y="141" type="line" smooth="yes" name="hr02"/>
      <point x="217" y="121"/>
      <point x="203" y="98"/>
      <point x="174" y="96" type="curve" smooth="yes"/>
      <point x="55" y="88" type="line"/>
      <point x="55" y="0" type="line" name="hr03"/>
    </contour>
    <contour>
      <point x="525" y="1500" type="move" name="U"/>
    </contour>
    <contour>
      <point x="525" y="-100" type="move" name="L"/>
    </contour>
  </outline>
</glyph>
<glyph name="LtnCapTDiagStrk" format="1">
  <advance width="1227"/>
  <unicode hex="023E"/>
  <outline>
    <contour>
      <point x="82" y="-104" type="line" name="hr00"/>
      <point x="176" y="-162" type="line"/>
      <point x="1151" y="1475" type="line"/>
      <point x="1054" y="1532" type="line"/>
    </contour>
    <contour>
      <point x="613" y="1500" type="move" name="U"/>
    </contour>
    <contour>
      <point x="613" y="-100" type="move" name="L"/>
    </contour>
    <contour>
      <point x="613" y="0" type="move" name="H"/>
    </contour>
    <component base="LtnCapT"/>
  </outline>
</glyph>
<glyph name="LtnSmSSwashTail" format="1">
  <advance width="815"/>
  <unicode hex="023F"/>
  <outline>
    <contour>
      <point x="745" y="297" type="curve" smooth="yes" name="hr01"/>
      <point x="745" y="430"/>
      <point x="640" y="501"/>
      <point x="498" y="565" type="curve" smooth="yes"/>
      <point x="325" y="643"/>
      <point x="270" y="684"/>
      <point x="270" y="776" type="curve" smooth="yes"/>
      <point x="270" y="856"/>
      <point x="324" y="913"/>
      <point x="436" y="913" type="curve" smooth="yes"/>
      <point x="500" y="913"/>
      <point x="563" y="889"/>
      <point x="592" y="866" type="curve" name="hr02"/>
      <point x="608" y="723" type="line"/>
      <point x="715" y="723" type="line"/>
      <point x="715" y="965" type="line"/>
      <point x="674" y="983"/>
      <point x="573" y="1012"/>
      <point x="453" y="1012" type="curve" smooth="yes"/>
      <point x="217" y="1012"/>
      <point x="84" y="897"/>
      <point x="84" y="715" type="curve" smooth="yes"/>
      <point x="84" y="592"/>
      <point x="166" y="531"/>
      <point x="315" y="455" type="curve" smooth="yes"/>
      <point x="472" y="375"/>
      <point x="565" y="342"/>
      <point x="565" y="227" type="curve" smooth="yes" name="hr03"/>
      <point x="565" y="145"/>
      <point x="498" y="68"/>
      <point x="381" y="68" type="curve" smooth="yes"/>
      <point x="301" y="68"/>
      <point x="240" y="98"/>
      <point x="199" y="125" type="curve"/>
      <point x="174" y="299" type="line" name="hr04"/>
      <point x="70" y="299" type="line"/>
      <point x="70" y="27" type="line"/>
      <point x="274" y="27"/>
      <point x="322" y="-469"/>
      <point x="651" y="-469" type="curve" smooth="yes"/>
      <point x="749" y="-469"/>
      <point x="815" y="-412"/>
      <point x="815" y="-342" type="curve" smooth="yes"/>
      <point x="815" y="-252"/>
      <point x="737" y="-229"/>
      <point x="737" y="-229" type="curve"/>
      <point x="575" y="-356" type="line"/>
      <point x="498" y="-356"/>
      <point x="360" y="-57"/>
      <point x="301" y="-19" type="curve"/>
      <point x="315" y="-23"/>
      <point x="337" y="-25"/>
      <point x="354" y="-25" type="curve" name="hr05"/>
      <point x="598" y="-25"/>
      <point x="745" y="96"/>
    </contour>
    <contour>
      <point x="442" y="1100" type="move" name="U"/>
    </contour>
    <contour>
      <point x="442" y="-500" type="move" name="L"/>
    </contour>
  </outline>
</glyph>
<glyph name="LtnCapBBarredLowStem" format="1">
  <advance width="1239"/>
  <unicode hex="0243"/>
  <outline>
    <contour>
      <point x="1159" y="406" type="curve" smooth="yes" name="hr01"/>
      <point x="1159" y="647"/>
      <point x="963" y="729"/>
      <point x="780" y="729" type="curve"/>
      <point x="901" y="760"/>
      <point x="1077" y="840"/>
      <point x="1077" y="1044" type="curve" smooth="yes" name="hr02"/>
      <point x="1077" y="1249"/>
      <point x="940" y="1374"/>
      <point x="614" y="1374" type="curve" smooth="yes"/>
      <point x="66" y="1374" type="line"/>
      <point x="66" y="1286" type="line"/>
      <point x="174" y="1276" type="line" smooth="yes"/>
      <point x="203" y="1274"/>
      <point x="217" y="1253"/>
      <point x="217" y="1233" type="curve" smooth="yes"/>
      <point x="217" y="469" type="line"/>
      <point x="35" y="469" type="line"/>
      <point x="35" y="365" type="line"/>
      <point x="217" y="365" type="line"/>
      <point x="217" y="141" type="line" smooth="yes"/>
      <point x="217" y="121"/>
      <point x="203" y="98"/>
      <point x="174" y="96" type="curve" smooth="yes"/>
      <point x="66" y="88" type="line"/>
      <point x="66" y="0" type="line" name="hr03"/>
      <point x="639" y="0" type="line" smooth="yes"/>
      <point x="854" y="0"/>
      <point x="1159" y="74"/>
    </contour>
    <contour>
      <point x="854" y="1032" type="curve" smooth="yes" name="hr04"/>
      <point x="854" y="856"/>
      <point x="762" y="752"/>
      <point x="496" y="754" type="curve" smooth="yes"/>
      <point x="473" y="754"/>
      <point x="422" y="756"/>
      <point x="422" y="756" type="curve"/>
      <point x="422" y="1274" type="line"/>
      <point x="436" y="1274"/>
      <point x="496" y="1280"/>
      <point x="539" y="1280" type="curve" smooth="yes"/>
      <point x="750" y="1282"/>
      <point x="854" y="1192"/>
    </contour>
    <contour>
      <point x="936" y="389" type="curve" smooth="yes" name="hr05"/>
      <point x="936" y="195"/>
      <point x="834" y="98"/>
      <point x="547" y="100" type="curve" smooth="yes"/>
      <point x="508" y="100"/>
      <point x="422" y="106"/>
      <point x="422" y="106" type="curve"/>
      <point x="422" y="365" type="line"/>
      <point x="727" y="365" type="line"/>
      <point x="727" y="469" type="line"/>
      <point x="422" y="469" type="line"/>
      <point x="422" y="647" type="line"/>
      <point x="434" y="647"/>
      <point x="539" y="659"/>
      <point x="606" y="659" type="curve" smooth="yes"/>
      <point x="823" y="659"/>
      <point x="936" y="575"/>
    </contour>
    <contour>
      <point x="597" y="1500" type="move" name="U"/>
    </contour>
    <contour>
      <point x="597" y="-100" type="move" name="L"/>
    </contour>
  </outline>
</glyph>
<glyph name="LtnCapTurnedV" format="1">
  <advance width="1364"/>
  <unicode hex="0245"/>
  <outline>
    <contour>
      <point x="1343" y="0" type="line" name="hr01"/>
      <point x="1343" y="88" type="line"/>
      <point x="1223" y="109" type="line"/>
      <point x="754" y="1407" type="line"/>
      <point x="598" y="1407" type="line"/>
      <point x="137" y="111" type="line"/>
      <point x="20" y="88" type="line"/>
      <point x="20" y="0" type="line"/>
      <point x="426" y="0" type="line"/>
      <point x="426" y="88" type="line" name="hr02"/>
      <point x="313" y="98" type="line" smooth="yes" name="hr03"/>
      <point x="295" y="100"/>
      <point x="281" y="123"/>
      <point x="287" y="139" type="curve" smooth="yes"/>
      <point x="633" y="1147" type="line"/>
      <point x="991" y="135" type="line" smooth="yes"/>
      <point x="995" y="123"/>
      <point x="989" y="98"/>
      <point x="975" y="98" type="curve" smooth="yes"/>
      <point x="854" y="88" type="line"/>
      <point x="854" y="0" type="line"/>
    </contour>
    <contour>
      <point x="681" y="1500" type="move" name="U"/>
    </contour>
    <contour>
      <point x="681" y="-100" type="move" name="L"/>
    </contour>
  </outline>
</glyph>
<glyph name="LtnCapEStrk" format="1">
  <advance width="1194"/>
  <unicode hex="0246"/>
  <outline>
    <contour>
      <point x="32" y="-104" type="line" name="hr00"/>
      <point x="126" y="-162" type="line"/>
      <point x="1101" y="1475" type="line"/>
      <point x="1004" y="1532" type="line"/>
    </contour>
    <contour>
      <point x="604" y="1500" type="move" name="U"/>
    </contour>
    <contour>
      <point x="604" y="-100" type="move" name="L"/>
    </contour>
    <component base="LtnCapE"/>
  </outline>
</glyph>
<glyph name="LtnSmQHookTail" format="1">
  <advance width="1151"/>
  <unicode hex="024B"/>
  <outline>
    <contour>
      <point x="1343" y="-340" type="curve" smooth="yes" name="hr01"/>
      <point x="1343" y="-270"/>
      <point x="1298" y="-209"/>
      <point x="1231" y="-209" type="curve"/>
      <point x="1065" y="-373" type="line" name="hr02"/>
      <point x="985" y="-336"/>
      <point x="952" y="-258"/>
      <point x="952" y="-78" type="curve" smooth="yes"/>
      <point x="952" y="979" type="line"/>
      <point x="866" y="999"/>
      <point x="737" y="1012"/>
      <point x="662" y="1012" type="curve" smooth="yes"/>
      <point x="289" y="1012"/>
      <point x="70" y="803"/>
      <point x="70" y="469" type="curve" smooth="yes"/>
      <point x="70" y="197"/>
      <point x="223" y="-25"/>
      <point x="475" y="-25" type="curve" smooth="yes"/>
      <point x="567" y="-25"/>
      <point x="686" y="18"/>
      <point x="762" y="55" type="curve"/>
      <point x="762" y="-78" type="line" smooth="yes"/>
      <point x="762" y="-352"/>
      <point x="903" y="-469"/>
      <point x="1163" y="-469" type="curve" smooth="yes"/>
      <point x="1282" y="-469"/>
      <point x="1343" y="-403"/>
    </contour>
    <contour>
      <point x="762" y="125" type="line"/>
      <point x="717" y="111"/>
      <point x="637" y="96"/>
      <point x="586" y="96" type="curve" smooth="yes"/>
      <point x="365" y="96"/>
      <point x="276" y="291"/>
      <point x="276" y="502" type="curve" smooth="yes"/>
      <point x="276" y="752"/>
      <point x="397" y="918"/>
      <point x="621" y="918" type="curve" smooth="yes"/>
      <point x="676" y="918"/>
      <point x="725" y="903"/>
      <point x="762" y="895" type="curve"/>
    </contour>
    <contour>
      <point x="706" y="1100" type="move" name="U"/>
    </contour>
    <contour>
      <point x="706" y="-500" type="move" name="L"/>
    </contour>
  </outline>
</glyph>
<glyph name="LtnSmRBar" format="1">
  <advance width="801"/>
  <unicode hex="024D"/>
  <outline>
    <contour>
      <point x="780" y="778" type="line" name="hr01"/>
      <point x="780" y="981" type="line"/>
      <point x="754" y="995"/>
      <point x="698" y="1012"/>
      <point x="655" y="1012" type="curve" smooth="yes"/>
      <point x="559" y="1012"/>
      <point x="444" y="870"/>
      <point x="385" y="805" type="curve"/>
      <point x="385" y="987" type="line" name="hr02"/>
      <point x="301" y="987" type="line"/>
      <point x="47" y="909" type="line" name="hr03"/>
      <point x="47" y="842" type="line" name="hr04"/>
      <point x="195" y="842" type="line"/>
      <point x="195" y="555" type="line"/>
      <point x="23" y="555" type="line"/>
      <point x="23" y="453" type="line"/>
      <point x="195" y="453" type="line"/>
      <point x="195" y="131" type="line" smooth="yes"/>
      <point x="195" y="106"/>
      <point x="176" y="88"/>
      <point x="152" y="86" type="curve" smooth="yes"/>
      <point x="51" y="78" type="line"/>
      <point x="51" y="0" type="line"/>
      <point x="563" y="0" type="line"/>
      <point x="563" y="80" type="line"/>
      <point x="428" y="86" type="line" smooth="yes"/>
      <point x="403" y="88"/>
      <point x="385" y="106"/>
      <point x="385" y="131" type="curve" smooth="yes"/>
      <point x="385" y="453" type="line"/>
      <point x="586" y="453" type="line"/>
      <point x="586" y="555" type="line"/>
      <point x="385" y="555" type="line"/>
      <point x="385" y="707" type="line"/>
      <point x="455" y="786"/>
      <point x="524" y="834"/>
      <point x="590" y="834" type="curve" smooth="yes" name="hr05"/>
      <point x="641" y="834"/>
      <point x="674" y="809"/>
      <point x="700" y="778" type="curve"/>
    </contour>
    <contour>
      <point x="413" y="1100" type="move" name="U"/>
    </contour>
    <contour>
      <point x="290" y="-100" type="move" name="L"/>
    </contour>
  </outline>
</glyph>
<glyph name="LtnSmCCurl" format="1">
  <advance width="954"/>
  <unicode hex="0255"/>
  <outline>
    <contour>
      <point x="899" y="246" type="curve" smooth="yes" name="hr01"/>
      <point x="899" y="350"/>
      <point x="821" y="428"/>
      <point x="719" y="428" type="curve" smooth="yes"/>
      <point x="555" y="428"/>
      <point x="475" y="295"/>
      <point x="438" y="143" type="curve"/>
      <point x="326" y="209"/>
      <point x="279" y="352"/>
      <point x="279" y="512" type="curve" smooth="yes"/>
      <point x="279" y="750"/>
      <point x="389" y="926"/>
      <point x="571" y="926" type="curve" smooth="yes"/>
      <point x="598" y="926"/>
      <point x="629" y="915"/>
      <point x="657" y="899" type="curve" name="hr02"/>
      <point x="657" y="719" type="line"/>
      <point x="682" y="702"/>
      <point x="715" y="686"/>
      <point x="760" y="686" type="curve" smooth="yes"/>
      <point x="821" y="686"/>
      <point x="879" y="725"/>
      <point x="879" y="805" type="curve" smooth="yes"/>
      <point x="879" y="938"/>
      <point x="741" y="1012"/>
      <point x="561" y="1012" type="curve" smooth="yes"/>
      <point x="299" y="1012"/>
      <point x="70" y="831"/>
      <point x="70" y="487" type="curve" smooth="yes"/>
      <point x="70" y="238"/>
      <point x="209" y="49"/>
      <point x="410" y="-6" type="curve"/>
      <point x="395" y="-96"/>
      <point x="385" y="-188"/>
      <point x="385" y="-264" type="curve"/>
      <point x="473" y="-264" type="line"/>
      <point x="473" y="-188"/>
      <point x="483" y="-104"/>
      <point x="500" y="-23" type="curve" name="hr03"/>
      <point x="516" y="-25"/>
      <point x="532" y="-25"/>
      <point x="549" y="-25" type="curve" smooth="yes"/>
      <point x="743" y="-25"/>
      <point x="899" y="96"/>
    </contour>
    <contour>
      <point x="788" y="252" type="curve" smooth="yes"/>
      <point x="788" y="174"/>
      <point x="702" y="100"/>
      <point x="616" y="100" type="curve" smooth="yes"/>
      <point x="584" y="100"/>
      <point x="559" y="104"/>
      <point x="530" y="111" type="curve"/>
      <point x="557" y="215"/>
      <point x="602" y="334"/>
      <point x="711" y="334" type="curve" smooth="yes"/>
      <point x="760" y="334"/>
      <point x="788" y="297"/>
    </contour>
    <contour>
      <point x="550" y="1100" type="move" name="U"/>
    </contour>
    <contour>
      <point x="535" y="-320" type="move" name="L"/>
    </contour>
  </outline>
</glyph>
<glyph name="LtnSmDTail" format="1">
  <advance width="1188"/>
  <unicode hex="0256"/>
  <outline>
    <contour>
      <point x="1335" y="-342" type="curve" smooth="yes" name="hr01"/>
      <point x="1335" y="-252"/>
      <point x="1247" y="-229"/>
      <point x="1247" y="-229" type="curve"/>
      <point x="1063" y="-371" type="line" name="hr02"/>
      <point x="967" y="-334"/>
      <point x="971" y="-270"/>
      <point x="971" y="-43" type="curve" smooth="yes"/>
      <point x="971" y="1509" type="line"/>
      <point x="889" y="1509" type="line"/>
      <point x="625" y="1430" type="line" name="hr03"/>
      <point x="625" y="1362" type="line" name="hr04"/>
      <point x="780" y="1362" type="line"/>
      <point x="780" y="987" type="line"/>
      <point x="748" y="995"/>
      <point x="657" y="1012"/>
      <point x="592" y="1012" type="curve" smooth="yes" name="hr05"/>
      <point x="240" y="1012"/>
      <point x="70" y="745"/>
      <point x="70" y="467" type="curve" smooth="yes"/>
      <point x="70" y="236"/>
      <point x="188" y="-25"/>
      <point x="463" y="-25" type="curve" smooth="yes"/>
      <point x="582" y="-25"/>
      <point x="686" y="37"/>
      <point x="780" y="109" type="curve"/>
      <point x="780" y="-43" type="line" smooth="yes"/>
      <point x="780" y="-285"/>
      <point x="895" y="-469"/>
      <point x="1143" y="-469" type="curve" smooth="yes"/>
      <point x="1270" y="-469"/>
      <point x="1335" y="-412"/>
    </contour>
    <contour>
      <point x="780" y="186" type="line"/>
      <point x="727" y="154"/>
      <point x="651" y="115"/>
      <point x="569" y="115" type="curve" smooth="yes"/>
      <point x="381" y="115"/>
      <point x="272" y="279"/>
      <point x="272" y="502" type="curve" smooth="yes"/>
      <point x="272" y="750"/>
      <point x="403" y="913"/>
      <point x="606" y="913" type="curve" smooth="yes"/>
      <point x="666" y="913"/>
      <point x="745" y="895"/>
      <point x="780" y="883" type="curve"/>
    </contour>
    <contour>
      <point x="586" y="-475" type="move" name="L"/>
    </contour>
    <contour>
      <point x="1188" y="1000" type="move" name="R"/>
    </contour>
    <contour>
      <point x="586" y="1540" type="move" name="U"/>
    </contour>
  </outline>
</glyph>
<glyph name="LtnSmDHook" format="1">
  <advance width="1188"/>
  <unicode hex="0257"/>
  <outline>
    <contour>
      <point x="1335" y="1382" type="curve" smooth="yes" name="hr01"/>
      <point x="1335" y="1452"/>
      <point x="1270" y="1509"/>
      <point x="1143" y="1509" type="curve" smooth="yes"/>
      <point x="895" y="1509"/>
      <point x="782" y="1323"/>
      <point x="782" y="1081" type="curve" smooth="yes"/>
      <point x="782" y="987" type="line" name="hr02"/>
      <point x="750" y="995"/>
      <point x="662" y="1012"/>
      <point x="596" y="1012" type="curve" smooth="yes" name="hr03"/>
      <point x="244" y="1012"/>
      <point x="70" y="745"/>
      <point x="70" y="467" type="curve" smooth="yes"/>
      <point x="70" y="236"/>
      <point x="190" y="-25"/>
      <point x="465" y="-25" type="curve" smooth="yes"/>
      <point x="586" y="-25"/>
      <point x="690" y="37"/>
      <point x="782" y="109" type="curve"/>
      <point x="782" y="0" type="line" name="hr04"/>
      <point x="1106" y="0" type="line"/>
      <point x="1106" y="78" type="line"/>
      <point x="1018" y="86" type="line" smooth="yes"/>
      <point x="999" y="88"/>
      <point x="973" y="111"/>
      <point x="973" y="129" type="curve" smooth="yes"/>
      <point x="973" y="1081" type="line" smooth="yes"/>
      <point x="973" y="1309"/>
      <point x="967" y="1372"/>
      <point x="1063" y="1409" type="curve"/>
      <point x="1247" y="1268" type="line"/>
      <point x="1247" y="1268"/>
      <point x="1335" y="1292"/>
    </contour>
    <contour>
      <point x="782" y="186" type="line" name="hr06"/>
      <point x="731" y="152"/>
      <point x="653" y="117"/>
      <point x="571" y="117" type="curve" smooth="yes"/>
      <point x="383" y="117"/>
      <point x="274" y="279"/>
      <point x="274" y="502" type="curve" smooth="yes"/>
      <point x="274" y="750"/>
      <point x="406" y="913"/>
      <point x="608" y="913" type="curve" smooth="yes"/>
      <point x="668" y="913"/>
      <point x="748" y="895"/>
      <point x="782" y="883" type="curve"/>
    </contour>
    <contour>
      <point x="586" y="-100" type="move" name="L"/>
    </contour>
    <contour>
      <point x="586" y="1540" type="move" name="U"/>
    </contour>
  </outline>
</glyph>
<glyph name="LtnSmSchwa" format="1">
  <advance width="1004"/>
  <unicode hex="0259"/>
  <outline>
    <contour>
      <point x="934" y="504" type="curve" smooth="yes" name="hr00"/>
      <point x="934" y="846"/>
      <point x="707" y="1012"/>
      <point x="459" y="1012" type="curve" smooth="yes"/>
      <point x="319" y="1012"/>
      <point x="184" y="956"/>
      <point x="70" y="885" type="curve"/>
      <point x="70" y="760" type="line"/>
      <point x="162" y="821"/>
      <point x="276" y="887"/>
      <point x="393" y="887" type="curve" smooth="yes"/>
      <point x="657" y="887"/>
      <point x="735" y="662"/>
      <point x="735" y="453" type="curve"/>
      <point x="72" y="453" type="line"/>
      <point x="70" y="434"/>
      <point x="70" y="410"/>
      <point x="70" y="395" type="curve" smooth="yes"/>
      <point x="70" y="152"/>
      <point x="199" y="-25"/>
      <point x="453" y="-25" type="curve" smooth="yes"/>
      <point x="731" y="-25"/>
      <point x="934" y="184"/>
    </contour>
    <contour>
      <point x="725" y="360" type="line"/>
      <point x="715" y="184"/>
      <point x="608" y="76"/>
      <point x="473" y="76" type="curve" smooth="yes"/>
      <point x="338" y="76"/>
      <point x="274" y="180"/>
      <point x="274" y="315" type="curve" smooth="yes"/>
      <point x="274" y="360" type="line"/>
    </contour>
    <contour>
      <point x="480" y="1100" type="move" name="U"/>
    </contour>
    <contour>
      <point x="480" y="-100" type="move" name="L"/>
    </contour>
    <contour>
      <point x="676" y="0" type="move" name="O"/>
    </contour>
    <contour>
      <point x="480" y="0" type="move" name="H"/>
    </contour>
  </outline>
</glyph>
<glyph name="LtnSmDotlessJStrk" format="1">
  <advance width="598"/>
  <unicode hex="025F"/>
  <outline>
    <contour>
      <point x="573" y="457" type="line" name="hr01"/>
      <point x="573" y="559" type="line"/>
      <point x="414" y="559" type="line"/>
      <point x="414" y="1012" type="line"/>
      <point x="330" y="1012" type="line"/>
      <point x="78" y="934" type="line" name="hr02"/>
      <point x="78" y="866" type="line" name="hr03"/>
      <point x="223" y="866" type="line"/>
      <point x="223" y="559" type="line"/>
      <point x="25" y="559" type="line"/>
      <point x="25" y="457" type="line"/>
      <point x="223" y="457" type="line"/>
      <point x="223" y="-43" type="line" smooth="yes"/>
      <point x="223" y="-201"/>
      <point x="201" y="-332"/>
      <point x="125" y="-375" type="curve"/>
      <point x="-74" y="-238" type="line"/>
      <point x="-115" y="-252"/>
      <point x="-162" y="-287"/>
      <point x="-162" y="-356" type="curve" smooth="yes"/>
      <point x="-162" y="-434"/>
      <point x="-90" y="-469"/>
      <point x="-6" y="-469" type="curve" smooth="yes"/>
      <point x="123" y="-469"/>
      <point x="250" y="-408"/>
      <point x="334" y="-279" type="curve" smooth="yes"/>
      <point x="403" y="-170"/>
      <point x="414" y="8"/>
      <point x="414" y="131" type="curve" smooth="yes"/>
      <point x="414" y="457" type="line"/>
    </contour>
    <contour>
      <point x="323" y="1100" type="move" name="U"/>
    </contour>
    <contour>
      <point x="125" y="-500" type="move" name="L"/>
    </contour>
    <contour>
      <point x="598" y="1000" type="move" name="R"/>
    </contour>
  </outline>
</glyph>
<glyph name="LtnSmLMiddleTilde" format="1">
  <advance width="745"/>
  <unicode hex="026B"/>
  <outline>
    <contour>
      <point x="745" y="909" type="curve" name="hr01"/>
      <point x="659" y="909" type="line"/>
      <point x="653" y="860"/>
      <point x="604" y="811"/>
      <point x="547" y="811" type="curve" smooth="yes"/>
      <point x="516" y="811"/>
      <point x="492" y="815"/>
      <point x="469" y="823" type="curve"/>
      <point x="469" y="1509" type="line"/>
      <point x="385" y="1509" type="line"/>
      <point x="123" y="1430" type="line" name="hr02"/>
      <point x="123" y="1362" type="line" name="hr03"/>
      <point x="279" y="1362" type="line"/>
      <point x="279" y="907" type="line"/>
      <point x="270" y="909"/>
      <point x="252" y="909"/>
      <point x="244" y="909" type="curve" smooth="yes"/>
      <point x="102" y="909"/>
      <point x="31" y="805"/>
      <point x="0" y="684" type="curve"/>
      <point x="88" y="684" type="line"/>
      <point x="94" y="733"/>
      <point x="141" y="782"/>
      <point x="199" y="782" type="curve" smooth="yes"/>
      <point x="229" y="782"/>
      <point x="256" y="778"/>
      <point x="279" y="770" type="curve"/>
      <point x="279" y="131" type="line" smooth="yes"/>
      <point x="279" y="113"/>
      <point x="252" y="90"/>
      <point x="233" y="88" type="curve" smooth="yes"/>
      <point x="123" y="80" type="line"/>
      <point x="123" y="0" type="line"/>
      <point x="621" y="0" type="line"/>
      <point x="621" y="80" type="line"/>
      <point x="512" y="88" type="line" smooth="yes"/>
      <point x="494" y="90"/>
      <point x="469" y="113"/>
      <point x="469" y="131" type="curve" smooth="yes"/>
      <point x="469" y="686" type="line" name="hr04"/>
      <point x="477" y="684"/>
      <point x="494" y="682"/>
      <point x="502" y="682" type="curve" smooth="yes"/>
      <point x="643" y="682"/>
      <point x="715" y="788"/>
    </contour>
    <contour>
      <point x="372" y="1540" type="move" name="U"/>
    </contour>
    <contour>
      <point x="372" y="-100" type="move" name="L"/>
    </contour>
  </outline>
</glyph>
<glyph name="LtnSmLBelt" format="1">
  <advance width="682"/>
  <unicode hex="026C"/>
  <outline>
    <contour>
      <point x="682" y="678" type="curve" name="hr01"/>
      <point x="633" y="739" type="line"/>
      <point x="584" y="686"/>
      <point x="537" y="653"/>
      <point x="453" y="633" type="curve"/>
      <point x="453" y="1509" type="line"/>
      <point x="371" y="1509" type="line"/>
      <point x="106" y="1430" type="line" name="hr02"/>
      <point x="106" y="1362" type="line" name="hr03"/>
      <point x="262" y="1362" type="line"/>
      <point x="262" y="961" type="line"/>
      <point x="231" y="977"/>
      <point x="201" y="983"/>
      <point x="168" y="983" type="curve" smooth="yes"/>
      <point x="80" y="983"/>
      <point x="-29" y="915"/>
      <point x="-29" y="784" type="curve" smooth="yes"/>
      <point x="-29" y="637"/>
      <point x="111" y="553"/>
      <point x="262" y="543" type="curve"/>
      <point x="262" y="131" type="line" smooth="yes"/>
      <point x="262" y="113"/>
      <point x="238" y="90"/>
      <point x="219" y="88" type="curve" smooth="yes"/>
      <point x="109" y="80" type="line"/>
      <point x="109" y="0" type="line"/>
      <point x="604" y="0" type="line"/>
      <point x="604" y="80" type="line"/>
      <point x="498" y="88" type="line" smooth="yes"/>
      <point x="479" y="90"/>
      <point x="453" y="113"/>
      <point x="453" y="131" type="curve" smooth="yes"/>
      <point x="453" y="545" type="line"/>
      <point x="539" y="563"/>
      <point x="618" y="614"/>
    </contour>
    <contour>
      <point x="262" y="631" type="line"/>
      <point x="160" y="645"/>
      <point x="72" y="684"/>
      <point x="72" y="788" type="curve" smooth="yes"/>
      <point x="72" y="846"/>
      <point x="106" y="895"/>
      <point x="172" y="895" type="curve" smooth="yes"/>
      <point x="205" y="895"/>
      <point x="240" y="887"/>
      <point x="262" y="858" type="curve"/>
    </contour>
    <contour>
      <point x="360" y="1540" type="move" name="U"/>
    </contour>
    <contour>
      <point x="360" y="-100" type="move" name="L"/>
    </contour>
  </outline>
</glyph>
<glyph name="LtnSmNLftHook" format="1">
  <advance width="1192"/>
  <unicode hex="0272"/>
  <outline>
    <contour>
      <point x="1151" y="0" type="line" name="hr01"/>
      <point x="1151" y="80" type="line"/>
      <point x="1061" y="86" type="line"/>
      <point x="1036" y="90"/>
      <point x="1018" y="106"/>
      <point x="1018" y="131" type="curve" smooth="yes"/>
      <point x="1018" y="696" type="line" smooth="yes"/>
      <point x="1018" y="895"/>
      <point x="922" y="1012"/>
      <point x="743" y="1012" type="curve" smooth="yes"/>
      <point x="649" y="1012"/>
      <point x="520" y="950"/>
      <point x="406" y="885" type="curve"/>
      <point x="406" y="987" type="line" name="hr02"/>
      <point x="322" y="987" type="line"/>
      <point x="72" y="909" type="line" name="hr03"/>
      <point x="72" y="842" type="line" name="hr04"/>
      <point x="215" y="842" type="line"/>
      <point x="215" y="-96" type="line" smooth="yes"/>
      <point x="215" y="-272"/>
      <point x="133" y="-373"/>
      <point x="72" y="-373" type="curve"/>
      <point x="-94" y="-201" type="line"/>
      <point x="-111" y="-201"/>
      <point x="-184" y="-252"/>
      <point x="-184" y="-336" type="curve" smooth="yes"/>
      <point x="-184" y="-397"/>
      <point x="-141" y="-469"/>
      <point x="-23" y="-469" type="curve" smooth="yes"/>
      <point x="190" y="-469"/>
      <point x="406" y="-336"/>
      <point x="406" y="-33" type="curve" smooth="yes"/>
      <point x="406" y="803" type="line" name="hr05"/>
      <point x="475" y="838"/>
      <point x="553" y="864"/>
      <point x="631" y="864" type="curve" smooth="yes"/>
      <point x="772" y="864"/>
      <point x="827" y="791"/>
      <point x="827" y="662" type="curve" smooth="yes"/>
      <point x="827" y="131" type="line" smooth="yes"/>
      <point x="827" y="106"/>
      <point x="809" y="90"/>
      <point x="784" y="86" type="curve"/>
      <point x="698" y="80" type="line"/>
      <point x="698" y="0" type="line"/>
    </contour>
    <contour>
      <point x="607" y="1100" type="move" name="U"/>
    </contour>
    <contour>
      <point x="607" y="-500" type="move" name="L"/>
    </contour>
  </outline>
</glyph>
<glyph name="LtnSmNRetrHook" format="1">
  <advance width="1161"/>
  <unicode hex="0273"/>
  <outline>
    <contour>
      <point x="1354" y="-340" type="curve" smooth="yes" name="hr01"/>
      <point x="1354" y="-270"/>
      <point x="1307" y="-209"/>
      <point x="1239" y="-209" type="curve"/>
      <point x="1071" y="-373" type="line" name="hr02"/>
      <point x="975" y="-342"/>
      <point x="973" y="-262"/>
      <point x="973" y="-63" type="curve" smooth="yes"/>
      <point x="973" y="696" type="line" smooth="yes"/>
      <point x="973" y="895"/>
      <point x="883" y="1012"/>
      <point x="705" y="1012" type="curve" smooth="yes"/>
      <point x="610" y="1012"/>
      <point x="489" y="950"/>
      <point x="375" y="885" type="curve"/>
      <point x="375" y="987" type="line" name="hr03"/>
      <point x="291" y="987" type="line"/>
      <point x="39" y="909" type="line" name="hr04"/>
      <point x="39" y="842" type="line" name="hr05"/>
      <point x="184" y="842" type="line"/>
      <point x="184" y="125" type="line" smooth="yes"/>
      <point x="184" y="109"/>
      <point x="160" y="90"/>
      <point x="143" y="88" type="curve" smooth="yes"/>
      <point x="41" y="78" type="line"/>
      <point x="41" y="0" type="line"/>
      <point x="504" y="0" type="line"/>
      <point x="504" y="78" type="line"/>
      <point x="416" y="88" type="line" smooth="yes"/>
      <point x="399" y="90"/>
      <point x="375" y="109"/>
      <point x="375" y="125" type="curve" smooth="yes"/>
      <point x="375" y="803" type="line" name="hr06"/>
      <point x="444" y="838"/>
      <point x="514" y="862"/>
      <point x="592" y="862" type="curve" smooth="yes"/>
      <point x="735" y="862"/>
      <point x="782" y="791"/>
      <point x="782" y="662" type="curve" smooth="yes"/>
      <point x="782" y="-33" type="line" smooth="yes"/>
      <point x="782" y="-279"/>
      <point x="897" y="-469"/>
      <point x="1174" y="-469" type="curve" smooth="yes"/>
      <point x="1292" y="-469"/>
      <point x="1354" y="-403"/>
    </contour>
    <contour>
      <point x="568" y="1100" type="move" name="U"/>
    </contour>
    <contour>
      <point x="568" y="-500" type="move" name="L"/>
    </contour>
  </outline>
</glyph>
<glyph name="LtnSmCapOe" format="1">
  <advance width="1679"/>
  <unicode hex="0276"/>
  <outline>
    <contour>
      <point x="1610" y="0" type="line" name="hr01"/>
      <point x="1610" y="260" type="line"/>
      <point x="1501" y="260" type="line"/>
      <point x="1501" y="258"/>
      <point x="1475" y="117"/>
      <point x="1475" y="117" type="curve"/>
      <point x="1473" y="98"/>
      <point x="1462" y="88"/>
      <point x="1444" y="88" type="curve" smooth="yes"/>
      <point x="1047" y="88" type="line"/>
      <point x="1047" y="469" type="line"/>
      <point x="1284" y="469" type="line" smooth="yes"/>
      <point x="1290" y="469"/>
      <point x="1303" y="457"/>
      <point x="1305" y="451" type="curve" smooth="yes"/>
      <point x="1321" y="342" type="line"/>
      <point x="1421" y="342" type="line"/>
      <point x="1421" y="684" type="line"/>
      <point x="1321" y="684" type="line"/>
      <point x="1305" y="578" type="line" smooth="yes"/>
      <point x="1303" y="571"/>
      <point x="1292" y="559"/>
      <point x="1284" y="559" type="curve" smooth="yes"/>
      <point x="1047" y="559" type="line"/>
      <point x="1047" y="899" type="line"/>
      <point x="1393" y="899" type="line" smooth="yes" name="hr02"/>
      <point x="1403" y="899"/>
      <point x="1411" y="891"/>
      <point x="1413" y="881" type="curve" smooth="yes"/>
      <point x="1438" y="756" type="line" name="hr03"/>
      <point x="1554" y="756" type="line"/>
      <point x="1554" y="987" type="line" name="hr04"/>
      <point x="862" y="987" type="line"/>
      <point x="862" y="920" type="line" name="hr05"/>
      <point x="784" y="977"/>
      <point x="682" y="1012"/>
      <point x="557" y="1012" type="curve" smooth="yes"/>
      <point x="223" y="1012"/>
      <point x="70" y="780"/>
      <point x="70" y="496" type="curve" smooth="yes"/>
      <point x="70" y="201"/>
      <point x="231" y="-25"/>
      <point x="559" y="-25" type="curve" smooth="yes"/>
      <point x="684" y="-25"/>
      <point x="784" y="10"/>
      <point x="862" y="68" type="curve"/>
      <point x="862" y="0" type="line" name="hr06"/>
    </contour>
    <contour>
      <point x="838" y="492" type="curve" smooth="yes"/>
      <point x="838" y="262"/>
      <point x="782" y="76"/>
      <point x="555" y="76" type="curve" smooth="yes" name="hr07"/>
      <point x="334" y="76"/>
      <point x="279" y="262"/>
      <point x="279" y="496" type="curve" smooth="yes"/>
      <point x="279" y="725"/>
      <point x="332" y="909"/>
      <point x="559" y="909" type="curve" smooth="yes"/>
      <point x="778" y="909"/>
      <point x="838" y="729"/>
    </contour>
    <contour>
      <point x="840" y="1100" type="move" name="U"/>
    </contour>
    <contour>
      <point x="840" y="-100" type="move" name="L"/>
    </contour>
    <contour>
      <point x="1679" y="1000" type="move" name="R"/>
    </contour>
  </outline>
</glyph>
<glyph name="LtnSmTurnedR" format="1">
  <advance width="801"/>
  <unicode hex="0279"/>
  <outline>
    <contour>
      <point x="754" y="78" type="line" name="hr01"/>
      <point x="754" y="145" type="line" name="hr02"/>
      <point x="606" y="145" type="line"/>
      <point x="606" y="856" type="line" smooth="yes"/>
      <point x="606" y="881"/>
      <point x="625" y="899"/>
      <point x="649" y="901" type="curve" smooth="yes"/>
      <point x="750" y="909" type="line"/>
      <point x="750" y="987" type="line"/>
      <point x="238" y="987" type="line"/>
      <point x="238" y="907" type="line"/>
      <point x="373" y="901" type="line" smooth="yes"/>
      <point x="397" y="899"/>
      <point x="416" y="881"/>
      <point x="416" y="856" type="curve" smooth="yes"/>
      <point x="416" y="281" type="line"/>
      <point x="346" y="201"/>
      <point x="276" y="154"/>
      <point x="211" y="154" type="curve" smooth="yes" name="hr03"/>
      <point x="160" y="154"/>
      <point x="127" y="178"/>
      <point x="100" y="209" type="curve"/>
      <point x="20" y="209" type="line"/>
      <point x="20" y="6" type="line"/>
      <point x="47" y="-8"/>
      <point x="102" y="-25"/>
      <point x="145" y="-25" type="curve" smooth="yes"/>
      <point x="242" y="-25"/>
      <point x="356" y="117"/>
      <point x="416" y="182" type="curve"/>
      <point x="416" y="0" type="line" name="hr04"/>
      <point x="500" y="0" type="line"/>
    </contour>
    <contour>
      <point x="387" y="1100" type="move" name="U"/>
    </contour>
    <contour>
      <point x="387" y="-100" type="move" name="L"/>
    </contour>
  </outline>
</glyph>
<glyph name="LtnSmTurnedRLngLeg" format="1">
  <advance width="801"/>
  <unicode hex="027A"/>
  <outline>
    <contour>
      <point x="754" y="78" type="line" name="hr01"/>
      <point x="754" y="145" type="line" name="hr02"/>
      <point x="606" y="145" type="line"/>
      <point x="606" y="1509" type="line"/>
      <point x="522" y="1509" type="line"/>
      <point x="260" y="1430" type="line" name="hr03"/>
      <point x="260" y="1362" type="line" name="hr04"/>
      <point x="416" y="1362" type="line"/>
      <point x="416" y="281" type="line"/>
      <point x="346" y="201"/>
      <point x="276" y="154"/>
      <point x="211" y="154" type="curve" smooth="yes"/>
      <point x="160" y="154"/>
      <point x="127" y="178"/>
      <point x="100" y="209" type="curve"/>
      <point x="20" y="209" type="line"/>
      <point x="20" y="6" type="line"/>
      <point x="47" y="-8"/>
      <point x="102" y="-25"/>
      <point x="145" y="-25" type="curve" smooth="yes"/>
      <point x="242" y="-25"/>
      <point x="356" y="117"/>
      <point x="416" y="182" type="curve"/>
      <point x="416" y="0" type="line" name="hr05"/>
      <point x="500" y="0" type="line"/>
    </contour>
    <contour>
      <point x="387" y="1540" type="move" name="U"/>
    </contour>
    <contour>
      <point x="387" y="-100" type="move" name="L"/>
    </contour>
  </outline>
</glyph>
<glyph name="LtnSmRLngLeg" format="1">
  <advance width="801"/>
  <unicode hex="027C"/>
  <outline>
    <contour>
      <point x="780" y="778" type="line" name="hr01"/>
      <point x="780" y="981" type="line"/>
      <point x="754" y="995"/>
      <point x="698" y="1012"/>
      <point x="655" y="1012" type="curve" smooth="yes"/>
      <point x="559" y="1012"/>
      <point x="444" y="870"/>
      <point x="385" y="805" type="curve"/>
      <point x="385" y="987" type="line" name="hr02"/>
      <point x="301" y="987" type="line"/>
      <point x="47" y="909" type="line" name="hr03"/>
      <point x="47" y="842" type="line" name="hr04"/>
      <point x="195" y="842" type="line"/>
      <point x="195" y="-315" type="line" smooth="yes"/>
      <point x="195" y="-340"/>
      <point x="176" y="-358"/>
      <point x="152" y="-360" type="curve" smooth="yes"/>
      <point x="51" y="-369" type="line"/>
      <point x="51" y="-446" type="line"/>
      <point x="563" y="-446" type="line"/>
      <point x="563" y="-367" type="line"/>
      <point x="428" y="-360" type="line" smooth="yes"/>
      <point x="403" y="-358"/>
      <point x="385" y="-340"/>
      <point x="385" y="-315" type="curve" smooth="yes"/>
      <point x="385" y="707" type="line"/>
      <point x="455" y="786"/>
      <point x="524" y="834"/>
      <point x="590" y="834" type="curve" smooth="yes" name="hr05"/>
      <point x="641" y="834"/>
      <point x="674" y="809"/>
      <point x="700" y="778" type="curve"/>
    </contour>
    <contour>
      <point x="413" y="1100" type="move" name="U"/>
    </contour>
    <contour>
      <point x="290" y="-500" type="move" name="L"/>
    </contour>
  </outline>
</glyph>
<glyph name="LtnSmRHookTail" format="1">
  <advance width="801"/>
  <unicode hex="027D"/>
  <outline>
    <contour>
      <point x="780" y="778" type="line" name="hr01"/>
      <point x="780" y="981" type="line"/>
      <point x="754" y="995"/>
      <point x="698" y="1012"/>
      <point x="655" y="1012" type="curve" smooth="yes"/>
      <point x="559" y="1012"/>
      <point x="444" y="870"/>
      <point x="385" y="805" type="curve"/>
      <point x="385" y="987" type="line" name="hr02"/>
      <point x="301" y="987" type="line"/>
      <point x="47" y="909" type="line" name="hr03"/>
      <point x="47" y="842" type="line" name="hr04"/>
      <point x="195" y="842" type="line"/>
      <point x="195" y="-53"/>
      <point x="195" y="104"/>
      <point x="195" y="4" type="curve" smooth="yes"/>
      <point x="195" y="-272"/>
      <point x="272" y="-469"/>
      <point x="547" y="-469" type="curve" smooth="yes"/>
      <point x="629" y="-469"/>
      <point x="739" y="-408"/>
      <point x="739" y="-332" type="curve" smooth="yes"/>
      <point x="739" y="-260"/>
      <point x="694" y="-229"/>
      <point x="653" y="-213" type="curve"/>
      <point x="483" y="-375" type="line" name="hr05"/>
      <point x="391" y="-322"/>
      <point x="385" y="-104"/>
      <point x="385" y="-14" type="curve" smooth="yes"/>
      <point x="385" y="106"/>
      <point x="385" y="-29"/>
      <point x="385" y="707" type="curve"/>
      <point x="455" y="786"/>
      <point x="524" y="834"/>
      <point x="590" y="834" type="curve" smooth="yes"/>
      <point x="641" y="834"/>
      <point x="674" y="809"/>
      <point x="700" y="778" type="curve"/>
    </contour>
    <contour>
      <point x="413" y="1100" type="move" name="U"/>
    </contour>
    <contour>
      <point x="413" y="-500" type="move" name="L"/>
    </contour>
  </outline>
</glyph>
<glyph name="LtnSmCapInvR" format="1">
  <advance width="1071"/>
  <unicode hex="0281"/>
  <outline>
    <contour>
      <point x="1061" y="911" type="curve" name="hr01"/>
      <point x="1061" y="987" type="line" name="hr02"/>
      <point x="1038" y="989"/>
      <point x="1012" y="1012"/>
      <point x="963" y="1012" type="curve" smooth="yes" name="hr03"/>
      <point x="750" y="1012"/>
      <point x="715" y="881"/>
      <point x="680" y="770" type="curve" smooth="yes"/>
      <point x="664" y="719"/>
      <point x="649" y="662"/>
      <point x="610" y="621" type="curve" smooth="yes"/>
      <point x="575" y="582"/>
      <point x="520" y="555"/>
      <point x="420" y="555" type="curve" smooth="yes"/>
      <point x="395" y="555"/>
      <point x="369" y="555"/>
      <point x="354" y="555" type="curve"/>
      <point x="354" y="879" type="line" smooth="yes" name="hr04"/>
      <point x="354" y="911"/>
      <point x="432" y="903"/>
      <point x="477" y="907" type="curve"/>
      <point x="477" y="987" type="line"/>
      <point x="49" y="987" type="line"/>
      <point x="49" y="907" type="line"/>
      <point x="96" y="903"/>
      <point x="172" y="911"/>
      <point x="172" y="879" type="curve" smooth="yes"/>
      <point x="172" y="109" type="line" smooth="yes"/>
      <point x="172" y="76"/>
      <point x="96" y="84"/>
      <point x="49" y="80" type="curve"/>
      <point x="49" y="0" type="line" name="hr05"/>
      <point x="487" y="0" type="line" smooth="yes"/>
      <point x="737" y="0"/>
      <point x="899" y="66"/>
      <point x="899" y="264" type="curve" smooth="yes"/>
      <point x="899" y="408"/>
      <point x="784" y="475"/>
      <point x="659" y="506" type="curve"/>
      <point x="750" y="532"/>
      <point x="803" y="582"/>
      <point x="834" y="666" type="curve" smooth="yes"/>
      <point x="842" y="688"/>
      <point x="848" y="713"/>
      <point x="854" y="735" type="curve" smooth="yes"/>
      <point x="879" y="829"/>
      <point x="883" y="911"/>
    </contour>
    <contour>
      <point x="700" y="246" type="curve" smooth="yes" name="hr07"/>
      <point x="700" y="131"/>
      <point x="627" y="66"/>
      <point x="422" y="66" type="curve" smooth="yes"/>
      <point x="422" y="66"/>
      <point x="375" y="66"/>
      <point x="354" y="66" type="curve"/>
      <point x="354" y="440" type="line"/>
      <point x="373" y="442"/>
      <point x="410" y="442"/>
      <point x="428" y="442" type="curve" smooth="yes"/>
      <point x="608" y="442"/>
      <point x="700" y="393"/>
    </contour>
    <contour>
      <point x="555" y="1100" type="move" name="U"/>
    </contour>
    <contour>
      <point x="555" y="-100" type="move" name="L"/>
    </contour>
  </outline>
</glyph>
<glyph name="LtnSmSHook" format="1">
  <advance width="815"/>
  <unicode hex="0282"/>
  <outline>
    <contour>
      <point x="745" y="297" type="curve" smooth="yes" name="hr01"/>
      <point x="745" y="588"/>
      <point x="270" y="549"/>
      <point x="270" y="776" type="curve" smooth="yes" name="hr02"/>
      <point x="270" y="856"/>
      <point x="324" y="913"/>
      <point x="436" y="913" type="curve" smooth="yes"/>
      <point x="500" y="913"/>
      <point x="563" y="889"/>
      <point x="592" y="866" type="curve" name="hr03"/>
      <point x="608" y="723" type="line"/>
      <point x="715" y="723" type="line"/>
      <point x="715" y="965" type="line"/>
      <point x="674" y="983"/>
      <point x="573" y="1012"/>
      <point x="453" y="1012" type="curve" smooth="yes"/>
      <point x="217" y="1012"/>
      <point x="84" y="897"/>
      <point x="84" y="715" type="curve" smooth="yes"/>
      <point x="84" y="424"/>
      <point x="565" y="463"/>
      <point x="565" y="227" type="curve" smooth="yes" name="hr04"/>
      <point x="565" y="145"/>
      <point x="498" y="68"/>
      <point x="381" y="68" type="curve" smooth="yes"/>
      <point x="301" y="68"/>
      <point x="240" y="98"/>
      <point x="199" y="125" type="curve" name="hr05"/>
      <point x="174" y="299" type="line"/>
      <point x="70" y="299" type="line"/>
      <point x="70" y="-233" type="line" smooth="yes"/>
      <point x="70" y="-389"/>
      <point x="158" y="-469"/>
      <point x="334" y="-469" type="curve" smooth="yes"/>
      <point x="455" y="-469"/>
      <point x="545" y="-403"/>
      <point x="545" y="-342" type="curve" smooth="yes"/>
      <point x="545" y="-250"/>
      <point x="467" y="-229"/>
      <point x="455" y="-221" type="curve"/>
      <point x="291" y="-365" type="line"/>
      <point x="219" y="-365"/>
      <point x="174" y="-332"/>
      <point x="174" y="-244" type="curve" smooth="yes"/>
      <point x="174" y="10" type="line"/>
      <point x="215" y="-6"/>
      <point x="256" y="-25"/>
      <point x="354" y="-25" type="curve" smooth="yes"/>
      <point x="598" y="-25"/>
      <point x="745" y="96"/>
    </contour>
    <contour>
      <point x="407" y="1100" type="move" name="U"/>
    </contour>
    <contour>
      <point x="407" y="-500" type="move" name="L"/>
    </contour>
  </outline>
</glyph>
<glyph name="LtnSmDotlessJStrkHook" format="1">
  <advance width="668"/>
  <unicode hex="0284"/>
  <outline>
    <contour>
      <point x="813" y="1386" type="curve" smooth="yes" name="hr01"/>
      <point x="813" y="1450"/>
      <point x="756" y="1509"/>
      <point x="639" y="1509" type="curve" smooth="yes"/>
      <point x="344" y="1509"/>
      <point x="219" y="1274"/>
      <point x="219" y="1024" type="curve" smooth="yes"/>
      <point x="219" y="670" type="line"/>
      <point x="55" y="670" type="line"/>
      <point x="55" y="567" type="line"/>
      <point x="219" y="567" type="line"/>
      <point x="219" y="-63" type="line" smooth="yes"/>
      <point x="219" y="-256"/>
      <point x="160" y="-340"/>
      <point x="100" y="-373" type="curve" name="hr02"/>
      <point x="-88" y="-238" type="line"/>
      <point x="-88" y="-238"/>
      <point x="-182" y="-262"/>
      <point x="-182" y="-346" type="curve" smooth="yes"/>
      <point x="-182" y="-412"/>
      <point x="-123" y="-469"/>
      <point x="-6" y="-469" type="curve" smooth="yes"/>
      <point x="233" y="-469"/>
      <point x="406" y="-256"/>
      <point x="406" y="-47" type="curve" smooth="yes"/>
      <point x="406" y="-47"/>
      <point x="406" y="559"/>
      <point x="406" y="567" type="curve"/>
      <point x="573" y="567" type="line"/>
      <point x="573" y="670" type="line"/>
      <point x="410" y="670" type="line"/>
      <point x="410" y="1102" type="line" smooth="yes"/>
      <point x="410" y="1282"/>
      <point x="471" y="1378"/>
      <point x="530" y="1409" type="curve"/>
      <point x="719" y="1276" type="line"/>
      <point x="733" y="1280"/>
      <point x="813" y="1303"/>
    </contour>
    <contour>
      <point x="315" y="1540" type="move" name="U"/>
    </contour>
    <contour>
      <point x="315" y="-500" type="move" name="L"/>
    </contour>
  </outline>
</glyph>
<glyph name="LtnSmEshCurl" format="1">
  <advance width="727"/>
  <unicode hex="0286"/>
  <outline>
    <contour>
      <point x="727" y="1407" type="curve" smooth="yes" name="hr01"/>
      <point x="727" y="1462"/>
      <point x="676" y="1509"/>
      <point x="549" y="1509" type="curve" smooth="yes"/>
      <point x="301" y="1509"/>
      <point x="166" y="1323"/>
      <point x="195" y="1090" type="curve" smooth="yes"/>
      <point x="342" y="-76" type="line"/>
      <point x="301" y="-61"/>
      <point x="258" y="-53"/>
      <point x="211" y="-53" type="curve" smooth="yes"/>
      <point x="88" y="-53"/>
      <point x="-23" y="-154"/>
      <point x="-23" y="-276" type="curve" smooth="yes"/>
      <point x="-23" y="-381"/>
      <point x="61" y="-469"/>
      <point x="186" y="-469" type="curve" smooth="yes"/>
      <point x="348" y="-469"/>
      <point x="440" y="-406"/>
      <point x="485" y="-309" type="curve"/>
      <point x="555" y="-385"/>
      <point x="600" y="-461"/>
      <point x="600" y="-461" type="curve" name="hr02"/>
      <point x="700" y="-420" type="line"/>
      <point x="664" y="-356"/>
      <point x="616" y="-262"/>
      <point x="532" y="-184" type="curve" name="hr03"/>
      <point x="543" y="-111"/>
      <point x="526" y="-14"/>
      <point x="518" y="59" type="curve" smooth="yes"/>
      <point x="385" y="1110" type="line" name="hr04"/>
      <point x="362" y="1303"/>
      <point x="385" y="1350"/>
      <point x="473" y="1395" type="curve"/>
      <point x="651" y="1290" type="line"/>
      <point x="651" y="1290"/>
      <point x="727" y="1315"/>
    </contour>
    <contour>
      <point x="346" y="-193" type="curve" name="hr06"/>
      <point x="338" y="-307"/>
      <point x="289" y="-373"/>
      <point x="213" y="-373" type="curve" smooth="yes"/>
      <point x="147" y="-373"/>
      <point x="111" y="-328"/>
      <point x="111" y="-256" type="curve" smooth="yes"/>
      <point x="111" y="-193"/>
      <point x="160" y="-156"/>
      <point x="223" y="-156" type="curve" smooth="yes"/>
      <point x="264" y="-156"/>
      <point x="307" y="-170"/>
    </contour>
    <contour>
      <point x="352" y="1540" type="move" name="U"/>
    </contour>
    <contour>
      <point x="352" y="-500" type="move" name="L"/>
    </contour>
  </outline>
</glyph>
<glyph name="LtnSmUBar" format="1">
  <advance width="1165"/>
  <unicode hex="0289"/>
  <outline>
    <contour>
      <point x="1122" y="0" type="line" name="hr01"/>
      <point x="1122" y="80" type="line"/>
      <point x="1032" y="88" type="line" smooth="yes"/>
      <point x="1008" y="90"/>
      <point x="987" y="109"/>
      <point x="987" y="133" type="curve" smooth="yes"/>
      <point x="987" y="453" type="line"/>
      <point x="1122" y="453" type="line"/>
      <point x="1122" y="555" type="line"/>
      <point x="987" y="555" type="line"/>
      <point x="987" y="1012" type="line"/>
      <point x="905" y="1012" type="line"/>
      <point x="655" y="934" type="line" name="hr02"/>
      <point x="655" y="864" type="line" name="hr03"/>
      <point x="797" y="864" type="line"/>
      <point x="797" y="555" type="line"/>
      <point x="377" y="555" type="line"/>
      <point x="377" y="1012" type="line"/>
      <point x="295" y="1012" type="line"/>
      <point x="43" y="934" type="line" name="hr04"/>
      <point x="43" y="864" type="line" name="hr05"/>
      <point x="186" y="864" type="line"/>
      <point x="186" y="555" type="line"/>
      <point x="43" y="555" type="line"/>
      <point x="43" y="453" type="line"/>
      <point x="186" y="453" type="line"/>
      <point x="186" y="307" type="line" smooth="yes"/>
      <point x="186" y="76"/>
      <point x="291" y="-25"/>
      <point x="467" y="-25" type="curve" smooth="yes"/>
      <point x="588" y="-25"/>
      <point x="727" y="61"/>
      <point x="797" y="115" type="curve"/>
      <point x="797" y="0" type="line" name="hr06"/>
    </contour>
    <contour>
      <point x="797" y="176" type="line" name="hr07"/>
      <point x="748" y="152"/>
      <point x="659" y="117"/>
      <point x="575" y="117" type="curve" smooth="yes"/>
      <point x="430" y="117"/>
      <point x="377" y="201"/>
      <point x="377" y="346" type="curve" smooth="yes"/>
      <point x="377" y="453" type="line"/>
      <point x="797" y="453" type="line"/>
    </contour>
    <contour>
      <point x="582" y="1100" type="move" name="U"/>
    </contour>
    <contour>
      <point x="582" y="-100" type="move" name="L"/>
    </contour>
    <contour>
      <point x="1165" y="1000" type="move" name="R"/>
    </contour>
    <contour>
      <point x="681" y="0" type="move" name="O"/>
    </contour>
    <contour>
      <point x="580" y="0" type="move" name="H"/>
    </contour>
  </outline>
</glyph>
<glyph name="LtnSmVHook" format="1">
  <advance width="1110"/>
  <unicode hex="028B"/>
  <outline>
    <contour>
      <point x="1040" y="539" type="curve" smooth="yes" name="hr01"/>
      <point x="1040" y="748"/>
      <point x="924" y="1012"/>
      <point x="721" y="1012" type="curve" smooth="yes"/>
      <point x="659" y="1012"/>
      <point x="602" y="967"/>
      <point x="602" y="901" type="curve" smooth="yes"/>
      <point x="602" y="858"/>
      <point x="635" y="823"/>
      <point x="635" y="823" type="curve"/>
      <point x="819" y="823" type="line"/>
      <point x="889" y="778"/>
      <point x="940" y="653"/>
      <point x="940" y="563" type="curve" smooth="yes"/>
      <point x="940" y="313"/>
      <point x="825" y="111"/>
      <point x="664" y="111" type="curve" smooth="yes"/>
      <point x="526" y="111"/>
      <point x="377" y="176"/>
      <point x="377" y="334" type="curve" smooth="yes"/>
      <point x="377" y="1012" type="line"/>
      <point x="293" y="1012" type="line"/>
      <point x="43" y="934" type="line" name="hr02"/>
      <point x="43" y="864" type="line" name="hr03"/>
      <point x="186" y="864" type="line"/>
      <point x="186" y="319" type="line" smooth="yes"/>
      <point x="186" y="68"/>
      <point x="383" y="-25"/>
      <point x="569" y="-25" type="curve" smooth="yes"/>
      <point x="866" y="-25"/>
      <point x="1040" y="238"/>
    </contour>
    <contour>
      <point x="541" y="1100" type="move" name="U"/>
    </contour>
    <contour>
      <point x="541" y="-100" type="move" name="L"/>
    </contour>
    <contour>
      <point x="751" y="0" type="move" name="O"/>
    </contour>
    <contour>
      <point x="580" y="0" type="move" name="H"/>
    </contour>
  </outline>
</glyph>
<glyph name="LtnSmTurnedV" format="1">
  <advance width="1083"/>
  <unicode hex="028C"/>
  <outline>
    <contour>
      <point x="1063" y="0" type="line" name="hr01"/>
      <point x="1063" y="80" type="line" name="hr02"/>
      <point x="950" y="92" type="line"/>
      <point x="621" y="987" type="line"/>
      <point x="487" y="987" type="line"/>
      <point x="129" y="92" type="line"/>
      <point x="20" y="80" type="line" name="hr03"/>
      <point x="20" y="0" type="line" name="hr04"/>
      <point x="379" y="0" type="line"/>
      <point x="379" y="80" type="line"/>
      <point x="287" y="86" type="line" smooth="yes" name="hr05"/>
      <point x="264" y="88"/>
      <point x="250" y="111"/>
      <point x="258" y="131" type="curve" smooth="yes"/>
      <point x="510" y="772" type="line"/>
      <point x="739" y="131" type="line" smooth="yes"/>
      <point x="748" y="109"/>
      <point x="731" y="88"/>
      <point x="709" y="86" type="curve" smooth="yes"/>
      <point x="610" y="80" type="line" name="hr06"/>
      <point x="610" y="0" type="line"/>
    </contour>
    <contour>
      <point x="541" y="1100" type="move" name="U"/>
    </contour>
    <contour>
      <point x="541" y="-100" type="move" name="L"/>
    </contour>
    <contour>
      <point x="1083" y="1000" type="move" name="R"/>
    </contour>
    <contour>
      <point x="991" y="0" type="move" name="O"/>
    </contour>
    <contour>
      <point x="541" y="0" type="move" name="H"/>
    </contour>
  </outline>
</glyph>
<glyph name="LtnSmTurnedY" format="1">
  <advance width="1085"/>
  <unicode hex="028E"/>
  <outline>
    <contour>
      <point x="1065" y="0" type="line" name="hr01"/>
      <point x="1065" y="80" type="line" name="hr02"/>
      <point x="952" y="92" type="line"/>
      <point x="604" y="985" type="line"/>
      <point x="635" y="1075"/>
      <point x="678" y="1186"/>
      <point x="745" y="1253" type="curve"/>
      <point x="938" y="1165" type="line"/>
      <point x="985" y="1204"/>
      <point x="1004" y="1241"/>
      <point x="1004" y="1288" type="curve" smooth="yes"/>
      <point x="1004" y="1350"/>
      <point x="950" y="1407"/>
      <point x="854" y="1407" type="curve" smooth="yes"/>
      <point x="784" y="1407"/>
      <point x="725" y="1376"/>
      <point x="676" y="1327" type="curve" smooth="yes"/>
      <point x="590" y="1241"/>
      <point x="547" y="1116"/>
      <point x="520" y="1051" type="curve" smooth="yes"/>
      <point x="127" y="92" type="line"/>
      <point x="20" y="80" type="line" name="hr03"/>
      <point x="20" y="0" type="line" name="hr04"/>
      <point x="385" y="0" type="line"/>
      <point x="385" y="80" type="line"/>
      <point x="289" y="86" type="line" smooth="yes" name="hr05"/>
      <point x="266" y="88"/>
      <point x="252" y="111"/>
      <point x="260" y="131" type="curve" smooth="yes"/>
      <point x="504" y="735" type="line"/>
      <point x="741" y="131" type="line" smooth="yes"/>
      <point x="750" y="109"/>
      <point x="733" y="88"/>
      <point x="711" y="86" type="curve" smooth="yes"/>
      <point x="612" y="80" type="line" name="hr06"/>
      <point x="612" y="0" type="line"/>
    </contour>
    <contour>
      <point x="542" y="1540" type="move" name="U"/>
    </contour>
    <contour>
      <point x="542" y="-100" type="move" name="L"/>
    </contour>
  </outline>
</glyph>
<glyph name="LtnSmEzhCurl" format="1">
  <advance width="1069"/>
  <unicode hex="0293"/>
  <outline>
    <contour>
      <point x="999" y="10" type="curve" smooth="yes" name="hr01"/>
      <point x="999" y="227"/>
      <point x="797" y="406"/>
      <point x="547" y="406" type="curve"/>
      <point x="944" y="850" type="line"/>
      <point x="944" y="987" type="line"/>
      <point x="121" y="987" type="line" name="hr02"/>
      <point x="121" y="612" type="line"/>
      <point x="227" y="612" type="line"/>
      <point x="248" y="768" type="line" smooth="yes"/>
      <point x="250" y="786"/>
      <point x="266" y="811"/>
      <point x="287" y="811" type="curve" smooth="yes"/>
      <point x="764" y="811" type="line"/>
      <point x="354" y="360" type="line"/>
      <point x="410" y="303" type="line"/>
      <point x="420" y="311"/>
      <point x="440" y="326"/>
      <point x="487" y="326" type="curve" smooth="yes"/>
      <point x="616" y="326"/>
      <point x="788" y="215"/>
      <point x="788" y="12" type="curve" smooth="yes"/>
      <point x="788" y="-74"/>
      <point x="750" y="-168"/>
      <point x="686" y="-240" type="curve"/>
      <point x="604" y="-131"/>
      <point x="481" y="-18"/>
      <point x="291" y="-18" type="curve" smooth="yes"/>
      <point x="170" y="-18"/>
      <point x="43" y="-88"/>
      <point x="43" y="-213" type="curve" smooth="yes" name="hr03"/>
      <point x="43" y="-401"/>
      <point x="170" y="-469"/>
      <point x="446" y="-469" type="curve" smooth="yes"/>
      <point x="530" y="-469"/>
      <point x="608" y="-440"/>
      <point x="680" y="-410" type="curve"/>
      <point x="713" y="-461"/>
      <point x="731" y="-498"/>
      <point x="731" y="-498" type="curve" name="hr04"/>
      <point x="815" y="-446" type="line"/>
      <point x="801" y="-424"/>
      <point x="786" y="-397"/>
      <point x="768" y="-365" type="curve" name="hr05"/>
      <point x="907" y="-279"/>
      <point x="999" y="-139"/>
    </contour>
    <contour>
      <point x="604" y="-307" type="curve"/>
      <point x="559" y="-334"/>
      <point x="508" y="-365"/>
      <point x="453" y="-365" type="curve" smooth="yes"/>
      <point x="373" y="-365"/>
      <point x="201" y="-334"/>
      <point x="201" y="-221" type="curve" smooth="yes"/>
      <point x="201" y="-166"/>
      <point x="252" y="-125"/>
      <point x="309" y="-125" type="curve" smooth="yes"/>
      <point x="424" y="-125"/>
      <point x="528" y="-215"/>
    </contour>
    <contour>
      <point x="521" y="1100" type="move" name="U"/>
    </contour>
    <contour>
      <point x="521" y="-500" type="move" name="L"/>
    </contour>
  </outline>
</glyph>
<glyph name="LtnSmDzDigraph" format="1">
  <advance width="1657"/>
  <unicode hex="02A3"/>
  <outline>
    <contour>
      <point x="1585" y="0" type="line" name="hr01"/>
      <point x="1585" y="309" type="line"/>
      <point x="1475" y="309" type="line"/>
      <point x="1452" y="147" type="line" smooth="yes"/>
      <point x="1450" y="127"/>
      <point x="1427" y="98"/>
      <point x="1407" y="98" type="curve" smooth="yes"/>
      <point x="993" y="98" type="line"/>
      <point x="1556" y="903" type="line"/>
      <point x="1556" y="985" type="line"/>
      <point x="971" y="985" type="line"/>
      <point x="971" y="1509" type="line"/>
      <point x="889" y="1509" type="line"/>
      <point x="625" y="1430" type="line" name="hr02"/>
      <point x="625" y="1362" type="line" name="hr03"/>
      <point x="780" y="1362" type="line"/>
      <point x="780" y="987" type="line"/>
      <point x="748" y="995"/>
      <point x="659" y="1012"/>
      <point x="594" y="1012" type="curve" smooth="yes" name="hr04"/>
      <point x="242" y="1012"/>
      <point x="70" y="745"/>
      <point x="70" y="467" type="curve" smooth="yes"/>
      <point x="70" y="236"/>
      <point x="190" y="-25"/>
      <point x="465" y="-25" type="curve" smooth="yes"/>
      <point x="584" y="-25"/>
      <point x="686" y="37"/>
      <point x="780" y="109" type="curve"/>
      <point x="780" y="0" type="line" name="hr05"/>
    </contour>
    <contour>
      <point x="1321" y="891" type="line"/>
      <point x="971" y="383" type="line"/>
      <point x="971" y="891" type="line"/>
    </contour>
    <contour>
      <point x="780" y="186" type="line" name="hr06"/>
      <point x="727" y="152"/>
      <point x="653" y="115"/>
      <point x="571" y="115" type="curve" smooth="yes"/>
      <point x="383" y="115"/>
      <point x="272" y="279"/>
      <point x="272" y="502" type="curve" smooth="yes"/>
      <point x="272" y="750"/>
      <point x="406" y="913"/>
      <point x="608" y="913" type="curve" smooth="yes"/>
      <point x="668" y="913"/>
      <point x="745" y="895"/>
      <point x="780" y="883" type="curve"/>
    </contour>
    <contour>
      <point x="843" y="1580" type="move" name="U"/>
    </contour>
    <contour>
      <point x="827" y="-100" type="move" name="L"/>
    </contour>
  </outline>
</glyph>
<glyph name="LtnSmDezhDigraph" format="1">
  <advance width="1712"/>
  <unicode hex="02A4"/>
  <outline>
    <contour>
      <point x="1642" y="10" type="curve" smooth="yes" name="hr01"/>
      <point x="1642" y="227"/>
      <point x="1460" y="406"/>
      <point x="1210" y="406" type="curve"/>
      <point x="1608" y="850" type="line"/>
      <point x="1608" y="987" type="line"/>
      <point x="971" y="987" type="line"/>
      <point x="971" y="1509" type="line"/>
      <point x="889" y="1509" type="line"/>
      <point x="625" y="1430" type="line" name="hr02"/>
      <point x="625" y="1362" type="line" name="hr03"/>
      <point x="778" y="1362" type="line"/>
      <point x="780" y="987" type="line"/>
      <point x="748" y="995"/>
      <point x="659" y="1012"/>
      <point x="594" y="1012" type="curve" smooth="yes" name="hr04"/>
      <point x="242" y="1012"/>
      <point x="70" y="745"/>
      <point x="70" y="467" type="curve" smooth="yes"/>
      <point x="70" y="236"/>
      <point x="190" y="-25"/>
      <point x="465" y="-25" type="curve" smooth="yes"/>
      <point x="584" y="-25"/>
      <point x="686" y="37"/>
      <point x="780" y="109" type="curve"/>
      <point x="780" y="0" type="line" name="hr05"/>
      <point x="848" y="0" type="line"/>
      <point x="893" y="98"/>
      <point x="1065" y="315"/>
      <point x="1198" y="315" type="curve" smooth="yes"/>
      <point x="1329" y="315"/>
      <point x="1432" y="215"/>
      <point x="1432" y="12" type="curve" smooth="yes"/>
      <point x="1432" y="-154"/>
      <point x="1329" y="-375"/>
      <point x="1137" y="-375" type="curve" smooth="yes"/>
      <point x="1071" y="-375"/>
      <point x="1014" y="-352"/>
      <point x="961" y="-324" type="curve"/>
      <point x="895" y="-133" type="line"/>
      <point x="877" y="-121"/>
      <point x="846" y="-117"/>
      <point x="829" y="-117" type="curve" smooth="yes"/>
      <point x="748" y="-117"/>
      <point x="707" y="-182"/>
      <point x="707" y="-238" type="curve" smooth="yes"/>
      <point x="707" y="-336"/>
      <point x="854" y="-469"/>
      <point x="1130" y="-469" type="curve" smooth="yes"/>
      <point x="1427" y="-469"/>
      <point x="1642" y="-238"/>
    </contour>
    <contour>
      <point x="1427" y="811" type="line"/>
      <point x="971" y="309" type="line"/>
      <point x="971" y="811" type="line"/>
    </contour>
    <contour>
      <point x="780" y="186" type="line"/>
      <point x="727" y="152"/>
      <point x="653" y="115"/>
      <point x="571" y="115" type="curve" smooth="yes"/>
      <point x="383" y="115"/>
      <point x="272" y="279"/>
      <point x="272" y="502" type="curve" smooth="yes"/>
      <point x="272" y="750"/>
      <point x="406" y="913"/>
      <point x="608" y="913" type="curve" smooth="yes" name="hr07"/>
      <point x="668" y="913"/>
      <point x="745" y="895"/>
      <point x="780" y="883" type="curve"/>
    </contour>
    <contour>
      <point x="844" y="1580" type="move" name="U"/>
    </contour>
    <contour>
      <point x="856" y="-500" type="move" name="L"/>
    </contour>
  </outline>
</glyph>
<glyph name="LtnSmDzDigraphCurl" format="1">
  <advance width="1657"/>
  <unicode hex="02A5"/>
  <outline>
    <contour>
      <point x="1608" y="268" type="curve" smooth="yes" name="hr01"/>
      <point x="1608" y="348"/>
      <point x="1540" y="414"/>
      <point x="1460" y="414" type="curve" smooth="yes"/>
      <point x="1292" y="414"/>
      <point x="1202" y="293"/>
      <point x="1151" y="98" type="curve"/>
      <point x="993" y="98" type="line"/>
      <point x="1556" y="903" type="line"/>
      <point x="1556" y="985" type="line"/>
      <point x="971" y="985" type="line"/>
      <point x="971" y="1509" type="line"/>
      <point x="889" y="1509" type="line"/>
      <point x="625" y="1430" type="line" name="hr02"/>
      <point x="625" y="1362" type="line" name="hr03"/>
      <point x="780" y="1362" type="line"/>
      <point x="780" y="987" type="line"/>
      <point x="748" y="995"/>
      <point x="659" y="1012"/>
      <point x="594" y="1012" type="curve" smooth="yes" name="hr04"/>
      <point x="242" y="1012"/>
      <point x="70" y="745"/>
      <point x="70" y="467" type="curve" smooth="yes"/>
      <point x="70" y="236"/>
      <point x="190" y="-25"/>
      <point x="465" y="-25" type="curve" smooth="yes"/>
      <point x="584" y="-25"/>
      <point x="686" y="37"/>
      <point x="780" y="109" type="curve"/>
      <point x="780" y="0" type="line" name="hr05"/>
      <point x="1128" y="0" type="line"/>
      <point x="1116" y="-80"/>
      <point x="1110" y="-168"/>
      <point x="1112" y="-264" type="curve"/>
      <point x="1200" y="-264" type="line"/>
      <point x="1202" y="-195"/>
      <point x="1210" y="-96"/>
      <point x="1227" y="0" type="curve"/>
      <point x="1343" y="0" type="line" smooth="yes"/>
      <point x="1477" y="0"/>
      <point x="1608" y="115"/>
    </contour>
    <contour>
      <point x="1321" y="891" type="line"/>
      <point x="971" y="383" type="line"/>
      <point x="971" y="891" type="line"/>
    </contour>
    <contour>
      <point x="1509" y="264" type="curve" smooth="yes"/>
      <point x="1509" y="176"/>
      <point x="1446" y="98"/>
      <point x="1327" y="98" type="curve" smooth="yes"/>
      <point x="1253" y="98" type="line"/>
      <point x="1288" y="221"/>
      <point x="1348" y="322"/>
      <point x="1442" y="322" type="curve" smooth="yes"/>
      <point x="1477" y="322"/>
      <point x="1509" y="299"/>
    </contour>
    <contour>
      <point x="780" y="186" type="line" name="hr07"/>
      <point x="727" y="152"/>
      <point x="653" y="115"/>
      <point x="571" y="115" type="curve" smooth="yes"/>
      <point x="383" y="115"/>
      <point x="272" y="279"/>
      <point x="272" y="502" type="curve" smooth="yes"/>
      <point x="272" y="750"/>
      <point x="406" y="913"/>
      <point x="608" y="913" type="curve" smooth="yes"/>
      <point x="668" y="913"/>
      <point x="745" y="895"/>
      <point x="780" y="883" type="curve"/>
    </contour>
    <contour>
      <point x="839" y="1580" type="move" name="U"/>
    </contour>
    <contour>
      <point x="839" y="-100" type="move" name="L"/>
    </contour>
  </outline>
</glyph>
<glyph name="LtnSmLSDigraph" format="1">
  <advance width="1225"/>
  <unicode hex="02AA"/>
  <outline>
    <contour>
      <point x="553" y="0" type="line" name="hr01"/>
      <point x="609" y="-14"/>
      <point x="685" y="-25"/>
      <point x="764" y="-25" type="curve" smooth="yes" name="hr02"/>
      <point x="1008" y="-25"/>
      <point x="1155" y="96"/>
      <point x="1155" y="297" type="curve" smooth="yes"/>
      <point x="1155" y="430"/>
      <point x="1051" y="502"/>
      <point x="908" y="565" type="curve"/>
      <point x="736" y="645"/>
      <point x="680" y="684"/>
      <point x="680" y="776" type="curve" smooth="yes"/>
      <point x="680" y="856"/>
      <point x="734" y="913"/>
      <point x="846" y="913" type="curve" smooth="yes"/>
      <point x="910" y="913"/>
      <point x="973" y="889"/>
      <point x="1002" y="866" type="curve" name="hr03"/>
      <point x="1018" y="723" type="line"/>
      <point x="1125" y="723" type="line"/>
      <point x="1125" y="965" type="line"/>
      <point x="1084" y="983"/>
      <point x="983" y="1012"/>
      <point x="863" y="1012" type="curve" smooth="yes"/>
      <point x="627" y="1012"/>
      <point x="494" y="897"/>
      <point x="494" y="715" type="curve" smooth="yes"/>
      <point x="494" y="592"/>
      <point x="576" y="526"/>
      <point x="725" y="455" type="curve" smooth="yes"/>
      <point x="883" y="379"/>
      <point x="975" y="342"/>
      <point x="975" y="227" type="curve" smooth="yes" name="hr04"/>
      <point x="975" y="145"/>
      <point x="908" y="68"/>
      <point x="791" y="68" type="curve" smooth="yes"/>
      <point x="711" y="68"/>
      <point x="650" y="98"/>
      <point x="609" y="125" type="curve"/>
      <point x="584" y="299" type="line"/>
      <point x="480" y="299" type="line"/>
      <point x="480" y="84" type="line" name="hr05"/>
      <point x="442" y="86" type="line"/>
      <point x="424" y="86"/>
      <point x="399" y="111"/>
      <point x="399" y="129" type="curve" smooth="yes"/>
      <point x="399" y="1509" type="line"/>
      <point x="315" y="1509" type="line"/>
      <point x="53" y="1430" type="line" name="hr06"/>
      <point x="53" y="1362" type="line" name="hr07"/>
      <point x="209" y="1362" type="line"/>
      <point x="209" y="129" type="line" smooth="yes"/>
      <point x="209" y="111"/>
      <point x="182" y="86"/>
      <point x="164" y="86" type="curve"/>
      <point x="55" y="80" type="line"/>
      <point x="55" y="0" type="line"/>
    </contour>
    <contour>
      <point x="671" y="1580" type="move" name="U"/>
    </contour>
    <contour>
      <point x="604" y="-100" type="move" name="L"/>
    </contour>
  </outline>
</glyph>
<glyph name="LtnSmLZDigraph" format="1">
  <advance width="1188"/>
  <unicode hex="02AB"/>
  <outline>
    <contour>
      <point x="1119" y="0" type="line" name="hr01"/>
      <point x="1119" y="309" type="line"/>
      <point x="1008" y="309" type="line"/>
      <point x="987" y="147" type="line" smooth="yes"/>
      <point x="985" y="127"/>
      <point x="961" y="98"/>
      <point x="942" y="98" type="curve" smooth="yes"/>
      <point x="529" y="98" type="line"/>
      <point x="1090" y="903" type="line"/>
      <point x="1090" y="987" type="line"/>
      <point x="399" y="987" type="line"/>
      <point x="399" y="1509" type="line"/>
      <point x="315" y="1509" type="line"/>
      <point x="53" y="1430" type="line" name="hr02"/>
      <point x="53" y="1362" type="line" name="hr03"/>
      <point x="209" y="1362" type="line"/>
      <point x="209" y="129" type="line" smooth="yes"/>
      <point x="209" y="111"/>
      <point x="182" y="86"/>
      <point x="164" y="86" type="curve"/>
      <point x="55" y="80" type="line"/>
      <point x="55" y="0" type="line" name="hr04"/>
    </contour>
    <contour>
      <point x="439" y="848" type="line"/>
      <point x="443" y="866"/>
      <point x="460" y="891"/>
      <point x="480" y="891" type="curve" smooth="yes"/>
      <point x="854" y="891" type="line"/>
      <point x="399" y="234" type="line"/>
      <point x="399" y="696" type="line"/>
    </contour>
    <contour>
      <point x="640" y="1580" type="move" name="U"/>
    </contour>
    <contour>
      <point x="586" y="-100" type="move" name="L"/>
    </contour>
  </outline>
</glyph>
<glyph name="LtnBidentalPercussive" format="1">
  <advance width="1015"/>
  <unicode hex="02AD"/>
  <outline>
    <contour>
      <point x="945" y="1005" type="line" name="hr01"/>
      <point x="945" y="1410" type="line"/>
      <point x="60" y="1410" type="line"/>
      <point x="60" y="1005" type="line"/>
      <point x="139" y="1005" type="line"/>
      <point x="139" y="1292" type="line"/>
      <point x="866" y="1292" type="line"/>
      <point x="866" y="1005" type="line"/>
    </contour>
    <contour>
      <point x="955" y="0" type="line" name="hr02"/>
      <point x="955" y="405" type="line"/>
      <point x="70" y="405" type="line"/>
      <point x="70" y="0" type="line"/>
      <point x="149" y="0" type="line"/>
      <point x="149" y="287" type="line"/>
      <point x="876" y="287" type="line"/>
      <point x="876" y="0" type="line"/>
    </contour>
    <contour>
      <point x="507" y="1540" type="move" name="U"/>
    </contour>
    <contour>
      <point x="507" y="-100" type="move" name="L"/>
    </contour>
  </outline>
</glyph>
<glyph name="LtnSmTurnedHFishhook" format="1">
  <advance width="1321"/>
  <unicode hex="02AE"/>
  <outline>
    <contour>
      <point x="1290" y="-389" type="line" name="hr01"/>
      <point x="1290" y="-322" type="line" name="hr02"/>
      <point x="1135" y="-322" type="line"/>
      <point x="1135" y="856" type="line" smooth="yes"/>
      <point x="1135" y="881"/>
      <point x="1153" y="897"/>
      <point x="1178" y="899" type="curve" smooth="yes"/>
      <point x="1276" y="907" type="line"/>
      <point x="1276" y="987" type="line"/>
      <point x="813" y="987" type="line"/>
      <point x="813" y="907" type="line"/>
      <point x="901" y="899" type="line" smooth="yes"/>
      <point x="926" y="897"/>
      <point x="944" y="881"/>
      <point x="944" y="856" type="curve" smooth="yes"/>
      <point x="944" y="182" type="line"/>
      <point x="885" y="152"/>
      <point x="793" y="121"/>
      <point x="721" y="121" type="curve" smooth="yes"/>
      <point x="563" y="121"/>
      <point x="518" y="209"/>
      <point x="518" y="326" type="curve" smooth="yes"/>
      <point x="518" y="621" type="line" smooth="yes"/>
      <point x="518" y="854"/>
      <point x="416" y="1012"/>
      <point x="168" y="1012" type="curve" smooth="yes" name="hr03"/>
      <point x="43" y="1012"/>
      <point x="-25" y="952"/>
      <point x="-25" y="885" type="curve" smooth="yes"/>
      <point x="-25" y="795"/>
      <point x="63" y="770"/>
      <point x="63" y="770" type="curve"/>
      <point x="248" y="911" type="line" name="hr04"/>
      <point x="309" y="887"/>
      <point x="328" y="846"/>
      <point x="328" y="672" type="curve" smooth="yes"/>
      <point x="328" y="291" type="line" smooth="yes"/>
      <point x="328" y="82"/>
      <point x="449" y="-25"/>
      <point x="606" y="-25" type="curve" smooth="yes"/>
      <point x="713" y="-25"/>
      <point x="870" y="55"/>
      <point x="944" y="100" type="curve"/>
      <point x="944" y="-469" type="line"/>
      <point x="1026" y="-469" type="line"/>
    </contour>
    <contour>
      <point x="632" y="1100" type="move" name="U"/>
    </contour>
    <contour>
      <point x="632" y="-500" type="move" name="L"/>
    </contour>
  </outline>
</glyph>
<glyph name="ModSmR" format="1">
  <advance width="526"/>
  <unicode hex="02B3"/>
  <outline>
    <contour>
      <point x="512" y="1251" type="line" name="hr01"/>
      <point x="512" y="1372" type="line" name="hr02"/>
      <point x="496" y="1382"/>
      <point x="459" y="1391"/>
      <point x="430" y="1391" type="curve" smooth="yes" name="hr03"/>
      <point x="367" y="1391"/>
      <point x="293" y="1307"/>
      <point x="254" y="1268" type="curve"/>
      <point x="254" y="1376" type="line" name="hr04"/>
      <point x="201" y="1376" type="line"/>
      <point x="35" y="1329" type="line" name="hr05"/>
      <point x="35" y="1288" type="line" name="hr06"/>
      <point x="131" y="1288" type="line"/>
      <point x="131" y="862" type="line" smooth="yes"/>
      <point x="131" y="848"/>
      <point x="119" y="838"/>
      <point x="102" y="836" type="curve" smooth="yes"/>
      <point x="37" y="831" type="line"/>
      <point x="37" y="784" type="line"/>
      <point x="371" y="784" type="line"/>
      <point x="371" y="831" type="line"/>
      <point x="283" y="836" type="line"/>
      <point x="266" y="838"/>
      <point x="254" y="848"/>
      <point x="254" y="862" type="curve" smooth="yes"/>
      <point x="254" y="1208" type="line" name="hr07"/>
      <point x="299" y="1255"/>
      <point x="344" y="1284"/>
      <point x="387" y="1284" type="curve" smooth="yes"/>
      <point x="420" y="1284"/>
      <point x="442" y="1270"/>
      <point x="461" y="1251" type="curve" name="hr08"/>
    </contour>
    <contour>
      <point x="273" y="1450" type="move" name="U"/>
    </contour>
    <contour>
      <point x="273" y="725" type="move" name="L"/>
    </contour>
  </outline>
</glyph>
<glyph name="ModUpArrwhd" format="1">
  <advance width="975"/>
  <unicode hex="02C4"/>
  <outline>
    <contour>
      <point x="872" y="850" type="line" name="hr00"/>
      <point x="532" y="1587" type="line"/>
      <point x="442" y="1587" type="line"/>
      <point x="102" y="850" type="line"/>
      <point x="195" y="850" type="line"/>
      <point x="487" y="1509" type="line"/>
      <point x="780" y="850" type="line"/>
    </contour>
  </outline>
</glyph>
<glyph name="ModLowMacron" format="1">
  <advance width="686"/>
  <unicode hex="02CD"/>
  <outline>
    <contour>
      <point x="686" y="-305" type="line" name="hr00"/>
      <point x="686" y="-175" type="line"/>
      <point x="0" y="-175" type="line"/>
      <point x="0" y="-305" type="line"/>
    </contour>
  </outline>
</glyph>
<glyph name="ModTriangularColon" format="1">
  <advance width="522"/>
  <unicode hex="02D0"/>
  <outline>
    <contour>
      <point x="434" y="985" type="line" name="hr01"/>
      <point x="88" y="985" type="line"/>
      <point x="190" y="659" type="line" name="hr02"/>
      <point x="332" y="659" type="line"/>
    </contour>
    <contour>
      <point x="434" y="0" type="line"/>
      <point x="332" y="326" type="line" name="hr03"/>
      <point x="190" y="326" type="line"/>
      <point x="88" y="0" type="line"/>
    </contour>
    <contour>
      <point x="261" y="1100" type="move" name="U"/>
    </contour>
    <contour>
      <point x="261" y="-100" type="move" name="L"/>
    </contour>
  </outline>
</glyph>
<glyph name="ModHalfTriangularColon" format="1">
  <advance width="522"/>
  <unicode hex="02D1"/>
  <outline>
    <contour>
      <point x="434" y="985" type="line" name="hr01"/>
      <point x="88" y="985" type="line"/>
      <point x="190" y="659" type="line" name="hr02"/>
      <point x="332" y="659" type="line"/>
    </contour>
  </outline>
</glyph>
<glyph name="ModCntrdRtHalfRing" format="1">
  <advance width="563"/>
  <unicode hex="02D2"/>
  <outline>
    <contour>
      <point x="461" y="358" type="curve" smooth="yes" name="hr00"/>
      <point x="461" y="557"/>
      <point x="336" y="717"/>
      <point x="102" y="717" type="curve"/>
      <point x="102" y="612" type="line"/>
      <point x="262" y="612"/>
      <point x="358" y="514"/>
      <point x="358" y="358" type="curve" smooth="yes"/>
      <point x="358" y="195"/>
      <point x="262" y="102"/>
      <point x="102" y="102" type="curve"/>
      <point x="102" y="0" type="line"/>
      <point x="336" y="0"/>
      <point x="461" y="154"/>
    </contour>
  </outline>
</glyph>
<glyph name="ModCntrdLftHalfRing" format="1">
  <advance width="563"/>
  <unicode hex="02D3"/>
  <outline>
    <contour>
      <point x="461" y="0" type="curve" name="hr00"/>
      <point x="461" y="102" type="line"/>
      <point x="301" y="102"/>
      <point x="205" y="195"/>
      <point x="205" y="358" type="curve" smooth="yes"/>
      <point x="205" y="514"/>
      <point x="301" y="612"/>
      <point x="461" y="612" type="curve"/>
      <point x="461" y="717" type="line"/>
      <point x="227" y="717"/>
      <point x="102" y="557"/>
      <point x="102" y="358" type="curve" smooth="yes"/>
      <point x="102" y="154"/>
      <point x="227" y="0"/>
    </contour>
  </outline>
</glyph>
<glyph name="ModUpTack" format="1">
  <advance width="809"/>
  <unicode hex="02D4"/>
  <outline>
    <contour>
      <point x="690" y="236" type="line" name="hr00"/>
      <point x="690" y="317" type="line"/>
      <point x="446" y="317" type="line"/>
      <point x="446" y="727" type="line"/>
      <point x="365" y="727" type="line"/>
      <point x="365" y="317" type="line"/>
      <point x="119" y="317" type="line"/>
      <point x="119" y="236" type="line"/>
    </contour>
  </outline>
</glyph>
<glyph name="ModDwnTack" format="1">
  <advance width="809"/>
  <unicode hex="02D5"/>
  <outline>
    <contour>
      <point x="690" y="645" type="line" name="hr00"/>
      <point x="690" y="727" type="line"/>
      <point x="119" y="727" type="line"/>
      <point x="119" y="645" type="line"/>
      <point x="365" y="645" type="line"/>
      <point x="365" y="236" type="line"/>
      <point x="446" y="236" type="line"/>
      <point x="446" y="645" type="line"/>
    </contour>
  </outline>
</glyph>
<glyph name="ModCrossAccent" format="1">
  <advance width="590"/>
  <unicode hex="02DF"/>
  <outline>
    <contour>
      <point x="407" y="314" type="line" name="hr00"/>
      <point x="473" y="380" type="line"/>
      <point x="361" y="492" type="line"/>
      <point x="473" y="604" type="line"/>
      <point x="407" y="670" type="line"/>
      <point x="295" y="558" type="line"/>
      <point x="183" y="670" type="line"/>
      <point x="117" y="604" type="line"/>
      <point x="229" y="492" type="line"/>
      <point x="117" y="380" type="line"/>
      <point x="183" y="314" type="line"/>
      <point x="295" y="426" type="line"/>
    </contour>
  </outline>
</glyph>
<glyph name="ModSmX" format="1">
  <advance width="680"/>
  <unicode hex="02E3"/>
  <outline>
    <contour>
      <point x="666" y="784" type="line" name="hr01"/>
      <point x="666" y="831" type="line"/>
      <point x="594" y="842" type="line"/>
      <point x="397" y="1108" type="line"/>
      <point x="575" y="1317" type="line" name="hr02"/>
      <point x="647" y="1327" type="line"/>
      <point x="647" y="1376" type="line" name="hr03"/>
      <point x="408" y="1376" type="line"/>
      <point x="408" y="1327" type="line"/>
      <point x="465" y="1323" type="line"/>
      <point x="475" y="1321"/>
      <point x="481" y="1307"/>
      <point x="473" y="1300" type="curve"/>
      <point x="356" y="1163" type="line"/>
      <point x="254" y="1300" type="line" smooth="yes"/>
      <point x="248" y="1309"/>
      <point x="254" y="1321"/>
      <point x="266" y="1323" type="curve" smooth="yes"/>
      <point x="313" y="1327" type="line"/>
      <point x="313" y="1376" type="line"/>
      <point x="18" y="1376" type="line"/>
      <point x="18" y="1327" type="line" name="hr04"/>
      <point x="98" y="1317" type="line"/>
      <point x="281" y="1069" type="line"/>
      <point x="90" y="842" type="line" name="hr05"/>
      <point x="12" y="831" type="line"/>
      <point x="12" y="784" type="line"/>
      <point x="266" y="784" type="line"/>
      <point x="266" y="831" type="line"/>
      <point x="201" y="838" type="line" smooth="yes"/>
      <point x="188" y="838"/>
      <point x="184" y="852"/>
      <point x="190" y="858" type="curve" smooth="yes"/>
      <point x="322" y="1016" type="line"/>
      <point x="436" y="858" type="line" smooth="yes"/>
      <point x="442" y="850"/>
      <point x="436" y="838"/>
      <point x="426" y="838" type="curve" smooth="yes"/>
      <point x="379" y="831" type="line"/>
      <point x="379" y="784" type="line"/>
    </contour>
    <contour>
      <point x="339" y="1450" type="move" name="U"/>
    </contour>
    <contour>
      <point x="339" y="725" type="move" name="L"/>
    </contour>
  </outline>
</glyph>
<glyph name="ModYangDepartingToneMrk" format="1">
  <advance width="688"/>
  <unicode hex="02EB"/>
  <outline>
    <contour>
      <point x="569" y="446" type="line" name="hr00"/>
      <point x="569" y="528" type="line"/>
      <point x="201" y="528" type="line"/>
      <point x="201" y="774" type="line"/>
      <point x="119" y="774" type="line"/>
      <point x="119" y="203" type="line"/>
      <point x="201" y="203" type="line"/>
      <point x="201" y="446" type="line"/>
    </contour>
  </outline>
</glyph>
<glyph name="ModBeginHighTn" format="1">
  <advance width="631"/>
  <unicode hex="02F9"/>
  <outline>
    <contour>
      <point x="50" y="1240" type="line" name="hr00"/>
      <point x="50" y="586" type="line"/>
      <point x="137" y="586" type="line"/>
      <point x="137" y="1153" type="line"/>
      <point x="581" y="1153" type="line"/>
      <point x="581" y="1240" type="line"/>
    </contour>
  </outline>
</glyph>
<glyph name="ModEndLowTn" format="1">
  <advance width="631"/>
  <unicode hex="02FC"/>
  <outline>
    <contour>
      <point x="584" y="-304" type="line" name="hr00"/>
      <point x="584" y="350" type="line"/>
      <point x="497" y="350" type="line"/>
      <point x="497" y="-217" type="line"/>
      <point x="53" y="-217" type="line"/>
      <point x="53" y="-304" type="line"/>
    </contour>
  </outline>
</glyph>
<glyph name="ModLowLftArrw" format="1">
  <advance width="1135"/>
  <unicode hex="02FF"/>
  <outline>
    <contour>
      <point x="1135" y="-358" type="line" name="hr00"/>
      <point x="1135" y="-235" type="line"/>
      <point x="205" y="-235" type="line"/>
      <point x="611" y="-72" type="line"/>
      <point x="576" y="19" type="line"/>
      <point x="0" y="-230" type="line"/>
      <point x="0" y="-363" type="line"/>
      <point x="576" y="-612" type="line"/>
      <point x="611" y="-521" type="line"/>
      <point x="205" y="-358" type="line"/>
    </contour>
  </outline>
</glyph>
<glyph name="CombAcute" format="1">
  <advance width="0"/>
  <unicode hex="0301"/>
  <outline>
    <contour>
      <point x="-261" y="1409" type="curve" smooth="yes" name="hr00"/>
      <point x="-261" y="1452"/>
      <point x="-284" y="1501"/>
      <point x="-355" y="1501" type="curve" smooth="yes"/>
      <point x="-413" y="1501"/>
      <point x="-433" y="1481"/>
      <point x="-464" y="1446" type="curve" smooth="yes"/>
      <point x="-736" y="1128" type="line"/>
      <point x="-620" y="1128" type="line"/>
      <point x="-308" y="1327" type="line" smooth="yes"/>
      <point x="-282" y="1346"/>
      <point x="-261" y="1372"/>
    </contour>
    <contour>
      <point x="-557" y="1500" type="move" name="U"/>
    </contour>
    <contour>
      <point x="-557" y="1100" type="move" name="_U"/>
    </contour>
  </outline>
</glyph>
<glyph name="CombCircum" format="1">
  <advance width="0"/>
  <unicode hex="0302"/>
  <outline>
    <contour>
      <point x="-222" y="1128" type="line" name="hr00"/>
      <point x="-480" y="1475" type="line"/>
      <point x="-634" y="1475" type="line"/>
      <point x="-892" y="1128" type="line"/>
      <point x="-769" y="1128" type="line"/>
      <point x="-556" y="1331" type="line"/>
      <point x="-345" y="1128" type="line"/>
    </contour>
    <contour>
      <point x="-557" y="1500" type="move" name="U"/>
    </contour>
    <contour>
      <point x="-557" y="1100" type="move" name="_U"/>
    </contour>
  </outline>
</glyph>
<glyph name="CombMacron" format="1">
  <advance width="0"/>
  <unicode hex="0304"/>
  <outline>
    <contour>
      <point x="-214" y="1200" type="line" name="hr00"/>
      <point x="-214" y="1330" type="line"/>
      <point x="-900" y="1330" type="line"/>
      <point x="-900" y="1200" type="line"/>
    </contour>
    <contour>
      <point x="-557" y="1470" type="move" name="U"/>
    </contour>
    <contour>
      <point x="-557" y="1100" type="move" name="_U"/>
    </contour>
  </outline>
</glyph>
<glyph name="CombOverline" format="1">
  <advance width="0"/>
  <unicode hex="0305"/>
  <outline>
    <contour>
      <point x="29" y="1560" type="line" name="hr00"/>
      <point x="-1143" y="1560" type="line"/>
      <point x="-1143" y="1430" type="line"/>
      <point x="29" y="1430" type="line"/>
    </contour>
    <contour>
      <point x="-557" y="1100" type="move" name="_U"/>
    </contour>
    <contour>
      <point x="-557" y="1580" type="move" name="U"/>
    </contour>
  </outline>
</glyph>
<glyph name="CombDiaer" format="1">
  <advance width="0"/>
  <unicode hex="0308"/>
  <outline>
    <contour>
      <point x="-233" y="1313" type="curve" smooth="yes" name="hr00"/>
      <point x="-233" y="1372"/>
      <point x="-282" y="1425"/>
      <point x="-343" y="1425" type="curve" smooth="yes"/>
      <point x="-403" y="1425"/>
      <point x="-456" y="1370"/>
      <point x="-456" y="1313" type="curve" smooth="yes"/>
      <point x="-456" y="1251"/>
      <point x="-405" y="1198"/>
      <point x="-343" y="1198" type="curve" smooth="yes"/>
      <point x="-282" y="1198"/>
      <point x="-233" y="1251"/>
    </contour>
    <contour>
      <point x="-657" y="1313" type="curve" smooth="yes"/>
      <point x="-657" y="1374"/>
      <point x="-708" y="1425"/>
      <point x="-769" y="1425" type="curve" smooth="yes"/>
      <point x="-829" y="1425"/>
      <point x="-880" y="1370"/>
      <point x="-880" y="1311" type="curve" smooth="yes"/>
      <point x="-880" y="1251"/>
      <point x="-829" y="1198"/>
      <point x="-769" y="1198" type="curve" smooth="yes"/>
      <point x="-708" y="1198"/>
      <point x="-657" y="1251"/>
    </contour>
    <contour>
      <point x="-557" y="1500" type="move" name="U"/>
    </contour>
    <contour>
      <point x="-557" y="1100" type="move" name="_U"/>
    </contour>
  </outline>
</glyph>
<glyph name="CombHookAbv" format="1">
  <advance width="0"/>
  <unicode hex="0309"/>
  <outline>
    <contour>
      <point x="-401" y="1401" type="curve" smooth="yes" name="hr00"/>
      <point x="-401" y="1483"/>
      <point x="-460" y="1548"/>
      <point x="-560" y="1548" type="curve" smooth="yes"/>
      <point x="-653" y="1548"/>
      <point x="-712" y="1489"/>
      <point x="-712" y="1454" type="curve" smooth="yes"/>
      <point x="-712" y="1432"/>
      <point x="-702" y="1405"/>
      <point x="-667" y="1405" type="curve" smooth="yes"/>
      <point x="-646" y="1405"/>
      <point x="-630" y="1415"/>
      <point x="-630" y="1415" type="curve"/>
      <point x="-608" y="1481" type="line"/>
      <point x="-593" y="1497"/>
      <point x="-577" y="1501"/>
      <point x="-558" y="1501" type="curve" smooth="yes"/>
      <point x="-519" y="1501"/>
      <point x="-485" y="1460"/>
      <point x="-485" y="1395" type="curve" smooth="yes"/>
      <point x="-485" y="1319"/>
      <point x="-544" y="1286"/>
      <point x="-599" y="1270" type="curve"/>
      <point x="-599" y="1128" type="line"/>
      <point x="-544" y="1128" type="line"/>
      <point x="-544" y="1245" type="line"/>
      <point x="-497" y="1264"/>
      <point x="-401" y="1307"/>
    </contour>
    <contour>
      <point x="-557" y="1500" type="move" name="U"/>
    </contour>
    <contour>
      <point x="-557" y="1100" type="move" name="_U"/>
    </contour>
  </outline>
</glyph>
<glyph name="CombDblVertLineAbv" format="1">
  <advance width="0"/>
  <unicode hex="030E"/>
  <outline>
    <contour>
      <point x="-405" y="1128" type="line" name="hr00"/>
      <point x="-405" y="1479" type="line"/>
      <point x="-497" y="1479" type="line"/>
      <point x="-497" y="1128" type="line"/>
    </contour>
    <contour>
      <point x="-614" y="1128" type="line"/>
      <point x="-614" y="1479" type="line"/>
      <point x="-708" y="1479" type="line"/>
      <point x="-708" y="1128" type="line"/>
    </contour>
    <contour>
      <point x="-557" y="1500" type="move" name="U"/>
    </contour>
    <contour>
      <point x="-557" y="1100" type="move" name="_U"/>
    </contour>
  </outline>
</glyph>
<glyph name="CombTrndCommaAbv" format="1">
  <advance width="0"/>
  <unicode hex="0312"/>
  <outline>
    <contour>
      <point x="-686" y="1294" type="curve" smooth="yes" name="hr00"/>
      <point x="-686" y="1187"/>
      <point x="-627" y="1128"/>
      <point x="-541" y="1128" type="curve" smooth="yes"/>
      <point x="-481" y="1128"/>
      <point x="-428" y="1165"/>
      <point x="-428" y="1224" type="curve" smooth="yes"/>
      <point x="-428" y="1267"/>
      <point x="-453" y="1294"/>
      <point x="-459" y="1298" type="curve"/>
      <point x="-580" y="1298" type="line"/>
      <point x="-580" y="1416"/>
      <point x="-541" y="1455"/>
      <point x="-432" y="1490" type="curve"/>
      <point x="-432" y="1550" type="line"/>
      <point x="-578" y="1523"/>
      <point x="-686" y="1435"/>
    </contour>
    <contour>
      <point x="-557" y="1500" type="move" name="U"/>
    </contour>
    <contour>
      <point x="-557" y="1100" type="move" name="_U"/>
    </contour>
  </outline>
</glyph>
<glyph name="CombCommaAbvRt" format="1">
  <advance width="258"/>
  <unicode hex="0315"/>
  <outline>
    <contour>
      <point x="258" y="1584" type="curve" smooth="yes" name="hr00"/>
      <point x="258" y="1691"/>
      <point x="199" y="1750"/>
      <point x="113" y="1750" type="curve" smooth="yes"/>
      <point x="53" y="1750"/>
      <point x="0" y="1713"/>
      <point x="0" y="1654" type="curve" smooth="yes"/>
      <point x="0" y="1611"/>
      <point x="25" y="1584"/>
      <point x="31" y="1580" type="curve"/>
      <point x="152" y="1580" type="line"/>
      <point x="152" y="1462"/>
      <point x="113" y="1423"/>
      <point x="4" y="1388" type="curve"/>
      <point x="4" y="1328" type="line"/>
      <point x="150" y="1355"/>
      <point x="258" y="1443"/>
    </contour>
    <contour>
      <point x="0" y="1200" type="move" name="_R"/>
    </contour>
  </outline>
</glyph>
<glyph name="CombGraveBlw" format="1">
  <advance width="0"/>
  <unicode hex="0316"/>
  <outline>
    <contour>
      <point x="-319" y="-498" type="line" name="hr00"/>
      <point x="-593" y="-180" type="line" smooth="yes"/>
      <point x="-622" y="-145"/>
      <point x="-642" y="-125"/>
      <point x="-700" y="-125" type="curve" smooth="yes"/>
      <point x="-769" y="-125"/>
      <point x="-794" y="-174"/>
      <point x="-794" y="-215" type="curve" smooth="yes"/>
      <point x="-794" y="-254"/>
      <point x="-776" y="-281"/>
      <point x="-747" y="-299" type="curve" smooth="yes"/>
      <point x="-436" y="-498" type="line"/>
    </contour>
    <contour>
      <point x="-557" y="-500" type="move" name="L"/>
    </contour>
    <contour>
      <point x="-557" y="-100" type="move" name="_L"/>
    </contour>
  </outline>
</glyph>
<glyph name="CombLftTackBlw" format="1">
  <advance width="0"/>
  <unicode hex="0318"/>
  <outline>
    <contour>
      <point x="-429" y="-494" type="line" name="hr00"/>
      <point x="-429" y="-125" type="line"/>
      <point x="-511" y="-125" type="line"/>
      <point x="-511" y="-268" type="line"/>
      <point x="-685" y="-268" type="line"/>
      <point x="-685" y="-350" type="line"/>
      <point x="-511" y="-350" type="line"/>
      <point x="-511" y="-494" type="line"/>
    </contour>
    <contour>
      <point x="-557" y="-500" type="move" name="L"/>
    </contour>
    <contour>
      <point x="-557" y="-100" type="move" name="_L"/>
    </contour>
  </outline>
</glyph>
<glyph name="CombRtTackBlw" format="1">
  <advance width="0"/>
  <unicode hex="0319"/>
  <outline>
    <contour>
      <point x="-429" y="-350" type="line" name="hr00"/>
      <point x="-429" y="-268" type="line"/>
      <point x="-603" y="-268" type="line"/>
      <point x="-603" y="-125" type="line"/>
      <point x="-685" y="-125" type="line"/>
      <point x="-685" y="-494" type="line"/>
      <point x="-603" y="-494" type="line"/>
      <point x="-603" y="-350" type="line"/>
    </contour>
    <contour>
      <point x="-557" y="-500" type="move" name="L"/>
    </contour>
    <contour>
      <point x="-557" y="-100" type="move" name="_L"/>
    </contour>
  </outline>
</glyph>
<glyph name="CombLftAngAbv" format="1">
  <advance width="612"/>
  <unicode hex="031A"/>
  <outline>
    <contour>
      <point x="510" y="981" type="line" name="hr00"/>
      <point x="510" y="1409" type="line"/>
      <point x="102" y="1409" type="line"/>
      <point x="102" y="1327" type="line"/>
      <point x="428" y="1327" type="line"/>
      <point x="428" y="981" type="line"/>
    </contour>
  </outline>
</glyph>
<glyph name="CombHorn" format="1">
  <advance width="374"/>
  <unicode hex="031B"/>
  <outline>
    <contour>
      <point x="360" y="1492" type="curve" smooth="yes" name="hr00"/>
      <point x="360" y="1637"/>
      <point x="293" y="1712"/>
      <point x="190" y="1712" type="curve" smooth="yes"/>
      <point x="113" y="1712"/>
      <point x="28" y="1651"/>
      <point x="28" y="1557" type="curve" smooth="yes"/>
      <point x="28" y="1510"/>
      <point x="58" y="1475"/>
      <point x="58" y="1475" type="curve"/>
      <point x="227" y="1475" type="line"/>
      <point x="227" y="1465"/>
      <point x="229" y="1449"/>
      <point x="229" y="1438" type="curve" smooth="yes"/>
      <point x="231" y="1320"/>
      <point x="166" y="1192"/>
      <point x="59" y="1147" type="curve"/>
      <point x="55" y="1072" type="line"/>
      <point x="187" y="1111"/>
      <point x="360" y="1247"/>
    </contour>
    <contour>
      <point x="0" y="1200" type="move" name="_R"/>
    </contour>
  </outline>
</glyph>
